<svg width="328" height="306" viewBox="0 0 328 306" fill="none" xmlns="http://www.w3.org/2000/svg">
<g clip-path="url(#clip0_314_259)">
<path d="M294.607 306H6.75304C4.96202 306 3.24436 305.286 1.97792 304.016C0.711483 302.745 4.27271e-06 301.022 4.27271e-06 299.225C-0.000994154 298.335 0.172998 297.453 0.512015 296.631C0.851033 295.808 1.34842 295.061 1.9757 294.431C2.60297 293.802 3.34781 293.303 4.16758 292.963C4.98735 292.623 5.86593 292.448 6.75304 292.449H294.607C296.398 292.449 298.115 293.163 299.382 294.434C300.648 295.704 301.36 297.428 301.36 299.225C301.358 301.021 300.646 302.743 299.38 304.013C298.114 305.284 296.397 305.998 294.607 306Z" fill="#E6EDFF"/>
<path d="M297.104 173.133L296.74 172.912C288.006 167.812 277.71 165.847 267.785 163.389C258.566 161.105 248.217 158.059 241.137 151.299C232.533 143.108 233.732 131.825 237.04 121.563C240.515 110.791 243.793 99.9503 242.26 88.5158C240.464 75.2411 234.556 62.8684 225.37 53.1463C210.954 37.9814 188.631 29.9422 167.241 32.2109C138.537 35.256 114.962 55.1256 97.0625 76.632C85.3168 90.7463 78.3892 106.771 64.9894 120.178C51.7489 133.424 36.8771 145.361 25.7308 160.374C10.912 180.35 3.67341 205.838 8.48399 229.841C13.2946 253.845 30.8904 275.77 54.9813 284.433C70.3236 289.953 87.153 290.067 103.542 290.113C137.626 290.196 171.756 290.288 205.726 287.692C228.079 285.986 250.736 283.017 271.101 274.103C291.466 265.188 309.502 249.559 316.179 229.248C322.826 209.066 315.937 184.392 297.104 173.133Z" fill="#E0EAF5"/>
<path d="M23.2565 125.529C22.7316 123.623 21.7223 121.887 20.3276 120.489L18.0513 118.7C16.3061 117.689 14.3231 117.163 12.3075 117.178H11.746C10.2225 117.112 8.70908 117.454 7.36029 118.168C5.9542 118.62 4.69065 119.433 3.69544 120.528C2.60908 121.527 1.79878 122.791 1.34326 124.197C0.632554 125.55 0.294658 127.069 0.364452 128.597C0.493442 129.61 0.630022 130.622 0.766601 131.642C1.2886 133.538 2.2896 135.266 3.67268 136.659L5.94898 138.448C7.69366 139.461 9.67704 139.987 11.6928 139.971H12.2543C13.7773 140.041 15.2913 139.702 16.64 138.989C18.0434 138.536 19.3042 137.722 20.2973 136.629C21.3875 135.628 22.2005 134.362 22.657 132.952C23.366 131.598 23.7038 130.079 23.6358 128.551L23.2565 125.529Z" fill="#E6EDFF"/>
<path d="M303.408 138.653C316.99 138.653 328 127.607 328 113.98C328 100.353 316.99 89.3066 303.408 89.3066C289.826 89.3066 278.816 100.353 278.816 113.98C278.816 127.607 289.826 138.653 303.408 138.653Z" fill="#E0EAF5"/>
<path d="M211.393 0.168282C210.355 0.380712 209.339 0.68908 208.358 1.08944C208.42 1.16226 208.478 1.23851 208.532 1.31783C208.721 1.62375 208.847 1.96389 208.904 2.31883C208.962 2.67377 208.949 3.03656 208.866 3.38649C208.784 3.73641 208.634 4.06662 208.424 4.35826C208.214 4.6499 207.95 4.89726 207.645 5.08621C207.34 5.27516 207.001 5.402 206.647 5.4595C206.293 5.517 205.932 5.50402 205.583 5.42131C205.234 5.3386 204.905 5.18778 204.614 4.97745C204.324 4.76713 204.077 4.50142 203.889 4.1955C203.835 4.1048 203.787 4.01072 203.745 3.91382C202.939 4.62088 202.202 5.40348 201.544 6.25098C201.643 6.25098 201.741 6.31949 201.832 6.36517C202.165 6.52489 202.461 6.75041 202.705 7.02815C202.948 7.3059 203.132 7.63014 203.247 7.98135C203.362 8.33256 203.405 8.70349 203.374 9.07181C203.342 9.44013 203.237 9.79824 203.064 10.1246C202.89 10.4509 202.653 10.7387 202.366 10.9707C202.08 11.2027 201.749 11.374 201.394 11.4745C201.04 11.5749 200.668 11.6022 200.303 11.555C199.938 11.5077 199.585 11.3867 199.268 11.1994C199.168 11.1413 199.072 11.0777 198.979 11.009C198.625 12.0324 198.371 13.088 198.221 14.1608C198.333 14.1376 198.447 14.1223 198.562 14.1151C199.268 14.1185 199.945 14.3959 200.451 14.889C200.958 15.3822 201.254 16.0528 201.279 16.7605C201.303 17.4681 201.054 18.1578 200.583 18.685C200.112 19.2123 199.456 19.5361 198.752 19.5888C198.623 19.5963 198.494 19.5963 198.365 19.5888C198.57 20.6623 198.88 21.7129 199.291 22.7253C199.388 22.6382 199.492 22.5593 199.602 22.4893C200.214 22.1444 200.935 22.0495 201.616 22.2242C202.296 22.3989 202.883 22.8298 203.255 23.4274C203.627 24.025 203.756 24.7435 203.614 25.4335C203.472 26.1236 203.07 26.7323 202.493 27.1331C202.371 27.2047 202.245 27.2658 202.113 27.3158C202.833 28.1541 203.634 28.9191 204.503 29.5997C204.545 29.4684 204.599 29.341 204.663 29.2191C205.002 28.578 205.581 28.0984 206.272 27.8856C206.964 27.6729 207.711 27.7445 208.35 28.0847C208.989 28.4249 209.467 29.0059 209.679 29.6997C209.891 30.3936 209.82 31.1435 209.481 31.7846C209.408 31.9158 209.324 32.0406 209.23 32.1576C210.272 32.5203 211.347 32.7754 212.44 32.9189C212.411 32.7785 212.393 32.6359 212.387 32.4926C212.361 31.7678 212.623 31.0622 213.115 30.5311C213.607 30 214.29 29.6869 215.012 29.6606C215.735 29.6344 216.438 29.8971 216.967 30.3911C217.497 30.8851 217.809 31.5698 217.835 32.2947C217.85 32.4465 217.85 32.5996 217.835 32.7514C218.919 32.5368 219.979 32.2129 220.999 31.7846C220.9 31.6817 220.811 31.5695 220.733 31.4496C220.543 31.1452 220.414 30.8062 220.355 30.4518C220.295 30.0975 220.305 29.7349 220.385 29.3846C220.465 29.0343 220.613 28.7033 220.821 28.4103C221.028 28.1174 221.291 27.8684 221.595 27.6775C221.898 27.4865 222.236 27.3574 222.589 27.2975C222.942 27.2375 223.304 27.248 223.653 27.3282C224.002 27.4085 224.332 27.5569 224.624 27.7651C224.916 27.9733 225.164 28.2371 225.354 28.5415C225.429 28.6662 225.495 28.7959 225.552 28.9298C226.374 28.2032 227.124 27.3975 227.79 26.5241C227.66 26.4813 227.534 26.4304 227.41 26.3718C226.771 26.0306 226.292 25.4483 226.08 24.753C225.868 24.0577 225.94 23.3064 226.28 22.6644C226.62 22.0223 227.2 21.5421 227.893 21.3294C228.586 21.1166 229.335 21.1888 229.975 21.53C230.091 21.6 230.202 21.6762 230.309 21.7584C230.664 20.7221 230.918 19.6539 231.068 18.5686C230.945 18.5944 230.821 18.6122 230.696 18.6219C230.315 18.6488 229.933 18.5952 229.574 18.4646C229.215 18.334 228.887 18.1294 228.611 17.8638C228.336 17.5983 228.119 17.2777 227.975 16.9229C227.831 16.5681 227.762 16.1869 227.774 15.8039C227.786 15.4208 227.878 15.0446 228.043 14.6993C228.209 14.354 228.445 14.0475 228.736 13.7994C229.027 13.5513 229.367 13.3672 229.733 13.2589C230.099 13.1507 230.484 13.1208 230.863 13.1711C230.652 12.1097 230.337 11.0718 229.922 10.0726C229.831 10.1412 229.755 10.2173 229.656 10.2782C229.044 10.623 228.323 10.718 227.642 10.5433C226.962 10.3686 226.375 9.93769 226.003 9.34007C225.631 8.74244 225.502 8.024 225.644 7.33393C225.787 6.64387 226.188 6.03521 226.766 5.63434C226.858 5.57857 226.954 5.5302 227.054 5.48969C226.346 4.68379 225.56 3.94944 224.709 3.29718C224.678 3.39112 224.64 3.48271 224.595 3.57124C224.256 4.2123 223.677 4.69194 222.986 4.90467C222.294 5.1174 221.547 5.04577 220.908 4.70556C220.269 4.36535 219.791 3.78442 219.579 3.09056C219.367 2.3967 219.438 1.64675 219.777 1.0057C219.829 0.919087 219.884 0.835228 219.944 0.754475C218.935 0.407267 217.892 0.164922 216.833 0.03125C216.854 0.121319 216.867 0.213024 216.871 0.305314C216.884 0.664221 216.826 1.02208 216.7 1.35844C216.575 1.69481 216.385 2.00311 216.14 2.26573C215.896 2.52835 215.603 2.74015 215.277 2.88905C214.952 3.03794 214.6 3.12101 214.242 3.1335C213.884 3.146 213.528 3.08768 213.192 2.96188C212.857 2.83608 212.55 2.64526 212.288 2.40031C212.026 2.15536 211.815 1.86108 211.667 1.53428C211.519 1.20747 211.436 0.854543 211.423 0.495637C211.404 0.387576 211.394 0.278065 211.393 0.168282ZM214.261 6.92853C216.139 6.85282 217.997 7.33812 219.6 8.32293C221.202 9.30774 222.478 10.7477 223.264 12.4604C224.05 14.1731 224.312 16.0815 224.016 17.9436C223.72 19.8057 222.88 21.5378 221.602 22.9204C220.324 24.3031 218.666 25.2739 216.838 25.7101C215.009 26.1462 213.093 26.0279 211.331 25.3702C209.57 24.7126 208.043 23.5451 206.944 22.0158C205.844 20.4864 205.222 18.6641 205.156 16.7796C205.068 14.2635 205.976 11.8147 207.682 9.9687C209.388 8.12267 211.754 7.02961 214.261 6.92853Z" fill="#E6EDFF"/>
<path d="M36.1407 98.222C53.1041 98.222 66.8556 85.5597 66.8556 69.9401C66.8556 54.3204 53.1041 41.6582 36.1407 41.6582C19.1773 41.6582 5.42578 54.3204 5.42578 69.9401C5.42578 85.5597 19.1773 98.222 36.1407 98.222Z" fill="#E6EDFF"/>
<path d="M35.4122 70.3746L11.458 62.6855C10.5212 65.1402 10.0403 67.7461 10.0391 70.3746C10.0391 83.1947 21.4965 93.7385 35.4122 93.7385C39.9745 93.748 44.4656 92.6039 48.4706 90.4117L35.4122 70.3746Z" fill="#2E77AE"/>
<path d="M36.709 69.9395L49.9343 89.8776C53.5786 87.8527 56.6453 84.9252 58.8422 81.374C60.9488 77.9391 62.0699 73.9877 62.0822 69.9547L36.709 69.9395Z" fill="#BFD2FF"/>
<path d="M36.8691 68.8128L62.2423 68.493C62.1928 65.2942 61.4388 62.146 60.0343 59.2738C58.5886 56.3306 56.5471 53.7222 54.04 51.6152L36.8691 68.8128Z" fill="#FEFEFF"/>
<path d="M109.702 42.2832H100.514V64.4367H109.702V42.2832Z" fill="#2E77AE"/>
<path d="M123.907 31.4414H114.719V64.4357H123.907V31.4414Z" fill="#2E77AE"/>
<path d="M138.103 16.4746H128.914V64.4282H138.103V16.4746Z" fill="#2E77AE"/>
<path d="M152.308 37.457H143.119V64.4371H152.308V37.457Z" fill="#2E77AE"/>
<path d="M95.5977 16.9395V64.2307H158.37" stroke="#628AEC" stroke-width="0.88" stroke-miterlimit="10"/>
<path d="M236.675 31.1748C234.618 31.5807 232.605 32.1876 230.666 32.9867C230.789 33.1284 230.904 33.2784 231.007 33.4358C231.762 34.6473 232.006 36.1099 231.686 37.5019C231.365 38.8939 230.507 40.1013 229.3 40.8584C228.092 41.6156 226.635 41.8604 225.247 41.5392C223.86 41.218 222.656 40.3569 221.902 39.1455C221.799 38.9665 221.707 38.7809 221.629 38.5898C220.045 39.9707 218.597 41.5002 217.304 43.1575C217.492 43.2238 217.677 43.3 217.858 43.3859C218.481 43.7163 219.034 44.1667 219.484 44.7115C219.935 45.2563 220.274 45.8847 220.482 46.5608C220.69 47.237 220.763 47.9477 220.698 48.6523C220.632 49.357 220.429 50.0418 220.1 50.6676C219.77 51.2934 219.321 51.8481 218.778 52.2998C218.235 52.7516 217.609 53.0916 216.935 53.3005C216.261 53.5094 215.553 53.5831 214.851 53.5173C214.148 53.4515 213.466 53.2476 212.842 52.9172C212.646 52.801 212.456 52.6739 212.273 52.5366C211.582 54.5486 211.092 56.6244 210.809 58.7335C211.026 58.6876 211.247 58.6571 211.469 58.6421C212.178 58.6078 212.887 58.7152 213.555 58.958C214.223 59.2009 214.836 59.5743 215.359 60.0567C215.881 60.5391 216.303 61.1209 216.6 61.7683C216.897 62.4156 217.063 63.1157 217.088 63.8278C217.113 64.54 216.997 65.2501 216.747 65.9169C216.496 66.5837 216.116 67.1939 215.629 67.7122C215.141 68.2305 214.556 68.6465 213.907 68.936C213.258 69.2256 212.558 69.383 211.848 69.3991C211.594 69.4031 211.341 69.3878 211.089 69.3534C211.492 71.465 212.105 73.5308 212.918 75.5199C213.104 75.346 213.305 75.1881 213.517 75.0479C214.115 74.673 214.781 74.4199 215.476 74.3031C216.172 74.1863 216.883 74.208 217.57 74.3671C218.257 74.5261 218.906 74.8194 219.48 75.2301C220.054 75.6408 220.542 76.1609 220.915 76.7608C221.289 77.3606 221.541 78.0284 221.658 78.7261C221.774 79.4237 221.752 80.1376 221.594 80.8268C221.435 81.5161 221.143 82.1672 220.734 82.7431C220.324 83.3191 219.806 83.8085 219.208 84.1834C218.966 84.3272 218.712 84.4494 218.449 84.5488C219.865 86.1843 221.439 87.676 223.146 89.0023C223.225 88.7401 223.326 88.4854 223.45 88.241C224.114 86.9781 225.251 86.0316 226.61 85.6097C227.97 85.1878 229.441 85.3251 230.7 85.9914C231.958 86.6577 232.902 87.7984 233.322 89.1626C233.743 90.5267 233.606 92.0026 232.942 93.2655C232.804 93.5338 232.641 93.7887 232.456 94.0268C234.505 94.7357 236.62 95.2331 238.769 95.5113C238.708 95.2359 238.67 94.9558 238.655 94.6739C238.622 93.9631 238.73 93.2527 238.972 92.5839C239.215 91.915 239.587 91.3011 240.067 90.7775C240.547 90.2539 241.126 89.8311 241.771 89.5335C242.415 89.2359 243.112 89.0695 243.82 89.0438C244.529 89.0181 245.236 89.1337 245.9 89.3839C246.564 89.6342 247.172 90.014 247.689 90.5015C248.206 90.989 248.621 91.5744 248.91 92.224C249.2 92.8735 249.359 93.5742 249.377 94.2856C249.38 94.5837 249.359 94.8815 249.316 95.1764C251.443 94.7588 253.523 94.1262 255.523 93.2884C255.334 93.0784 255.162 92.8545 255.007 92.6184C254.252 91.407 254.008 89.9444 254.328 88.5524C254.648 87.1604 255.507 85.953 256.714 85.1959C257.921 84.4387 259.379 84.1938 260.767 84.515C262.154 84.8363 263.357 85.6973 264.112 86.9088C264.258 87.151 264.383 87.4057 264.484 87.67C266.104 86.2399 267.579 84.6511 268.885 82.9272C268.624 82.8466 268.37 82.7447 268.126 82.6227C267.504 82.2908 266.953 81.8392 266.504 81.2936C266.056 80.748 265.719 80.1192 265.513 79.443C265.307 78.7669 265.236 78.0566 265.303 77.3527C265.371 76.6489 265.576 75.9653 265.906 75.341C266.237 74.7166 266.687 74.1638 267.231 73.714C267.775 73.2642 268.402 72.9263 269.076 72.7195C269.75 72.5127 270.457 72.4412 271.159 72.5089C271.86 72.5766 272.542 72.7823 273.164 73.1142C273.393 73.2462 273.611 73.3964 273.817 73.5634C274.5 71.5251 274.981 69.4238 275.251 67.2904C275.013 67.3426 274.772 67.3757 274.53 67.3893C273.82 67.4236 273.111 67.3162 272.444 67.0734C271.776 66.8306 271.163 66.4571 270.64 65.9747C270.117 65.4923 269.695 64.9105 269.398 64.2632C269.101 63.6158 268.936 62.9157 268.91 62.2036C268.885 61.4914 269.001 60.7813 269.252 60.1146C269.503 59.4478 269.883 58.8375 270.37 58.3192C270.858 57.801 271.443 57.385 272.092 57.0954C272.741 56.8058 273.44 56.6484 274.15 56.6323C274.386 56.6321 274.622 56.6474 274.856 56.678C274.439 54.5912 273.816 52.5511 272.997 50.5877C272.833 50.7323 272.661 50.8671 272.481 50.9912C271.274 51.7483 269.816 51.9932 268.429 51.672C267.041 51.3507 265.838 50.4897 265.083 49.2783C264.329 48.0668 264.085 46.6042 264.405 45.2122C264.725 43.8202 265.583 42.6128 266.79 41.8557C266.977 41.7511 267.17 41.6571 267.367 41.574C265.97 39.9907 264.425 38.5453 262.754 37.2575C262.678 37.4402 262.625 37.6229 262.534 37.8056C261.866 39.0665 260.726 40.0095 259.365 40.4271C258.004 40.8447 256.533 40.7027 255.276 40.0324C254.019 39.3621 253.08 38.2183 252.663 36.8527C252.247 35.4871 252.389 34.0116 253.057 32.7507C253.155 32.5756 253.277 32.4233 253.391 32.2558C251.407 31.5902 249.364 31.1161 247.29 30.8398C247.29 31.0226 247.358 31.1977 247.366 31.388C247.416 32.8155 246.899 34.2045 245.929 35.2496C244.958 36.2947 243.614 36.9101 242.191 36.9606C240.768 37.0111 239.384 36.4924 238.342 35.5187C237.301 34.5451 236.687 33.1961 236.637 31.7686C236.638 31.5701 236.651 31.3718 236.675 31.1748ZM242.222 41.2543C246.542 41.1019 250.811 42.2384 254.488 44.52C258.165 46.8016 261.085 50.1259 262.879 54.0726C264.673 58.0192 265.26 62.4109 264.566 66.6924C263.873 70.9739 261.929 74.9529 258.982 78.1263C256.034 81.2996 252.215 83.5249 248.007 84.5206C243.799 85.5162 239.392 85.2377 235.342 83.7202C231.292 82.2026 227.781 79.5142 225.254 75.9948C222.726 72.4755 221.296 68.2833 221.143 63.9483C221.041 61.0692 221.505 58.1981 222.509 55.4991C223.513 52.8001 225.037 50.3261 226.995 48.2185C228.952 46.1109 231.305 44.411 233.917 43.2161C236.53 42.0211 239.352 41.3545 242.222 41.2543Z" fill="#E0EAF5"/>
<path d="M205.155 58.8862C204.495 58.3989 203.675 57.9954 203.425 57.2113C203.008 55.9628 204.351 54.6534 204.017 53.4049C203.744 52.3315 202.499 51.8823 201.376 51.7377C200.253 51.593 199.032 51.4179 198.41 50.5044C197.886 49.7431 198.007 48.7382 197.886 47.817C197.75 46.894 197.354 46.029 196.746 45.3238C196.137 44.6185 195.34 44.1022 194.449 43.8355C192.552 43.295 190.898 45.0231 189.312 45.7159C188.484 46.0826 187.759 46.6504 187.204 47.3681C186.649 48.0857 186.281 48.9307 186.133 49.8268C185.849 51.639 185.948 53.4906 186.421 55.2624C186.891 57.0302 187.239 58.8286 187.461 60.6447C187.53 62.5973 187.239 64.5459 186.603 66.3925C186.143 67.813 186.227 69.3547 186.838 70.7166C187.529 71.9042 188.917 72.4523 190.23 72.833C192.761 73.646 195.436 73.9056 198.076 73.5943C200.583 73.2583 202.889 72.0354 204.578 70.1456C205.739 69.2019 206.632 67.9677 207.166 66.5676C208.19 63.865 207.431 60.5305 205.155 58.8862Z" fill="#485070"/>
<path d="M192.006 49.6677C192.164 50.2223 192.21 50.803 192.141 51.3757C192.072 51.9483 191.889 52.5013 191.604 53.0021C191.414 53.3295 191.118 53.6644 190.739 53.634C190.359 53.6035 190.071 53.1315 189.934 52.7204C189.554 51.5818 189.314 50.4006 189.221 49.2033C189.16 48.442 189.297 47.1478 190.337 47.399C191.141 47.5894 191.793 48.9597 192.006 49.6677Z" fill="#0D2137"/>
<path d="M191.999 67.5948C191.24 70.2669 186.9 71.5611 184.411 68.4779C184.1 68.0972 183.819 67.7166 183.546 67.2979C180.853 67.8308 176.854 69.0031 175.056 71.188C174.521 71.9354 174.14 72.7815 173.933 73.6775C172.999 76.8749 172.218 80.1256 171.603 83.4067C171.505 83.7758 171.505 84.1644 171.603 84.5334C171.807 84.9579 172.129 85.3147 172.529 85.5612C176.247 88.4998 177.226 93.2502 178.447 97.5363C180.306 104.053 181.156 113.059 183 119.576C189.07 120.04 214.413 114.247 217.463 111.597C213.1 103.703 209.557 89.459 208.191 79.5622C207.599 75.3599 205.96 71.3631 204.359 67.4273C203.98 66.5061 203.646 64.3821 202.948 63.7883C202.022 63.027 193.198 64.3364 192.264 64.3669C192.264 64.8922 192.318 65.4175 192.333 65.9352C192.309 66.5025 192.196 67.0626 191.999 67.5948Z" fill="#0D2137"/>
<path d="M182.969 63.2873C182.681 62.3634 182.281 61.4787 181.777 60.6533C183.273 60.6092 184.722 60.1159 185.935 59.2373C186.535 58.7965 187.094 58.3021 187.605 57.7604C187.794 57.57 188.075 57.0904 188.363 56.7402C187.961 57.2122 188.948 59.8463 189.122 60.3868C189.517 61.5377 190.127 62.6023 190.92 63.5233C191.717 64.414 192.241 64.5663 192.385 65.8072C192.492 67.1765 192.292 68.5524 191.801 69.8344C191.567 70.6336 191.083 71.3358 190.42 71.8366C189.995 72.0647 189.528 72.2039 189.048 72.2458C188.569 72.2877 188.085 72.2313 187.627 72.0802C186.057 71.6691 183.902 70.3521 183.34 68.7077C183.044 67.8474 183.34 67.3983 183.454 66.5152C183.504 65.4178 183.339 64.3212 182.969 63.2873Z" fill="#FFC1A6"/>
<path d="M183.5 66.1041C183.5 66.0127 183.5 65.9214 183.5 65.83C183.421 64.9655 183.245 64.1126 182.976 63.2873C182.689 62.3634 182.289 61.4787 181.785 60.6533C183.281 60.6092 184.73 60.1159 185.943 59.2373C186.543 58.7965 187.102 58.3021 187.612 57.7604C187.802 57.57 188.083 57.0904 188.371 56.7402C188.417 57.2275 188.485 57.7147 188.569 58.1943C188.416 59.8235 187.876 61.3921 186.994 62.7685C186.112 64.1449 184.914 65.2888 183.5 66.1041Z" fill="#E3856D"/>
<path d="M173.492 54.8212C174.104 57.2957 175.505 59.5015 177.483 61.1018C178.006 61.5519 178.615 61.8889 179.274 62.0915C179.604 62.1877 179.952 62.2075 180.291 62.1495C180.63 62.0915 180.952 61.9571 181.232 61.7565C181.99 61.1475 182.127 60.0513 182.18 59.0692C182.346 57.2393 182.287 55.3959 182.006 53.5803C181.72 51.7533 180.862 50.0653 179.555 48.7613C178.454 47.7412 175.442 46.2643 174.114 47.6727C172.673 49.1953 173.044 53.0017 173.492 54.8212Z" fill="#485070"/>
<path d="M175.062 50.5125C175.32 48.7844 177.263 50.0634 178.856 49.3325C180.23 48.7007 181.269 48.1449 182.817 48.2591C184.214 48.3334 185.535 48.9216 186.527 49.9111C186.785 50.1852 187.02 50.4593 187.241 50.7409C187.871 51.7495 188.407 52.8148 188.842 53.9231V53.9992C188.986 56.126 188.492 58.2475 187.423 60.0896C186.95 60.9675 186.252 61.7029 185.401 62.2195C184.549 62.7361 183.576 63.0153 182.582 63.0281C181.445 63.0082 180.352 62.5816 179.501 61.8253C178.57 60.9702 177.799 59.9543 177.225 58.8258C176.322 57.151 174.804 52.4082 175.062 50.5125Z" fill="#FFC1A6"/>
<path d="M182.574 53.7483C180.7 53.3068 178.78 53.0327 177.042 52.1801C175.735 51.5712 174.68 50.5239 174.06 49.2187C173.484 47.8864 173.878 46.9348 174.645 45.7929C175.763 44.1363 177.443 42.9433 179.372 42.4356C181.276 41.9331 183.659 42.6716 185.487 43.3111C186.776 43.7209 187.93 44.4733 188.826 45.4884C190.343 47.2926 190.821 50.3987 190.7 52.6825C190.617 53.6252 190.426 54.555 190.131 55.4536C189.911 56.2149 189.524 57.0752 188.613 57.1818C188.014 57.2579 186.8 55.5298 186.185 55.1491C185.2 54.562 184.13 54.1307 183.014 53.8702L182.574 53.7483Z" fill="#485070"/>
<path d="M179.692 55.8194C179.702 55.9293 179.744 56.0338 179.813 56.1197C179.882 56.2055 179.975 56.2688 180.08 56.3015C180.185 56.3341 180.298 56.3346 180.403 56.303C180.508 56.2713 180.602 56.2089 180.672 56.1237C180.742 56.0385 180.785 55.9343 180.795 55.8245C180.806 55.7147 180.784 55.6042 180.732 55.507C180.68 55.4099 180.6 55.3305 180.502 55.279C180.405 55.2276 180.295 55.2063 180.185 55.218C180.114 55.2246 180.044 55.2455 179.98 55.2794C179.916 55.3133 179.86 55.3596 179.814 55.4155C179.768 55.4714 179.734 55.5359 179.713 55.6052C179.692 55.6746 179.685 55.7473 179.692 55.8194Z" fill="#485070"/>
<path d="M180.51 54.2345C180.138 54.1602 179.751 54.211 179.41 54.3791" stroke="#485070" stroke-width="0.75" stroke-miterlimit="10" stroke-linecap="round"/>
<path d="M176.322 56.7254C176.334 56.8348 176.377 56.9384 176.447 57.0232C176.517 57.1079 176.61 57.17 176.715 57.2015C176.82 57.233 176.932 57.2325 177.037 57.2001C177.141 57.1677 177.234 57.1048 177.303 57.0195C177.373 56.9341 177.415 56.8301 177.425 56.7206C177.435 56.6111 177.413 56.501 177.361 56.4043C177.308 56.3076 177.229 56.2286 177.132 56.1773C177.035 56.1261 176.925 56.1048 176.816 56.1163C176.671 56.1336 176.538 56.2068 176.446 56.3205C176.354 56.4342 176.31 56.5794 176.322 56.7254Z" fill="#485070"/>
<path d="M177.081 55.1567C176.711 55.0818 176.326 55.1327 175.988 55.3013" stroke="#485070" stroke-width="0.75" stroke-miterlimit="10" stroke-linecap="round"/>
<path d="M178.281 56.8008C178.392 57.2836 178.314 57.791 178.061 58.2168C177.98 58.3157 177.934 58.439 177.932 58.567C177.95 58.634 177.988 58.6939 178.041 58.7388C178.093 58.7837 178.159 58.8114 178.228 58.8182C178.364 58.8241 178.501 58.8034 178.63 58.7573" stroke="#485070" stroke-width="0.75" stroke-miterlimit="10" stroke-linecap="round"/>
<path d="M181.057 59.5645C180.823 59.8139 180.535 60.0051 180.215 60.1227C179.895 60.2404 179.552 60.2812 179.213 60.242" stroke="#485070" stroke-width="0.75" stroke-miterlimit="10" stroke-linecap="round"/>
<path d="M188.972 53.8616C189.012 54.2599 188.933 54.6611 188.746 55.0146C188.559 55.368 188.271 55.6578 187.92 55.8475C187.568 56.0371 187.169 56.118 186.772 56.08C186.375 56.0419 185.998 55.8867 185.688 55.6338C185.379 55.3809 185.152 55.0417 185.034 54.6591C184.917 54.2765 184.916 53.8676 185.03 53.4841C185.144 53.1006 185.369 52.7597 185.676 52.5044C185.984 52.2491 186.359 52.0909 186.756 52.0498C187.02 52.0224 187.287 52.0476 187.542 52.1239C187.796 52.2002 188.033 52.3261 188.239 52.4944C188.445 52.6627 188.615 52.8701 188.741 53.1047C188.867 53.3394 188.945 53.5966 188.972 53.8616Z" fill="#FFC1A6"/>
<path d="M187.265 53.1685C187.116 53.1635 186.968 53.1965 186.835 53.2644C186.703 53.3323 186.589 53.4329 186.506 53.5567C186.427 53.683 186.38 53.8272 186.371 53.9762C186.362 54.1252 186.39 54.2742 186.453 54.4094C186.531 54.3197 186.635 54.2558 186.75 54.2259C186.865 54.1961 186.986 54.2016 187.098 54.2419C187.209 54.2851 187.305 54.3601 187.373 54.4576C187.442 54.555 187.481 54.6706 187.485 54.79" stroke="#485070" stroke-width="0.75" stroke-linecap="round" stroke-linejoin="round"/>
<path d="M235.809 185.588H75.7469C72.0843 185.588 69.1152 188.567 69.1152 192.242V282.348C69.1152 286.022 72.0843 289.001 75.7469 289.001H235.809C239.471 289.001 242.44 286.022 242.44 282.348V192.242C242.44 188.567 239.471 185.588 235.809 185.588Z" fill="#DCE4FF" stroke="#485070" stroke-width="0.75" stroke-miterlimit="10"/>
<path d="M255.272 289.131H56.2854C56.2854 291.331 57.1568 293.442 58.7078 294.998C60.2588 296.554 62.3625 297.429 64.556 297.429H247.002C249.195 297.429 251.299 296.554 252.85 294.998C254.401 293.442 255.272 291.331 255.272 289.131Z" fill="#BAC5EF" stroke="#485070" stroke-width="0.75" stroke-miterlimit="10"/>
<path d="M233.1 189.652H78.4558C75.5937 189.652 73.2734 191.98 73.2734 194.852V280.558C73.2734 283.429 75.5937 285.757 78.4558 285.757H233.1C235.962 285.757 238.283 283.429 238.283 280.558V194.852C238.283 191.98 235.962 189.652 233.1 189.652Z" fill="#545D78"/>
<path d="M158.112 187.529C158.112 187.783 158.036 188.032 157.895 188.244C157.754 188.455 157.554 188.62 157.32 188.717C157.086 188.815 156.828 188.84 156.579 188.791C156.33 188.741 156.102 188.618 155.922 188.439C155.743 188.259 155.621 188.029 155.572 187.78C155.522 187.53 155.547 187.272 155.644 187.036C155.742 186.801 155.906 186.6 156.117 186.459C156.328 186.318 156.576 186.242 156.829 186.242C156.998 186.241 157.165 186.274 157.321 186.338C157.477 186.402 157.619 186.497 157.738 186.617C157.857 186.736 157.952 186.879 158.016 187.035C158.08 187.192 158.113 187.36 158.112 187.529Z" fill="#333333"/>
<path d="M90.2852 92.1021L90.2852 285.195H221.264V92.1021H90.2852Z" fill="#FEFEFF"/>
<path d="M167.809 269.877L150.38 248.089L135.22 267.578L122.078 253.327L123.801 251.736L135.068 263.954L150.35 244.305L167.323 265.522L177.18 245.341L197.978 241.648L198.38 243.963L178.758 247.442L167.809 269.877Z" fill="#E6EDFF"/>
<path d="M201.18 242.807C201.179 242.203 201 241.613 200.665 241.111C200.33 240.609 199.854 240.219 199.297 239.99C198.74 239.761 198.128 239.702 197.538 239.823C196.948 239.944 196.408 240.238 195.985 240.667C195.562 241.097 195.276 241.643 195.163 242.236C195.05 242.829 195.116 243.443 195.351 243.999C195.587 244.554 195.982 245.027 196.486 245.357C196.99 245.687 197.581 245.859 198.182 245.852C198.981 245.842 199.743 245.517 200.304 244.947C200.865 244.377 201.18 243.608 201.18 242.807Z" fill="#2E77AE"/>
<path d="M170.693 267.7C170.7 267.097 170.529 266.504 170.2 265.998C169.871 265.493 169.4 265.096 168.846 264.86C168.292 264.624 167.681 264.558 167.089 264.671C166.498 264.784 165.954 265.071 165.526 265.496C165.097 265.92 164.804 266.462 164.684 267.054C164.564 267.646 164.622 268.26 164.85 268.819C165.079 269.377 165.468 269.855 165.968 270.192C166.468 270.528 167.056 270.707 167.658 270.707C168.456 270.708 169.223 270.392 169.791 269.829C170.359 269.266 170.683 268.501 170.693 267.7Z" fill="#628AEC"/>
<path d="M180.617 246.393C180.617 245.791 180.439 245.202 180.106 244.701C179.772 244.2 179.298 243.81 178.743 243.579C178.189 243.349 177.579 243.289 176.99 243.406C176.401 243.524 175.86 243.814 175.436 244.24C175.011 244.665 174.722 245.208 174.605 245.799C174.488 246.389 174.548 247.002 174.778 247.558C175.008 248.115 175.397 248.59 175.896 248.925C176.395 249.259 176.982 249.438 177.582 249.438C178.387 249.438 179.159 249.117 179.728 248.546C180.297 247.975 180.617 247.2 180.617 246.393Z" fill="#BFD2FF"/>
<path d="M150.251 249.406C151.91 249.406 153.256 248.057 153.256 246.392C153.256 244.727 151.91 243.377 150.251 243.377C148.591 243.377 147.246 244.727 147.246 246.392C147.246 248.057 148.591 249.406 150.251 249.406Z" fill="#BFD2FF"/>
<path d="M135.501 268.424C137.16 268.424 138.506 267.074 138.506 265.409C138.506 263.744 137.16 262.395 135.501 262.395C133.841 262.395 132.496 263.744 132.496 265.409C132.496 267.074 133.841 268.424 135.501 268.424Z" fill="#2E77AE"/>
<path d="M126.594 253.137C126.594 252.535 126.416 251.946 126.082 251.445C125.749 250.944 125.275 250.554 124.72 250.324C124.165 250.093 123.555 250.033 122.966 250.15C122.378 250.268 121.837 250.558 121.412 250.984C120.988 251.41 120.699 251.952 120.582 252.543C120.465 253.134 120.525 253.746 120.754 254.302C120.984 254.859 121.373 255.334 121.872 255.669C122.371 256.003 122.958 256.182 123.559 256.182C124.363 256.182 125.135 255.861 125.705 255.29C126.274 254.719 126.594 253.945 126.594 253.137Z" fill="#628AEC"/>
<path d="M110.371 234.066V275.168H201.787" stroke="#485070" stroke-width="0.75" stroke-miterlimit="10"/>
<path d="M131.6 168.451H117.646V200.966H131.6V168.451Z" fill="#BFD2FF"/>
<path d="M153.165 152.541H139.211V200.967H153.165V152.541Z" fill="#2E77AE"/>
<path d="M115.045 159.132C131.842 151.433 146.789 140.196 158.871 126.184" stroke="#485070" stroke-width="0.75" stroke-miterlimit="10" stroke-linecap="round"/>
<path d="M160.176 124.686L159.182 127.525L158.773 126.277L157.49 126.018L160.176 124.686Z" fill="#485070"/>
<path d="M174.737 130.576H160.783V200.965H174.737V130.576Z" fill="#BFD2FF"/>
<path d="M196.309 161.363H182.355V200.966H196.309V161.363Z" fill="#2E77AE"/>
<path d="M109.438 131.895V201.073H202.652" stroke="#485070" stroke-width="0.75" stroke-miterlimit="10"/>
<path d="M202.515 207.748H108.906V212.476H202.515V207.748Z" fill="#E6EDFF"/>
<path d="M183.72 114.125H127.465V118.853H183.72V114.125Z" fill="#E6EDFF"/>
<path d="M202.402 105.865H108.793V110.593H202.402V105.865Z" fill="#E6EDFF"/>
<path d="M202.515 216.42H108.906V221.148H202.515V216.42Z" fill="#E6EDFF"/>
<path d="M202.515 225.092H108.906V229.819H202.515V225.092Z" fill="#E6EDFF"/>
<path d="M198.963 63.9795C197.871 64.2383 196.793 64.5428 195.716 64.8473C195.53 64.8871 195.354 64.9648 195.2 65.0757C195.025 65.2714 194.914 65.5156 194.881 65.7761C194.552 67.641 194.601 69.5533 195.025 71.3988C195.448 73.2444 196.238 74.9854 197.347 76.5179C198.015 77.3553 198.804 78.0862 199.525 78.8703C200.246 79.6544 201.194 80.3548 201.801 81.1541C202.56 82.1058 202.856 83.6436 203.197 84.7779C203.992 87.3918 204.481 90.0897 204.654 92.8171C204.776 94.6214 204.859 96.6768 206.24 97.8416C207.621 99.0064 209.783 98.7019 211.195 97.6056C212.541 96.404 213.52 94.8438 214.017 93.1064C215.636 88.7005 216.381 84.0197 216.21 79.3271C216.005 75.0715 214.693 69.9404 211.969 66.5755C210.132 64.2916 207.113 63.3172 204.214 63.2715C202.442 63.2926 200.678 63.5303 198.963 63.9795Z" fill="#0D2137"/>
<path d="M201.559 89.4607C202.57 83.9946 203.582 78.5286 204.594 73.0625" stroke="#485070" stroke-width="0.75" stroke-miterlimit="10"/>
<path d="M202.613 74.1055C202.962 74.9962 203.311 75.8869 203.653 76.7776" stroke="#485070" stroke-width="0.75" stroke-miterlimit="10"/>
<path d="M182.081 101.252C182.469 101.113 182.876 101.036 183.288 101.024C186.975 100.948 190.564 100.567 194.282 100.186C196.771 99.9352 199.252 99.7981 201.733 99.7601C203.729 99.7601 206.043 100.164 207.993 99.6154C209.943 99.0673 211.453 98.4507 212.485 96.7454C212.977 95.9248 213.426 95.0786 213.828 94.2103C214.099 93.7515 214.221 93.2193 214.177 92.6877C214.018 91.9264 213.191 91.4772 212.379 91.1651C210.657 90.5256 209.587 89.536 207.606 89.3304C205.54 89.1785 203.462 89.3427 201.445 89.8176C197.5 90.6474 193.554 90.99 189.677 92.1472C185.34 93.5332 181.097 95.1988 176.975 97.1336C175.44 97.7142 174.026 98.5736 172.802 99.6687C171.996 100.423 171.504 101.454 171.423 102.556C171.343 103.659 171.681 104.751 172.369 105.614C172.577 105.883 172.85 106.094 173.162 106.227C173.474 106.36 173.815 106.411 174.152 106.376C174.911 106.246 175.366 105.287 174.759 105.005C178.743 106.528 178.849 102.402 182.081 101.252Z" fill="#FFC1A6"/>
<path d="M169.622 101.884V101.641L169.439 102.09L169.622 101.884Z" fill="#FF6EA1"/>
<path d="M179.958 70.9678C179.727 70.5267 179.377 70.1599 178.948 69.9096C177.659 69.1483 174.957 70.3131 173.796 70.9526C173.548 71.0895 173.308 71.2394 173.076 71.4017C171.71 72.3281 170.471 73.4285 169.388 74.6753C169.016 75.0864 168.629 75.4975 168.295 75.9162C162.946 82.1207 159.486 88.9494 160.351 97.2323C160.541 99.0061 160.89 100.925 162.21 102.127C162.752 102.587 163.39 102.918 164.078 103.094C164.765 103.271 165.483 103.289 166.178 103.147C167.504 102.874 168.724 102.224 169.691 101.275L169.654 101.617L169.851 101.13C171.96 99.0746 172.453 96.235 172.969 93.4639L178 81.0853C178.804 79.0984 181.392 73.6704 179.958 70.9678Z" fill="#0D2137"/>
<path d="M171.406 132.267C173.72 128.461 169.509 127.859 168.895 124.479C168.826 124.071 168.826 123.654 168.895 123.246C169.479 119.554 169.737 115.915 170.025 112.162C170.222 109.649 170.526 107.145 170.943 104.663C171.216 102.988 171.869 101.138 171.945 99.3947C171.907 98.839 171.846 98.2832 171.755 97.7427C171.396 97.0598 170.904 96.4559 170.309 95.9669C169.713 95.4778 169.026 95.1135 168.288 94.8955C167.253 94.5879 166.16 94.538 165.102 94.7503C164.044 94.9626 163.054 95.4305 162.217 96.1136C161.798 96.7621 161.422 97.4387 161.094 98.1386C160.702 99.9606 160.552 101.827 160.647 103.688C160.783 107.738 160.419 111.72 160.905 115.74C161.538 120.236 162.481 124.682 163.727 129.047C164.043 130.651 164.669 132.177 165.571 133.539C166.256 134.457 167.257 135.087 168.379 135.305C169.501 135.523 170.664 135.314 171.641 134.719C171.951 134.553 172.214 134.313 172.406 134.019C172.598 133.725 172.714 133.387 172.742 133.036C172.711 132.305 171.816 131.696 171.406 132.267Z" fill="#FFC1A6"/>
<path d="M171.77 97.8341C172.854 92.8629 174.807 88.1232 177.536 83.834" stroke="#485070" stroke-width="0.75" stroke-miterlimit="10"/>
<path d="M175.564 86.8942L177.537 85.6152" stroke="#485070" stroke-width="0.75" stroke-miterlimit="10"/>
<path d="M58.47 182.398C61.2926 185.634 62.4459 190.011 63.4096 194.092C64.6438 199.385 65.8832 204.671 67.1275 209.949C67.465 211.193 67.6735 212.469 67.7497 213.756C67.6864 215.994 67.3501 218.215 66.7481 220.371C66.1335 222.899 64.6236 222.746 62.3777 222.518C58.8266 222.168 54.0312 221.087 51.6032 218.186C50.465 216.808 50.0856 214.958 49.7745 213.2C49.3193 210.779 48.8716 208.358 48.4163 205.93C46.5725 196.033 44.7287 185.824 46.8153 175.98C51.3513 176.619 55.4973 178.902 58.47 182.398Z" fill="white"/>
<path d="M63.6839 213.702C65.2545 214.463 66.7189 215.407 68.2365 216.321C70.6342 217.767 73.1381 218.787 75.5965 220.127C76.2688 220.542 77.0045 220.843 77.7742 221.018C79.0868 221.254 80.4754 220.759 81.7956 220.934C83.5712 221.178 85.0811 222.761 85.7185 224.855C86.8035 228.38 84.2692 227.063 82.5923 226.758L78.6695 226.035C73.5976 225.139 68.4724 224.58 63.3272 224.36C60.4667 224.208 55.4285 224.276 53.2887 221.657C52.2492 220.386 51.0959 214.806 52.4617 213.466C52.7141 213.24 53.0154 213.076 53.3419 212.986C56.0018 212.077 58.8798 212.032 61.5669 212.857C62.2912 213.089 62.9986 213.371 63.6839 213.702Z" fill="#9C5240"/>
<path d="M61.8244 254.476H11.6698C11.2738 254.483 10.8803 254.411 10.5124 254.264C10.1444 254.117 9.80941 253.898 9.52686 253.619C9.2443 253.341 9.01989 253.008 8.86673 252.642C8.71356 252.275 8.6347 251.882 8.63477 251.485C8.6347 251.087 8.71356 250.694 8.86673 250.327C9.01989 249.961 9.2443 249.628 9.52686 249.35C9.80941 249.071 10.1444 248.852 10.5124 248.705C10.8803 248.558 11.2738 248.486 11.6698 248.493H61.8244C62.6152 248.493 63.3737 248.808 63.9329 249.369C64.4922 249.93 64.8063 250.691 64.8063 251.485C64.8063 252.278 64.4922 253.039 63.9329 253.6C63.3737 254.161 62.6152 254.476 61.8244 254.476Z" fill="#485070"/>
<path d="M55.207 214.988V197.311C55.207 194.65 53.0566 192.492 50.404 192.492H11.1454C8.49277 192.492 6.34239 194.65 6.34239 197.311V214.988C6.34239 217.65 8.49277 219.807 11.1454 219.807H50.404C53.0566 219.807 55.207 217.65 55.207 214.988Z" fill="#485070"/>
<path d="M15.6305 215.369H12.5955V251.713H15.6305V215.369Z" fill="#485070"/>
<path d="M48.371 215.369H45.3359V251.713H48.371V215.369Z" fill="#485070"/>
<path d="M36.6718 252.977H33.6367V297.124H36.6718V252.977Z" fill="#485070"/>
<path d="M13.8632 252.977H10.8281V297.124H13.8632V252.977Z" fill="#485070"/>
<path d="M62.5155 252.977H59.4805V297.124H62.5155V252.977Z" fill="#485070"/>
<path d="M46.9374 252.977H43.9023V297.124H46.9374V252.977Z" fill="#485070"/>
<path d="M92.8577 268.469C91.1429 268.834 89.9592 268.918 87.9257 269.23C84.9665 269.651 81.9998 269.991 79.0254 270.25C79.7842 275.617 80.5429 280.337 80.6871 281.281C81.4459 285.392 81.0361 295.692 82.8648 299.605C85.0879 299.88 87.0152 299.514 89.1018 299.339C90.2172 289.016 91.1277 278.678 92.8577 268.469Z" fill="#CF9378"/>
<path d="M77.3718 277.497C77.3548 278.341 77.4183 279.185 77.5615 280.017C80.0444 282.461 83.3566 283.873 86.8336 283.968C88.7707 284.052 90.7067 283.781 92.5471 283.169C92.7596 279.149 92.9973 275.13 93.2604 271.11C93.5942 265.88 93.8598 260.65 94.5123 255.45C94.9738 250.779 94.9992 246.074 94.5882 241.397C93.2604 236.289 89.8763 234.888 89.8763 234.888C89.8763 234.888 80.422 231.135 73.1834 229.559C64.2906 227.602 55.2537 226.148 46.3154 224.23C42.0208 223.294 34.8353 223.469 32.6576 228.181C30.0474 233.586 35.1919 240.834 39.2892 244.001C43.5535 247.259 48.8118 248.903 54.0473 250.045C61.4638 251.669 69.0466 252.403 76.6358 252.23C76.393 252.215 77.3642 275.625 77.3718 277.497Z" fill="#2E77AE"/>
<path d="M76.627 252.254C74.9805 250.609 73.4175 248.866 71.7709 247.222C69.3125 244.77 66.9224 242.25 64.4792 239.784C59.6307 234.889 54.7518 230.016 50.0095 225.015C48.7651 224.756 47.5207 224.497 46.2763 224.253C41.9817 223.317 34.7962 223.492 32.6185 228.205C30.0463 233.587 35.1908 240.834 39.2881 244.001C43.5524 247.26 48.8106 248.904 54.0461 250.046C61.4627 251.67 69.0454 252.403 76.6346 252.231C76.6315 252.238 76.629 252.246 76.627 252.254Z" fill="#485070"/>
<path d="M76.6953 253.707C76.6953 251.324 77.0216 248.416 77.0292 246.033" stroke="#485070" stroke-width="0.4" stroke-miterlimit="10"/>
<path d="M82.7967 232.582C76.4382 230.534 70.6564 228.639 61.3008 227.367" stroke="#485070" stroke-width="0.75" stroke-miterlimit="10"/>
<path d="M81.7882 302.507H102.138V304.715H82.5166C82.3153 304.715 82.1223 304.635 81.98 304.492C81.8378 304.349 81.7578 304.155 81.7578 303.953V302.477L81.7882 302.507Z" fill="#B3B3B3"/>
<path d="M101.857 303.101C101.929 303 101.992 302.893 102.047 302.781C102.237 302.211 102.239 301.595 102.054 301.023C101.868 300.451 101.503 299.955 101.015 299.607C99.9991 298.896 98.8505 298.399 97.6382 298.145C95.1329 297.376 92.5772 296.784 89.9898 296.371C89.2993 296.28 81.8862 295.61 81.9241 295.26C81.8103 297.14 81.6889 299.013 81.5751 300.886C81.4385 301.618 81.4385 302.369 81.5751 303.101H101.857Z" fill="#485070"/>
<path d="M85.2705 293.713C85.857 293.269 86.5667 293.02 87.301 292.999C88.0352 292.979 88.7576 293.188 89.3678 293.599C89.9623 294.031 90.4391 294.606 90.7547 295.271C91.0702 295.936 91.2142 296.67 91.1737 297.405C91.1816 297.543 91.1622 297.682 91.1166 297.812C91.071 297.943 91.0002 298.063 90.9081 298.167C90.6865 298.321 90.4176 298.391 90.1493 298.364L86.6438 298.403C85.8851 298.403 84.9897 298.585 84.4814 297.931C83.5936 296.758 84.4206 294.588 85.2705 293.713Z" fill="#485070"/>
<path d="M93.0025 296.911C92.6575 296.884 92.3128 296.968 92.0192 297.152C91.7255 297.335 91.4983 297.609 91.3711 297.932" stroke="#B3B3B3" stroke-width="0.75" stroke-miterlimit="10" stroke-linecap="round"/>
<path d="M93.4199 298.701C93.6043 298.405 93.8588 298.16 94.1607 297.987C94.4626 297.814 94.8025 297.72 95.1499 297.711" stroke="#B3B3B3" stroke-width="0.75" stroke-miterlimit="10" stroke-linecap="round"/>
<path d="M96 298.974C96.0828 298.755 96.2288 298.566 96.4193 298.43C96.6099 298.294 96.8363 298.219 97.0699 298.213" stroke="#B3B3B3" stroke-width="0.75" stroke-miterlimit="10" stroke-linecap="round"/>
<path d="M59.1545 265.699C56.5443 266.064 53.9316 266.369 51.3164 266.612C53.2968 276.38 54.2073 286.33 55.8235 296.165C58.0467 296.165 60.0726 295.678 62.4324 295.731C62.8876 292.755 63.7905 275.078 65.1867 264.709C63.1977 265.161 61.1833 265.491 59.1545 265.699Z" fill="#CF9378"/>
<path d="M51.7016 279.599C52.2403 281.799 52.8701 283.154 55.0326 284.014C56.9112 284.771 58.9453 285.055 60.9585 284.844C62.7665 284.551 64.458 283.76 65.845 282.56C65.845 282.56 68.6373 240.849 65.1697 235.505C60.9206 228.966 51.6333 227.618 44.3871 226.027C38.0514 224.626 31.6322 223.484 25.2282 222.221C23.6651 228.174 24.7957 235.163 27.0568 240.651V240.735C27.9592 242.848 29.419 244.673 31.2789 246.014C33.1387 247.356 35.3281 248.163 37.6113 248.348C41.0024 248.637 44.4066 248.744 47.8091 248.668C47.8015 248.706 49.7743 271.72 51.7016 279.599Z" fill="#2E77AE"/>
<path d="M47.9082 250.199C47.9082 247.816 48.2345 244.908 48.2421 242.525" stroke="#485070" stroke-width="0.4" stroke-miterlimit="10"/>
<path d="M55.2921 302.187H75.6422V304.394H56.0205C55.8192 304.394 55.6263 304.314 55.484 304.171C55.3417 304.029 55.2617 303.835 55.2617 303.633V302.156L55.2921 302.187Z" fill="#B3B3B3"/>
<path d="M75.3541 302.781C75.4313 302.682 75.4975 302.574 75.5514 302.461C75.7418 301.891 75.7442 301.274 75.5583 300.703C75.3725 300.131 75.0083 299.634 74.5195 299.286C73.5039 298.576 72.3553 298.078 71.143 297.825C68.6377 297.056 66.082 296.463 63.4946 296.051C62.8041 295.96 55.391 295.29 55.4213 294.939L55.0799 300.565C54.9395 301.297 54.9395 302.049 55.0799 302.781H75.3541Z" fill="#485070"/>
<path d="M58.7966 293.393C59.3815 292.949 60.0901 292.7 60.8233 292.679C61.5565 292.659 62.2778 292.868 62.8864 293.279C63.4823 293.711 63.9606 294.285 64.2775 294.95C64.5943 295.615 64.7396 296.35 64.6999 297.086C64.7078 297.224 64.6884 297.362 64.6428 297.493C64.5972 297.624 64.5264 297.744 64.4343 297.847C64.2127 298.001 63.9438 298.071 63.6755 298.045H60.17C59.4112 298.045 58.5159 298.228 58.0075 297.573C57.097 296.439 57.9544 294.246 58.7966 293.393Z" fill="#485070"/>
<path d="M66.4985 296.591C66.1538 296.564 65.8097 296.649 65.5162 296.833C65.2228 297.016 64.9954 297.289 64.8672 297.611" stroke="#B3B3B3" stroke-width="0.75" stroke-miterlimit="10" stroke-linecap="round"/>
<path d="M66.9238 298.38C67.1082 298.085 67.3627 297.84 67.6646 297.667C67.9665 297.494 68.3064 297.399 68.6538 297.391" stroke="#B3B3B3" stroke-width="0.75" stroke-miterlimit="10" stroke-linecap="round"/>
<path d="M69.4961 298.654C69.5811 298.435 69.7287 298.246 69.9203 298.11C70.112 297.975 70.3392 297.899 70.5735 297.893" stroke="#B3B3B3" stroke-width="0.75" stroke-miterlimit="10" stroke-linecap="round"/>
<path d="M24.3711 230.297C24.5532 231.257 24.7353 232.216 24.9099 233.175C28.2105 231.447 32.1561 231.82 35.8968 231.82C44.0977 231.799 52.1704 229.777 59.4186 225.927C58.9359 223.945 58.6412 221.921 58.5384 219.883C58.5384 217.797 57.6659 215.772 57.6659 213.686C57.5293 210.862 57.6659 208.03 57.7797 205.205C58.0452 199.876 58.4019 194.456 57.4079 189.218C56.806 185.753 55.4369 182.467 53.4016 179.603C52.4531 178.317 51.1253 176.642 49.6836 175.903C48.242 175.165 45.8215 175.378 44.0915 175.226C42.8323 175.06 41.5569 175.06 40.2977 175.226C38.7582 175.561 37.2943 176.181 35.9803 177.053C28.7948 181.377 27.9222 188.35 25.7597 195.857C24.6822 199.61 22.9826 203.157 21.9051 206.903C21.3086 209.001 21.0373 211.178 21.1009 213.359C21.1464 215.33 21.8596 217.081 22.2618 219.023C22.97 222.778 23.6731 226.537 24.3711 230.297Z" fill="white"/>
<path d="M44.699 182.078C46.0463 183.221 47.7782 183.804 49.5399 183.707C50.1502 183.704 50.7452 183.515 51.2471 183.167C51.4935 182.989 51.6785 182.739 51.7765 182.451C51.8744 182.163 51.8803 181.852 51.7934 181.561" stroke="#485070" stroke-width="0.4" stroke-miterlimit="10" stroke-linecap="round"/>
<path d="M43.0449 197.806C43.8392 200.37 45.2102 202.716 47.0522 204.663C48.8941 206.61 51.1576 208.106 53.6677 209.035" stroke="#485070" stroke-width="0.4" stroke-miterlimit="10" stroke-linecap="round"/>
<path d="M47.7031 201.787C49.031 203.361 50.905 204.371 52.9462 204.612" stroke="#485070" stroke-width="0.4" stroke-miterlimit="10" stroke-linecap="round"/>
<path d="M38.5293 201.477C40.3931 207.355 43.6775 212.68 48.0898 216.976" stroke="#485070" stroke-width="0.4" stroke-miterlimit="10" stroke-linecap="round"/>
<path d="M55.0645 181.797C57.1283 185.36 57.1586 187.385 57.6215 190.529C58.141 194.057 58.3795 197.621 58.3347 201.187C58.2513 207.155 56.9386 212.606 58.2665 218.529" stroke="#485070" stroke-width="0.4" stroke-miterlimit="10"/>
<path d="M50.7455 174.115C51.0541 173.123 51.4849 172.174 52.0278 171.29C50.4227 171.24 48.8692 170.709 47.5662 169.768C46.9227 169.295 46.3233 168.765 45.7756 168.184C45.5707 167.979 45.2672 167.423 44.9561 167.088C44.6222 170.674 43.2944 174.046 40.2441 176.094C41.3565 177.944 42.9483 179.457 44.8499 180.471C46.4357 181.392 50.3964 183.182 50.4875 179.954C50.4875 178.895 50.0929 177.921 50.184 176.848C50.2678 175.918 50.4562 175.001 50.7455 174.115Z" fill="#CF9378"/>
<path d="M50.1765 177.129C50.1765 177.038 50.1765 176.939 50.1765 176.848C50.3678 174.88 50.9979 172.98 52.0203 171.29C50.4152 171.24 48.8617 170.709 47.5587 169.768C46.9152 169.295 46.3158 168.765 45.768 168.184C45.5632 167.979 45.2597 167.423 44.9486 167.088C44.8954 167.613 44.8272 168.131 44.7285 168.61C44.8887 170.365 45.4673 172.055 46.4156 173.537C47.3638 175.02 48.6537 176.252 50.1765 177.129Z" fill="#9C5240"/>
<path d="M26.8443 182.398C24.0217 185.633 22.8608 190.011 21.9048 194.091C20.6452 199.385 19.3907 204.671 18.1413 209.949C17.7164 211.784 17.0259 214.288 17.428 216.161C17.6792 217.196 18.1323 218.171 18.7614 219.03C19.3904 219.889 20.1829 220.613 21.0929 221.163C22.967 222.297 25.82 222.807 27.9218 221.848C30.0236 220.889 32.2468 219.952 33.7112 218.178C34.8493 216.801 35.2287 214.951 35.5398 213.192C35.9951 210.771 36.4427 208.35 36.898 205.922C38.7418 196.025 40.5856 185.816 38.499 175.973C33.9619 176.613 29.8158 178.899 26.8443 182.398Z" fill="white"/>
<path d="M38.5611 192.234C34.4562 193.3 34.8204 198.568 34.4486 201.819C33.9028 206.622 32.9922 211.376 31.7246 216.04" stroke="#485070" stroke-width="0.4" stroke-miterlimit="10"/>
<path d="M35.4805 194.929C35.9385 193.49 36.8031 192.215 37.9692 191.26" stroke="#485070" stroke-width="0.4" stroke-miterlimit="10"/>
<path d="M33.0523 214.653C35.2527 215.141 37.4152 215.841 39.5701 216.503C42.9997 217.539 46.4749 218.14 49.9576 219.069C50.9426 219.375 51.9625 219.554 52.9927 219.602C54.753 219.602 56.4602 218.901 58.2206 218.841C59.3984 218.845 60.5566 219.142 61.592 219.706C62.6274 220.269 63.5076 221.081 64.1541 222.068C66.309 225.372 62.7353 224.489 60.4893 224.459L55.231 224.383C48.3414 224.284 41.8236 224.634 34.9113 225.213C31.1174 225.532 24.6072 226.415 21.2534 224.177C19.6297 223.096 16.9512 217.805 18.446 216.222C18.7465 215.948 19.1005 215.741 19.4855 215.613C22.8717 214.268 26.5322 213.766 30.1538 214.151C31.1279 214.268 32.0954 214.436 33.0523 214.653Z" fill="#CF9378"/>
<path d="M90.8092 231.904H45.2755C44.7685 231.904 44.3574 232.317 44.3574 232.825V233.145C44.3574 233.654 44.7685 234.066 45.2755 234.066H90.8092C91.3162 234.066 91.7273 233.654 91.7273 233.145V232.825C91.7273 232.317 91.3162 231.904 90.8092 231.904Z" fill="#485070"/>
<path d="M96.5154 234.058H56.0352L59.5558 210.725C59.6102 210.336 59.8015 209.979 60.0951 209.719C60.3888 209.46 60.7654 209.314 61.1568 209.309H98.4275C98.654 209.314 98.8766 209.368 99.0803 209.468C99.284 209.567 99.464 209.71 99.608 209.885C99.7519 210.061 99.8566 210.265 99.9147 210.485C99.9729 210.705 99.9832 210.934 99.945 211.159L96.5154 234.058Z" fill="#757E96"/>
<path d="M79.6174 223.903C81.1009 223.903 82.3035 222.697 82.3035 221.208C82.3035 219.72 81.1009 218.513 79.6174 218.513C78.134 218.513 76.9314 219.72 76.9314 221.208C76.9314 222.697 78.134 223.903 79.6174 223.903Z" fill="white"/>
<path d="M58.7665 159.254C58.3036 157.442 56.3688 159.026 54.6009 158.417C53.0833 157.884 51.8996 157.412 50.2607 157.701C48.7716 157.927 47.4194 158.701 46.4669 159.871C46.2224 160.181 45.9945 160.504 45.784 160.838C45.2256 161.982 44.771 163.175 44.4258 164.401V164.484C44.5054 166.777 45.2664 168.993 46.611 170.849C47.2104 171.732 48.0344 172.439 48.9977 172.896C49.961 173.352 51.0284 173.542 52.0893 173.445C53.3014 173.302 54.4217 172.726 55.2458 171.823C56.1454 170.81 56.8549 169.641 57.34 168.375C58.1519 166.479 59.2749 161.249 58.7665 159.254Z" fill="#CF9378"/>
<path d="M50.2298 161.021C50.2298 160.94 50.245 160.849 50.2753 160.747L50.7533 158.463C52.6578 159.895 54.7217 161.927 57.1877 162.749C58.1092 163.042 59.0982 163.042 60.02 162.751C60.9418 162.459 61.7518 161.89 62.3397 161.12C62.5427 160.837 62.7205 160.536 62.8709 160.222C62.9657 159.949 63.0772 159.682 63.2047 159.423C62.848 159.607 62.4383 159.661 62.0462 159.575C61.6542 159.489 61.3044 159.268 61.0574 158.951C60.582 158.304 60.2202 157.58 59.9875 156.811C59.2803 155.05 58.0849 153.528 56.5427 152.426C54.9976 151.335 53.1113 150.84 51.2314 151.033C50.0504 151.175 48.9276 151.626 47.9762 152.343C47.5018 152.692 47.0845 153.113 46.7395 153.591C46.5801 153.812 45.9048 155.022 46.178 155.258C45.9575 155.102 45.696 155.014 45.4261 155.006C45.1562 154.998 44.8898 155.07 44.6604 155.213C44.1849 155.521 43.7978 155.949 43.5375 156.454C42.3647 158.531 41.9312 160.947 42.3083 163.305C42.4998 164.304 42.8053 165.277 43.2188 166.206C43.5299 166.967 44.0382 167.865 44.9867 167.888C46.307 167.888 46.1552 165.703 46.5042 164.561C46.6484 164.112 46.6181 163.556 47.1492 163.419C47.6803 163.282 48.5605 164.31 48.9778 163.473C49.0843 163.149 49.0843 162.799 48.9778 162.475C48.8712 162.15 48.8929 161.796 49.0385 161.486C49.0385 161.486 49.7366 161.486 49.8428 161.486C49.9513 161.466 50.0495 161.409 50.1203 161.324C50.191 161.239 50.2298 161.132 50.2298 161.021Z" fill="#485070"/>
<path d="M46.9838 151.885C46.4751 152.579 46.1575 153.396 46.063 154.252C45.9684 155.109 46.1002 155.975 46.4451 156.765" stroke="#485070" stroke-width="0.75" stroke-miterlimit="10" stroke-linecap="round"/>
<path d="M43.3555 154.823C43.7815 154.572 44.281 154.477 44.7692 154.553C45.2574 154.629 45.7043 154.873 46.0339 155.242" stroke="#485070" stroke-width="0.75" stroke-miterlimit="10" stroke-linecap="round"/>
<path d="M53.8125 166.029C54.1394 166.029 54.4044 165.764 54.4044 165.436C54.4044 165.108 54.1394 164.842 53.8125 164.842C53.4857 164.842 53.2207 165.108 53.2207 165.436C53.2207 165.764 53.4857 166.029 53.8125 166.029Z" fill="#485070"/>
<path d="M53.3496 163.83C53.7398 163.709 54.1592 163.722 54.5409 163.868" stroke="#485070" stroke-width="0.75" stroke-miterlimit="10" stroke-linecap="round"/>
<path d="M58.1368 166.037C58.1368 166.155 58.1021 166.269 58.0371 166.367C57.972 166.465 57.8796 166.541 57.7715 166.586C57.6633 166.631 57.5443 166.642 57.4295 166.62C57.3147 166.597 57.2092 166.54 57.1265 166.457C57.0437 166.374 56.9873 166.268 56.9645 166.153C56.9417 166.038 56.9534 165.918 56.9982 165.81C57.043 165.701 57.1188 165.609 57.2162 165.543C57.3135 165.478 57.4279 165.443 57.545 165.443C57.7019 165.443 57.8525 165.506 57.9635 165.617C58.0745 165.729 58.1368 165.88 58.1368 166.037Z" fill="#485070"/>
<path d="M57.0896 164.439C57.4773 164.319 57.8941 164.332 58.2733 164.477" stroke="#485070" stroke-width="0.75" stroke-miterlimit="10" stroke-linecap="round"/>
<path d="M56.0129 166.35C55.9484 166.876 56.0868 167.407 56.3998 167.834C56.4989 167.929 56.5609 168.056 56.5743 168.192C56.5624 168.264 56.5293 168.331 56.4793 168.384C56.4292 168.436 56.3646 168.473 56.2936 168.489C56.1489 168.523 55.9982 168.523 55.8535 168.489" stroke="#485070" stroke-width="0.75" stroke-miterlimit="10" stroke-linecap="round"/>
<path d="M53.3496 169.578C53.6281 169.817 53.9577 169.989 54.3129 170.08C54.6681 170.172 55.0395 170.179 55.3983 170.103" stroke="#485070" stroke-width="0.75" stroke-miterlimit="10" stroke-linecap="round"/>
<path d="M44.2969 164.355C44.2954 164.786 44.4214 165.208 44.6589 165.567C44.8965 165.926 45.2348 166.206 45.6312 166.372C46.0276 166.538 46.4642 166.583 46.8857 166.499C47.3071 166.416 47.6945 166.209 47.9987 165.905C48.303 165.601 48.5104 165.213 48.5948 164.791C48.6791 164.368 48.6366 163.93 48.4726 163.532C48.3085 163.133 48.0304 162.793 47.6734 162.553C47.3163 162.314 46.8965 162.186 46.467 162.186C45.8927 162.186 45.3419 162.414 44.9352 162.821C44.5284 163.227 44.2989 163.779 44.2969 164.355Z" fill="#CF9378"/>
<path d="M46.0265 163.426C46.1835 163.408 46.3425 163.43 46.4893 163.488C46.6362 163.546 46.7665 163.64 46.8688 163.761C46.9658 163.887 47.031 164.034 47.0587 164.19C47.0865 164.347 47.076 164.508 47.0281 164.659C46.9324 164.575 46.814 164.521 46.6877 164.504C46.5614 164.487 46.4329 164.508 46.3185 164.564C46.204 164.62 46.1087 164.709 46.0446 164.819C45.9805 164.93 45.9505 165.057 45.9582 165.185" stroke="#485070" stroke-width="0.75" stroke-linecap="round" stroke-linejoin="round"/>
<path d="M287.172 288.818C287.111 288.544 279.364 289.906 278.507 290.036L278.408 290.119C275.729 292.403 272.338 293.644 269.007 294.855C268.478 294.999 267.994 295.276 267.603 295.662C266.086 297.435 269.295 298.204 270.433 298.296C272.285 298.357 274.137 298.175 275.942 297.755C279.675 297.1 283.476 297.314 287.172 296.4C287.323 296.379 287.462 296.306 287.566 296.194C287.628 296.091 287.66 295.972 287.657 295.852C287.859 293.496 287.695 291.123 287.172 288.818Z" fill="#485070"/>
<path d="M270.205 234.151C272.08 252.863 275.517 272.071 277.626 290.76C281.997 291.141 283.583 290.852 287.824 290.128C290.609 269.794 291.785 259.981 289.273 239.35C289.015 237.234 289.273 219.702 289.167 217.448C288.719 204.042 290.502 188.732 282.482 177.412C280.449 174.55 277.133 172.357 273.756 172.624C272.594 172.737 271.471 173.108 270.469 173.71C269.466 174.312 268.609 175.129 267.959 176.103C263.817 181.744 266.131 197.084 266.867 203.783C267.846 212.667 269.318 225.236 270.205 234.151Z" fill="#757E96"/>
<path d="M271.525 245.79C272.283 242.547 273.209 239.342 274.12 236.137C277.306 224.923 278.627 213.405 280.228 201.879C280.675 199.158 280.911 196.406 280.933 193.649C280.888 190.848 280.516 188.038 280.296 185.275C280.082 181.451 279.567 177.651 278.756 173.909C277.271 172.975 275.535 172.525 273.786 172.622C272.623 172.736 271.5 173.107 270.498 173.709C269.495 174.31 268.639 175.128 267.989 176.101C263.846 181.743 266.16 197.083 266.896 203.782C267.875 212.666 269.347 225.235 270.235 234.15C270.591 237.971 271.039 241.862 271.525 245.79Z" fill="#545D78"/>
<path d="M257.29 291.414H257.063C254.577 291.717 252.064 291.704 249.581 291.376C249.265 291.323 248.942 291.323 248.625 291.376C248.355 291.46 248.098 291.585 247.867 291.749C245.534 293.17 242.963 294.153 240.279 294.649C238.761 294.939 237.092 295.099 235.87 296.073C235.301 296.537 234.854 297.382 235.286 297.976C235.45 298.165 235.655 298.314 235.886 298.41C238.215 299.506 241.736 299.08 244.232 298.935C248.276 298.715 252.283 298.935 256.274 298.174C256.438 298.155 256.594 298.095 256.729 297.999C256.894 297.829 257.001 297.61 257.032 297.375C257.294 296.265 257.494 295.142 257.632 294.01C257.685 293.568 257.935 291.962 257.632 291.581C257.591 291.53 257.539 291.488 257.48 291.459C257.421 291.43 257.356 291.414 257.29 291.414Z" fill="#485070"/>
<path d="M267.185 175.189C257.989 175.044 255.174 184.675 254.081 192.082C251.764 207.724 250.143 223.457 249.217 239.282C248.755 247.139 248.14 253.746 247.882 261.633C247.609 269.711 247.169 283.711 247.518 291.712C247.511 291.874 247.556 292.034 247.647 292.169C247.785 292.291 247.963 292.359 248.147 292.359C251.52 292.715 254.918 292.764 258.3 292.504C258.461 292.504 258.618 292.459 258.755 292.374C258.899 292.275 257.602 291.758 257.655 291.613C260.242 283.597 262.018 269.262 262.83 260.887C264.522 243.378 268.141 226.325 274.659 210.147C281.169 194.823 284.826 175.486 267.185 175.189Z" fill="#757E96"/>
<path d="M270.955 219.594C274.647 210.752 277.817 201.7 280.447 192.484" stroke="#485070" stroke-width="0.75" stroke-miterlimit="10"/>
<path d="M268.991 195.94H269.082C269.927 196.077 270.769 196.199 271.609 196.306C272.231 196.382 272.853 196.45 273.476 196.504L274.09 196.565L275.608 196.671H276.495H277.186C281.157 196.8 285.131 196.52 289.045 195.834C288.461 188.761 286.921 181.948 282.824 176.17C280.798 173.315 277.474 171.115 274.098 171.381C272.936 171.495 271.814 171.866 270.813 172.468C269.812 173.07 268.957 173.887 268.308 174.86C267.989 175.305 267.717 175.782 267.497 176.284C259.507 176.101 255.978 184.179 254.195 190.992C256.009 192.061 257.929 192.936 259.924 193.603C262.872 194.647 265.907 195.429 268.991 195.94Z" fill="#545D78"/>
<path d="M272.996 124.898C273.053 123.862 272.979 122.824 272.776 121.807C274.299 122.321 275.94 122.366 277.488 121.936C278.256 121.72 279.003 121.435 279.719 121.084C279.977 120.962 280.478 120.581 280.865 120.322C279.932 123.794 280 127.425 282.147 130.409C280.463 131.755 278.446 132.616 276.312 132.899C274.499 133.211 270.166 133.493 271.206 130.44C271.547 129.435 272.283 128.666 272.572 127.631C272.81 126.737 272.952 125.821 272.996 124.898Z" fill="#F7B699"/>
<path d="M277.192 122.005C275.731 122.355 274.201 122.286 272.776 121.807C272.979 122.824 273.053 123.862 272.996 124.897C272.954 125.829 272.811 126.753 272.572 127.653L272.48 127.927C272.655 127.927 272.837 127.874 273.012 127.836C275.028 126.428 276.503 124.37 277.192 122.005Z" fill="#C46E58"/>
<path d="M270.653 108.164C271.715 106.641 272.982 108.788 274.841 108.834C276.465 108.88 277.724 108.834 279.158 109.687C280.471 110.42 281.466 111.617 281.951 113.044C282.069 113.419 282.168 113.8 282.247 114.186C282.36 115.452 282.36 116.726 282.247 117.992V118.068C281.375 120.188 279.893 121.998 277.99 123.268C277.116 123.889 276.092 124.265 275.025 124.356C273.958 124.447 272.886 124.25 271.92 123.786C270.838 123.222 269.991 122.292 269.53 121.159C269.041 119.894 268.784 118.55 268.771 117.193C268.71 115.153 269.477 109.862 270.653 108.164Z" fill="#F7B699"/>
<path d="M272.755 111.734C271.298 111.94 270.107 112.176 268.771 111.392C267.751 110.788 266.991 109.824 266.639 108.689C266.548 108.353 266.488 108.009 266.457 107.662C266.457 107.502 266.457 106.9 266.457 106.794C266.726 107.092 267.09 107.286 267.486 107.343C267.882 107.4 268.286 107.316 268.627 107.106C269.299 106.666 269.891 106.115 270.38 105.477C271.652 104.07 273.301 103.06 275.13 102.569C276.967 102.091 278.913 102.291 280.616 103.132C281.671 103.681 282.566 104.497 283.211 105.499C283.541 105.994 283.797 106.536 283.969 107.106C284.038 107.372 284.243 108.743 283.909 108.864C284.175 108.791 284.457 108.799 284.718 108.889C284.979 108.979 285.208 109.145 285.373 109.367C285.692 109.817 285.89 110.341 285.95 110.889C286.221 112.739 285.988 114.628 285.274 116.355C284.725 117.655 284.109 118.925 283.431 120.162C282.859 121.219 281.987 122.083 280.927 122.644C279.523 123.191 278.004 123.375 276.511 123.177C275.871 123.213 275.236 123.049 274.692 122.708C274.149 122.367 273.724 121.866 273.476 121.273C273.244 120.636 273.116 119.965 273.096 119.286C273.096 119.005 272.944 117.048 273.172 116.926C272.901 117.092 272.599 117.201 272.284 117.246C272.125 117.266 271.964 117.239 271.82 117.169C271.676 117.099 271.555 116.988 271.472 116.85C271.379 116.563 271.393 116.252 271.51 115.975L272.755 111.734Z" fill="#485070"/>
<path d="M284.265 105.363C284.499 106.193 284.511 107.071 284.301 107.907C284.09 108.743 283.665 109.509 283.066 110.129" stroke="#485070" stroke-width="0.75" stroke-miterlimit="10" stroke-linecap="round"/>
<path d="M286.632 109.406C286.318 109.024 285.883 108.763 285.399 108.664C284.916 108.566 284.414 108.637 283.976 108.865" stroke="#485070" stroke-width="0.75" stroke-miterlimit="10" stroke-linecap="round"/>
<path d="M276.199 118.023C276.049 118.426 275.783 118.776 275.435 119.028C275.087 119.279 274.672 119.422 274.243 119.437C273.814 119.452 273.39 119.34 273.025 119.113C272.66 118.887 272.37 118.557 272.192 118.165C272.014 117.774 271.955 117.338 272.024 116.913C272.093 116.488 272.286 116.093 272.578 115.778C272.87 115.462 273.249 115.241 273.667 115.142C274.085 115.043 274.522 115.071 274.924 115.221C275.192 115.321 275.436 115.473 275.645 115.668C275.854 115.863 276.022 116.097 276.14 116.357C276.259 116.617 276.325 116.898 276.335 117.184C276.345 117.47 276.299 117.755 276.199 118.023Z" fill="#F7B699"/>
<path d="M274.885 116.538C274.746 116.459 274.59 116.418 274.43 116.418C274.271 116.418 274.114 116.459 273.975 116.538C273.843 116.618 273.732 116.729 273.652 116.862C273.573 116.994 273.527 117.145 273.52 117.299C273.638 117.253 273.767 117.243 273.89 117.271C274.014 117.299 274.127 117.363 274.214 117.455C274.301 117.548 274.359 117.664 274.38 117.79C274.401 117.915 274.384 118.044 274.331 118.16" stroke="#485070" stroke-width="0.75" stroke-linecap="round" stroke-linejoin="round"/>
<path d="M246.083 142.698C246.147 142.354 246.3 142.034 246.524 141.767C246.749 141.5 247.039 141.296 247.365 141.175C248.033 140.947 249.163 140.947 249.391 140.269C249.497 139.934 249.611 139.805 249.338 139.576C249.057 139.358 248.714 139.235 248.359 139.226C247.811 139.201 247.267 139.331 246.788 139.6C246.31 139.869 245.916 140.267 245.65 140.749C245.491 141.046 245.263 141.434 244.945 141.342C244.871 141.31 244.805 141.263 244.75 141.204C244.695 141.145 244.653 141.076 244.626 141C244.247 140.117 244.77 139.12 245.278 138.297C245.634 137.613 246.156 137.029 246.796 136.6C247.576 136.251 248.44 136.135 249.285 136.265C250.992 136.387 252.79 136.516 254.24 137.536C254.619 137.802 254.998 138.115 255.34 138.389C256.347 139.028 257.441 139.517 258.587 139.843C258.238 141.068 257.882 142.294 257.533 143.527C257.516 143.592 257.482 143.65 257.434 143.695C257.367 143.718 257.295 143.718 257.229 143.695C255.15 143.185 252.752 142.758 250.666 142.431C249.133 142.292 247.589 142.382 246.083 142.698Z" fill="#F7B699"/>
<path d="M257.511 137.117C255.595 139.547 254.593 142.577 254.681 145.674L258.687 147.28C259.15 145.156 259.606 143.032 260.068 140.908C260.205 140.269 260.774 138.914 260.41 138.389C260.046 137.863 258.164 137.422 257.511 137.117Z" fill="white"/>
<path d="M271.29 142.149C270.183 141.466 269.032 140.858 267.845 140.329C265.781 139.4 263.619 138.639 261.547 137.923C260.758 137.617 259.949 137.363 259.127 137.162C256.85 139.575 256.092 143.664 256.357 147.059C258.732 149.145 262.207 150.386 264.825 152.023C266.261 153.003 267.785 153.847 269.378 154.542C270.977 155.241 272.76 155.394 274.454 154.976C274.895 154.877 275.31 154.685 275.673 154.414C276.035 154.142 276.336 153.797 276.556 153.4C276.764 152.873 276.852 152.306 276.814 151.741C276.734 149.813 276.19 147.933 275.228 146.263C274.266 144.592 272.915 143.181 271.29 142.149Z" fill="#545D78"/>
<path d="M232.167 155.539C231.716 154.744 231.444 153.861 231.368 152.95C231.292 152.038 231.414 151.122 231.727 150.263C231.821 149.939 231.985 149.64 232.209 149.387C232.432 149.134 232.708 148.934 233.017 148.801C233.414 148.717 233.826 148.755 234.201 148.91C234.576 149.065 234.896 149.329 235.119 149.669C235.549 150.355 235.893 151.091 236.143 151.862C236.476 152.677 236.915 153.445 237.448 154.146C238.08 154.788 238.553 155.57 238.829 156.429C238.889 156.787 238.863 157.154 238.753 157.499C238.644 157.845 238.454 158.159 238.199 158.416C236.265 160.312 233.093 157.214 232.167 155.539Z" fill="#F7B699"/>
<path d="M253.633 154.383L242.123 159.986L226.887 146.115L238.405 140.512L253.633 154.383Z" fill="#F4AE2D"/>
<path d="M251.751 153.803L241.864 158.614L228.699 146.632L238.594 141.82L251.751 153.803Z" fill="white"/>
<path d="M240.096 144.356L231.879 148.353L231.074 147.622L239.292 143.625L240.096 144.356Z" fill="#C8DDF7"/>
<path d="M244.293 148.178L236.076 152.175L235.271 151.444L243.489 147.447L244.293 148.178Z" fill="#C8DDF7"/>
<path d="M245.682 149.45L237.465 153.446L236.668 152.716L244.885 148.719L245.682 149.45Z" fill="#C8DDF7"/>
<path d="M247.078 150.713L238.861 154.71L238.057 153.979L246.274 149.982L247.078 150.713Z" fill="#C8DDF7"/>
<path d="M248.465 151.977L240.248 155.974L239.443 155.251L247.661 151.254L248.465 151.977Z" fill="#C8DDF7"/>
<path d="M249.854 153.248L241.636 157.245L240.832 156.514L249.057 152.518L249.854 153.248Z" fill="#C8DDF7"/>
<path d="M238.101 142.948L231.188 146.312L228.252 143.633L235.164 140.275L238.101 142.948Z" fill="#485070"/>
<path d="M233.358 154.268C233.243 154.405 233.139 154.55 233.047 154.702C232.174 156.103 233.859 157.405 234.936 158.166C237.364 159.879 240.339 160.709 243.169 161.531C244.762 161.995 249.376 160.853 248.101 158.341C247.228 156.628 244.656 155.638 242.964 155.182C241.204 154.854 239.701 154.116 239.041 152.327C238.753 151.566 238.631 150.682 238.373 149.876C238.326 149.672 238.223 149.485 238.078 149.335C238.003 149.262 237.907 149.217 237.804 149.206C237.7 149.195 237.596 149.219 237.508 149.274C237.422 149.353 237.361 149.457 237.334 149.571C236.841 150.949 237.721 151.969 236.029 152.784C235.467 153.05 234.853 153.202 234.306 153.499C233.949 153.699 233.628 153.959 233.358 154.268Z" fill="#F7B699"/>
<path d="M241.841 152.775C240.196 155.396 239.525 158.515 239.944 161.583L244.102 162.748L244.785 156.27C244.853 155.623 245.271 154.207 244.861 153.727C244.451 153.247 242.516 152.981 241.841 152.775Z" fill="white"/>
<path d="M270.326 127.622C271.22 126.976 272.297 126.634 273.399 126.648L281.837 125.887C282.368 127.775 282.902 129.663 283.438 131.551C283.438 131.475 274.333 131.832 273.445 131.81C272.557 131.787 269.568 132.076 269.188 131.216C268.809 130.355 269.651 128.285 270.326 127.622Z" fill="white"/>
<path d="M288.818 174.678C288.818 171.671 288.993 168.671 289.182 165.672C289.433 161.766 289.729 157.861 289.774 153.94C289.898 149.071 289.575 144.202 288.81 139.392C288.606 138.197 288.355 137.017 288.052 135.86C287.991 135.616 287.93 135.365 287.862 135.098C286.959 132.944 285.259 130.081 282.991 128.81C282.614 128.787 282.237 128.787 281.86 128.81C279.25 128.983 276.655 129.272 274.075 129.678C272.3 129.952 271.04 130.18 269.735 131.543C266.404 135.022 263.278 142.818 262.405 147.614C261.578 152.182 261.905 152.456 261.427 157.069C260.865 162.566 260.068 168.032 259.036 173.467C258.164 178.035 256.866 183.014 253.08 185.716C259.363 188.358 265.721 191.045 272.451 192.081C279.182 193.116 286.428 192.431 292.179 188.724C289.455 184.567 288.803 179.664 288.818 174.678Z" fill="#757E96"/>
<path d="M273.277 143.717C273.045 143.198 272.684 142.747 272.23 142.407C271.709 142.095 271.105 141.954 270.5 142.004C267.867 142.126 265.781 144.288 264.377 146.518C262.973 148.749 261.88 151.284 259.877 152.997C256.379 155.996 247.949 153.553 244.034 152.677C241.052 155.6 240.734 158.988 242.281 162.932C247.532 165.215 258.58 170.735 264.286 168.002C266.238 166.964 267.868 165.408 268.998 163.503C269.699 162.411 270.338 161.28 270.91 160.115C272.311 157.604 273.375 154.919 274.074 152.129C274.779 149.316 274.498 146.346 273.277 143.717Z" fill="#757E96"/>
<path d="M275.615 134.209C274.727 133.33 273.571 132.778 272.332 132.64C271.093 132.501 269.844 132.786 268.786 133.448C267.549 134.209 266.919 135.83 266.282 137.102C265.489 138.679 264.815 140.312 264.264 141.989C263.702 143.702 263.27 145.453 262.746 147.181C261.881 150.006 260.758 152.761 260.113 155.647C259.468 158.532 259.354 161.63 260.401 164.379C261.919 168.307 267.101 166.221 269.4 164.036C271.373 162.156 272.322 159.468 273.194 156.872C274.067 154.276 274.97 151.673 275.85 149.069C276.782 146.522 277.374 143.862 277.61 141.159C277.762 138.533 277.307 136.013 275.615 134.209Z" fill="#757E96"/>
<path d="M261.654 150.523C262.888 144.753 265.037 139.219 268.02 134.133" stroke="#485070" stroke-width="0.75" stroke-miterlimit="10"/>
<path d="M277.391 145.598L273.999 154.733C273.187 156.926 272.421 159.727 270.88 161.531C269.34 163.336 267.914 165.338 266.032 166.784C264.242 168.314 261.937 169.098 259.59 168.977" stroke="#485070" stroke-width="0.75" stroke-miterlimit="10"/>
<path d="M278.627 146.404C277.601 146.992 276.758 147.854 276.191 148.894" stroke="#485070" stroke-width="0.75" stroke-miterlimit="10"/>
<path d="M243.177 145.072L241.818 145.833L242.509 144.447L250.681 135.898C250.723 135.854 250.774 135.819 250.83 135.796C250.886 135.772 250.946 135.76 251.007 135.76C251.068 135.76 251.128 135.772 251.184 135.796C251.24 135.819 251.291 135.854 251.333 135.898C251.418 135.987 251.466 136.106 251.466 136.229C251.466 136.352 251.418 136.471 251.333 136.56L243.177 145.072Z" fill="#485070"/>
</g>
<defs>
<clipPath id="clip0_314_259">
<rect width="328" height="306" fill="white"/>
</clipPath>
</defs>
</svg>
