<svg width="20" height="20" viewBox="0 0 20 20" fill="none" xmlns="http://www.w3.org/2000/svg">
<path d="M5.83203 15V14.1667C5.83203 13.0616 6.27102 12.0018 7.05242 11.2204C7.83382 10.439 8.89363 10 9.9987 10M9.9987 10C11.1038 10 12.1636 10.439 12.945 11.2204C13.7264 12.0018 14.1654 13.0616 14.1654 14.1667V15M9.9987 10C10.6617 10 11.2976 9.73661 11.7665 9.26777C12.2353 8.79893 12.4987 8.16304 12.4987 7.5C12.4987 6.83696 12.2353 6.20107 11.7665 5.73223C11.2976 5.26339 10.6617 5 9.9987 5C9.33566 5 8.69977 5.26339 8.23093 5.73223C7.76209 6.20107 7.4987 6.83696 7.4987 7.5C7.4987 8.16304 7.76209 8.79893 8.23093 9.26777C8.69977 9.73661 9.33566 10 9.9987 10ZM0.832031 15V14.1667C0.832031 13.5036 1.09542 12.8677 1.56426 12.3989C2.03311 11.9301 2.66899 11.6667 3.33203 11.6667M3.33203 11.6667C3.77406 11.6667 4.19798 11.4911 4.51054 11.1785C4.8231 10.866 4.9987 10.442 4.9987 10C4.9987 9.55797 4.8231 9.13405 4.51054 8.82149C4.19798 8.50893 3.77406 8.33333 3.33203 8.33333C2.89 8.33333 2.46608 8.50893 2.15352 8.82149C1.84096 9.13405 1.66536 9.55797 1.66536 10C1.66536 10.442 1.84096 10.866 2.15352 11.1785C2.46608 11.4911 2.89 11.6667 3.33203 11.6667ZM19.1654 15V14.1667C19.1654 13.5036 18.902 12.8677 18.4331 12.3989C17.9643 11.9301 17.3284 11.6667 16.6654 11.6667M16.6654 11.6667C17.1074 11.6667 17.5313 11.4911 17.8439 11.1785C18.1564 10.866 18.332 10.442 18.332 10C18.332 9.55797 18.1564 9.13405 17.8439 8.82149C17.5313 8.50893 17.1074 8.33333 16.6654 8.33333C16.2233 8.33333 15.7994 8.50893 15.4869 8.82149C15.1743 9.13405 14.9987 9.55797 14.9987 10C14.9987 10.442 15.1743 10.866 15.4869 11.1785C15.7994 11.4911 16.2233 11.6667 16.6654 11.6667Z" stroke="#2E77AE" stroke-width="1.5" stroke-linecap="round" stroke-linejoin="round"/>
</svg>
