<svg width="94" height="94" viewBox="0 0 94 94" fill="none" xmlns="http://www.w3.org/2000/svg">
<path d="M94 47C94 72.9574 72.9574 94 47 94C21.0426 94 0 72.9574 0 47C0 21.0426 21.0426 0 47 0C72.9574 0 94 21.0426 94 47ZM2.53312 47C2.53312 71.5584 22.4416 91.4669 47 91.4669C71.5584 91.4669 91.4669 71.5584 91.4669 47C91.4669 22.4416 71.5584 2.53312 47 2.53312C22.4416 2.53312 2.53312 22.4416 2.53312 47Z" fill="#FCCA80"/>
<circle cx="47" cy="47" r="42" fill="#FFF4E1"/>
<g filter="url(#filter0_i_999_17682)">
<circle cx="80.1287" cy="78.5901" r="9.2459" fill="#FFFBF4"/>
</g>
<circle cx="80.1287" cy="78.5901" r="8.7459" stroke="#FCCA80"/>
<g clip-path="url(#clip0_999_17682)">
<path d="M82 80L80.5 78.5L79 80" stroke="#8F8F8F" stroke-width="0.75" stroke-linecap="round" stroke-linejoin="round"/>
<path d="M83.6463 80.8963C84.012 80.6969 84.301 80.3814 84.4675 79.9995C84.634 79.6177 84.6686 79.1913 84.5659 78.7876C84.4631 78.3839 84.2289 78.0259 83.9 77.7701C83.5712 77.5143 83.1666 77.3753 82.75 77.3751H82.2775C82.164 76.936 81.9525 76.5284 81.6588 76.1829C81.3651 75.8374 80.9969 75.563 80.5818 75.3803C80.1668 75.1976 79.7158 75.1113 79.2626 75.128C78.8094 75.1447 78.3659 75.2639 77.9655 75.4767C77.565 75.6894 77.218 75.9902 76.9505 76.3564C76.683 76.7226 76.5021 77.1446 76.4212 77.5908C76.3403 78.037 76.3616 78.4958 76.4835 78.9325C76.6054 79.3693 76.8248 79.7728 77.125 80.1126" stroke="#8F8F8F" stroke-width="0.75" stroke-linecap="round" stroke-linejoin="round"/>
<path d="M80.5 80V83.375" stroke="#8F8F8F" stroke-width="0.75" stroke-linecap="round" stroke-linejoin="round"/>
<path d="M82 80L80.5 78.5L79 80" stroke="#8F8F8F" stroke-width="0.2" stroke-linecap="round" stroke-linejoin="round"/>
</g>
<path d="M59.1401 32C59.1401 31.7348 59.0348 31.4804 58.8472 31.2929C58.6597 31.1054 58.4054 31 58.1401 31H36.1401C35.8749 31 35.6206 31.1054 35.433 31.2929C35.2455 31.4804 35.1401 31.7348 35.1401 32V33H59.1401V32Z" fill="#FFAD1A" fill-opacity="0.94"/>
<path d="M61.1201 36C61.1201 35.7348 61.0148 35.4804 60.8272 35.2929C60.6397 35.1054 60.3853 35 60.1201 35H34.1201C33.8549 35 33.6005 35.1054 33.413 35.2929C33.2255 35.4804 33.1201 35.7348 33.1201 36V37H61.1201V36Z" fill="#FFAD1A" fill-opacity="0.94"/>
<path d="M61.12 39H32.88C32.3814 39 31.9032 39.1981 31.5506 39.5506C31.1981 39.9032 31 40.3814 31 40.88V59.12C31 59.6186 31.1981 60.0968 31.5506 60.4494C31.9032 60.8019 32.3814 61 32.88 61H61.12C61.6186 61 62.0968 60.8019 62.4494 60.4494C62.8019 60.0968 63 59.6186 63 59.12V40.88C63 40.3814 62.8019 39.9032 62.4494 39.5506C62.0968 39.1981 61.6186 39 61.12 39ZM37.56 42.45C38.1533 42.45 38.7334 42.6259 39.2267 42.9556C39.7201 43.2852 40.1046 43.7538 40.3316 44.3019C40.5587 44.8501 40.6181 45.4533 40.5024 46.0353C40.3866 46.6172 40.1009 47.1518 39.6813 47.5713C39.2618 47.9909 38.7272 48.2766 38.1453 48.3924C37.5633 48.5081 36.9601 48.4487 36.4119 48.2216C35.8638 47.9946 35.3952 47.6101 35.0656 47.1167C34.7359 46.6234 34.56 46.0433 34.56 45.45C34.56 44.6544 34.8761 43.8913 35.4387 43.3287C36.0013 42.7661 36.7644 42.45 37.56 42.45ZM59 57H35L42.46 49.53C42.593 49.3981 42.7727 49.3241 42.96 49.3241C43.1473 49.3241 43.327 49.3981 43.46 49.53L47.14 53.21L52.21 48C52.343 47.8681 52.5227 47.7941 52.71 47.7941C52.8973 47.7941 53.077 47.8681 53.21 48L59 53.79V57Z" fill="#FFAD1A" fill-opacity="0.94"/>
<defs>
<filter id="filter0_i_999_17682" x="70.8828" y="69.3442" width="18.4917" height="22.4917" filterUnits="userSpaceOnUse" color-interpolation-filters="sRGB">
<feFlood flood-opacity="0" result="BackgroundImageFix"/>
<feBlend mode="normal" in="SourceGraphic" in2="BackgroundImageFix" result="shape"/>
<feColorMatrix in="SourceAlpha" type="matrix" values="0 0 0 0 0 0 0 0 0 0 0 0 0 0 0 0 0 0 127 0" result="hardAlpha"/>
<feOffset dy="4"/>
<feGaussianBlur stdDeviation="2"/>
<feComposite in2="hardAlpha" operator="arithmetic" k2="-1" k3="1"/>
<feColorMatrix type="matrix" values="0 0 0 0 0.992157 0 0 0 0 0.909804 0 0 0 0 0.792157 0 0 0 0.25 0"/>
<feBlend mode="normal" in2="shape" result="effect1_innerShadow_999_17682"/>
</filter>
<clipPath id="clip0_999_17682">
<rect width="9" height="9" fill="white" transform="translate(76 74)"/>
</clipPath>
</defs>
</svg>
