<svg width="46" height="45" viewBox="0 0 46 45" fill="none" xmlns="http://www.w3.org/2000/svg">
<rect x="0.5" width="45" height="45" rx="5" fill="#F5FAFF"/>
<g clip-path="url(#clip0_3_708)">
<path d="M28.1411 17.3989L32.7268 11.0626C33.6308 9.93258 32.9905 8 31.7118 8H9.93816C8.65944 8 8.01917 9.93258 8.92316 11.0626L17.2 22.5V31.3314C17.2 32.0445 17.4687 32.7157 17.925 33.1439L21.5495 36.5423C22.4947 37.4282 23.7458 36.9371 24.2329 35.7737C22.5831 33.793 21.55 31.0159 21.55 27.9375C21.55 22.8517 24.3616 18.5822 28.1411 17.3989ZM30.25 18.875C26.2457 18.875 23 22.9322 23 27.9375C23 32.9428 26.2457 37 30.25 37C34.2543 37 37.5 32.9428 37.5 27.9375C37.5 22.9322 34.2543 18.875 30.25 18.875ZM30.975 32.462V33.375C30.975 33.6254 30.8128 33.8281 30.6125 33.8281H29.8875C29.6872 33.8281 29.525 33.6254 29.525 33.375V32.4523C29.0134 32.4195 28.5159 32.1963 28.1035 31.8095C27.9268 31.6435 27.9177 31.3127 28.0777 31.1218L28.6101 30.4869C28.7356 30.3374 28.9223 30.3306 29.0691 30.4455C29.2445 30.5826 29.4434 30.6562 29.65 30.6562H30.9238C31.2183 30.6562 31.4585 30.3209 31.4585 29.9092C31.4585 29.5721 31.2949 29.2754 31.0611 29.1881L29.022 28.4235C28.1797 28.1074 27.591 27.097 27.591 25.9658C27.591 24.577 28.4542 23.4487 29.5245 23.413V22.5C29.5245 22.2496 29.6867 22.0469 29.887 22.0469H30.612C30.8123 22.0469 30.9745 22.2496 30.9745 22.5V23.4227C31.4861 23.4555 31.9836 23.6781 32.396 24.0655C32.5727 24.2315 32.5818 24.5623 32.4218 24.7532L31.8894 25.3881C31.7639 25.5376 31.5772 25.5444 31.4304 25.4295C31.255 25.2918 31.0561 25.2188 30.8495 25.2188H29.5757C29.2812 25.2188 29.041 25.5541 29.041 25.9658C29.041 26.3029 29.2046 26.5996 29.4384 26.6869L31.4775 27.4515C32.3199 27.7676 32.9085 28.778 32.9085 29.9092C32.9085 31.2986 32.0457 32.4263 30.975 32.462Z" fill="#0D2137"/>
</g>
<defs>
<clipPath id="clip0_3_708">
<rect width="29" height="29" fill="white" transform="translate(8.5 8)"/>
</clipPath>
</defs>
</svg>
