<svg width="46" height="46" viewBox="0 0 46 46" fill="none" xmlns="http://www.w3.org/2000/svg">
<rect width="45.33" height="45.33" rx="5" fill="#F5FAFF"/>
<circle cx="20.3036" cy="20.3036" r="8.97156" fill="#F5FAFF"/>
<g clip-path="url(#clip0_3_714)">
<path d="M19.4529 25.9394H19.4726C19.8945 25.9506 20.232 26.2937 20.232 26.7156C20.232 27.0756 19.9873 27.3766 19.6554 27.4666V27.7816C19.6554 27.8941 19.5654 27.9841 19.4529 27.9841C19.3404 27.9841 19.2504 27.8941 19.2504 27.7816V27.4666C19.0851 27.4221 18.9391 27.3245 18.8349 27.1888C18.7307 27.053 18.6741 26.8868 18.6738 26.7156C18.6738 26.6031 18.7638 26.5131 18.8763 26.5131C18.9888 26.5131 19.0788 26.6031 19.0788 26.7156C19.0788 26.9237 19.2448 27.0897 19.4501 27.0897C19.6554 27.0897 19.8241 26.9209 19.8241 26.7156C19.8241 26.5103 19.6554 26.3416 19.4501 26.3416H19.4304C19.2281 26.3361 19.0359 26.2519 18.8946 26.107C18.7533 25.962 18.6741 25.7677 18.6738 25.5653C18.6738 25.2053 18.9185 24.9044 19.2504 24.8144V24.4994C19.2504 24.3869 19.3404 24.2969 19.4529 24.2969C19.5654 24.2969 19.6554 24.3869 19.6554 24.4994V24.8144C19.9873 24.9044 20.232 25.2053 20.232 25.5653C20.232 25.6778 20.142 25.7678 20.0295 25.7678C19.917 25.7678 19.827 25.6778 19.827 25.5653C19.827 25.36 19.6582 25.1912 19.4529 25.1912C19.2476 25.1912 19.0788 25.36 19.0788 25.5653C19.0788 25.7706 19.2476 25.9394 19.4529 25.9394Z" fill="#E0EAF5"/>
<path d="M17.9621 21.9343L18.7457 22.8512L18.661 22.9457C17.0483 23.3074 15.8438 24.7476 15.8438 26.4695C15.8438 27.9831 17.0723 29.2116 18.5859 29.2116H20.3212C21.8349 29.2116 23.0634 27.9834 23.0634 26.4697C23.0662 24.7476 21.8617 23.3074 20.249 22.9457C20.2555 22.8862 20.2448 22.8262 20.218 22.7727L20.8846 22.0097L20.9276 21.9433C20.9779 21.8337 20.9907 21.7106 20.9642 21.593C20.9377 21.4754 20.8733 21.3698 20.7809 21.2923C20.6884 21.2149 20.5731 21.17 20.4527 21.1645C20.3323 21.159 20.2134 21.1932 20.1143 21.2618L19.8772 20.9806C19.824 20.9211 19.7588 20.8734 19.686 20.8408C19.6132 20.8081 19.5343 20.7911 19.4545 20.791C19.3747 20.7909 19.2957 20.8076 19.2228 20.84C19.1498 20.8724 19.0845 20.9198 19.0312 20.9792L18.7828 21.2565C18.684 21.1864 18.5648 21.1508 18.4437 21.1553C18.3226 21.1597 18.2063 21.204 18.1129 21.2811C18.0195 21.3583 17.9541 21.4641 17.9268 21.5822C17.8996 21.7002 17.912 21.824 17.9621 21.9343ZM19.0306 22.3238L18.5536 21.7726C18.6644 21.826 18.7898 21.8411 18.9102 21.8157C19.0305 21.7903 19.139 21.7256 19.2188 21.632L19.4438 21.34L19.6935 21.6359C19.7714 21.7265 19.8764 21.7894 19.993 21.8154C20.1096 21.8414 20.2314 21.8291 20.3404 21.7802L19.8656 22.3238H19.0306ZM16.4062 26.4695C16.4062 24.7853 17.7709 23.4207 19.455 23.4207C21.1391 23.4207 22.5037 24.7853 22.5009 26.4689V26.4695C22.5007 27.0475 22.271 27.6018 21.8623 28.0105C21.4536 28.4192 20.8993 28.6489 20.3212 28.6491H18.5859C18.0079 28.6489 17.4536 28.4192 17.0449 28.0105C16.6362 27.6018 16.4065 27.0475 16.4062 26.4695Z" fill="#E0EAF5"/>
</g>
<path fill-rule="evenodd" clip-rule="evenodd" d="M27.5921 26.4752C30.6267 26.4752 33.0865 24.0153 33.0865 20.9808C33.0865 17.9462 30.6267 15.4863 27.5921 15.4863C24.5575 15.4863 22.0977 17.9462 22.0977 20.9808C22.0977 24.0153 24.5575 26.4752 27.5921 26.4752ZM28.0042 17.6841C28.0042 17.5748 27.9608 17.47 27.8835 17.3927C27.8062 17.3154 27.7014 17.272 27.5921 17.272C27.4828 17.272 27.378 17.3154 27.3007 17.3927C27.2234 17.47 27.18 17.5748 27.18 17.6841V17.8583C26.2844 18.0187 25.5317 18.6918 25.5317 19.6072C25.5317 20.6604 26.5278 21.3928 27.5921 21.3928C28.3487 21.3928 28.8283 21.8906 28.8283 22.3544C28.8283 22.8181 28.3487 23.3159 27.5921 23.3159C26.8355 23.3159 26.3558 22.8181 26.3558 22.3544C26.3558 22.2451 26.3124 22.1403 26.2351 22.063C26.1579 21.9857 26.0531 21.9423 25.9438 21.9423C25.8345 21.9423 25.7297 21.9857 25.6524 22.063C25.5751 22.1403 25.5317 22.2451 25.5317 22.3544C25.5317 23.2697 26.2844 23.9428 27.18 24.1033V24.2774C27.18 24.3867 27.2234 24.4915 27.3007 24.5688C27.378 24.6461 27.4828 24.6895 27.5921 24.6895C27.7014 24.6895 27.8062 24.6461 27.8835 24.5688C27.9608 24.4915 28.0042 24.3867 28.0042 24.2774V24.1033C28.8998 23.9428 29.6525 23.2697 29.6525 22.3544C29.6525 21.3011 28.6564 20.5687 27.5921 20.5687C26.8355 20.5687 26.3558 20.0709 26.3558 19.6072C26.3558 19.1434 26.8355 18.6456 27.5921 18.6456C28.3487 18.6456 28.8283 19.1434 28.8283 19.6072C28.8283 19.7164 28.8718 19.8213 28.949 19.8985C29.0263 19.9758 29.1311 20.0192 29.2404 20.0192C29.3497 20.0192 29.4545 19.9758 29.5318 19.8985C29.6091 19.8213 29.6525 19.7164 29.6525 19.6072C29.6525 18.6918 28.8998 18.0187 28.0042 17.8583V17.6841Z" fill="#0D2137"/>
<path d="M4.26658 27.7033L7.47576 26.3764C7.61984 26.3169 7.78513 26.3831 7.84823 26.5256L8.64091 28.3163L15.9596 25.1353C15.9827 25.1253 16.0075 25.1182 16.0325 25.1146C17.9282 24.8415 18.8503 25.3015 20.3169 26.6118C20.355 26.6458 20.402 26.6698 20.452 26.6801L25.8729 27.792C25.9405 27.8059 26.0011 27.8435 26.0423 27.8989C26.3846 28.3595 26.6162 28.8 26.7399 29.214C26.7399 29.214 31.7236 27.0594 35.2429 26.6644C38.7451 26.2713 39.5445 29.5768 37.1101 31.52C37.0868 31.5386 37.0601 31.5535 37.0322 31.5638L24.7208 36.109C22.6223 36.9691 20.2472 36.2441 15.642 34.5355C15.5696 34.5086 15.4882 34.5115 15.4183 34.5443L12.0906 36.109L12.6086 37.2794C12.6735 37.4258 12.6061 37.5969 12.4588 37.6599L9.04243 39.1196C8.89573 39.1823 8.72606 39.1134 8.6645 38.9663L4.1113 28.0797C4.04991 27.9329 4.11953 27.7641 4.26658 27.7033Z" fill="#0D2137"/>
<path d="M8.64091 28.3163L7.84823 26.5256C7.78513 26.3831 7.61984 26.3169 7.47576 26.3764L4.26658 27.7033C4.11953 27.7641 4.04991 27.9329 4.1113 28.0797L8.6645 38.9663C8.72606 39.1134 8.89573 39.1823 9.04243 39.1196L12.4588 37.6599C12.6061 37.5969 12.6735 37.4258 12.6086 37.2794L12.0906 36.109M8.64091 28.3163L15.9596 25.1353C15.9827 25.1253 16.0075 25.1182 16.0325 25.1146C17.9282 24.8415 18.8503 25.3015 20.3169 26.6118C20.355 26.6458 20.402 26.6698 20.452 26.6801L25.8729 27.792C25.9405 27.8059 26.0011 27.8435 26.0423 27.8989C26.3846 28.3595 26.6162 28.8 26.7399 29.214M8.64091 28.3163L12.0906 36.109M18.1491 30.3991L21.435 31.2789L24.6374 32.1364C24.6918 32.151 24.7499 32.1492 24.8031 32.1307C26.4528 31.5539 27.1285 30.5147 26.7399 29.214M26.7399 29.214C26.7399 29.214 31.7236 27.0594 35.2429 26.6644C38.7451 26.2713 39.5445 29.5768 37.1101 31.52C37.0868 31.5386 37.0601 31.5535 37.0322 31.5638L24.7208 36.109C22.6223 36.9691 20.2472 36.2441 15.642 34.5355C15.5696 34.5086 15.4882 34.5115 15.4183 34.5443L12.0906 36.109" stroke="white" stroke-width="1.14916" stroke-linecap="round" stroke-linejoin="round"/>
<path d="M16.6406 8.80664L21.7759 15.4861M21.7759 15.4861L22.0632 12.6132M21.7759 15.4861L18.8671 15.0911" stroke="#0D2137" stroke-width="1.14916" stroke-linecap="round" stroke-linejoin="round"/>
<path d="M27.373 5L27.6267 13.4216M27.6267 13.4216L29.5413 11.2605M27.6267 13.4216L25.4996 11.3986" stroke="#0D2137" stroke-width="1.14916" stroke-linecap="round" stroke-linejoin="round"/>
<path d="M38.7168 8.80664L33.442 15.3765M33.442 15.3765L36.3013 14.9759M33.442 15.3765L33.1375 12.4568" stroke="#0D2137" stroke-width="1.14916" stroke-linecap="round" stroke-linejoin="round"/>
<defs>
<clipPath id="clip0_3_714">
<rect width="9" height="9" fill="white" transform="translate(15 20.5)"/>
</clipPath>
</defs>
</svg>
