<svg width="21" height="21" viewBox="0 0 21 21" fill="none" xmlns="http://www.w3.org/2000/svg">
<path d="M5.67458 11.1773C5.5818 10.6347 5.59195 10.0883 5.69612 9.56241M10.9913 5.79037C9.29033 5.70257 7.9133 6.27831 6.97825 7.19683M12.2326 6.09601C12.8443 6.35565 13.3609 6.7367 13.7803 7.19683M5.95566 12.4198C6.2349 12.9318 6.58216 13.3773 6.97825 13.7527M9.28152 5.79037L8.97704 2.51251L10.5463 0.802734M6.97825 7.19683L5.95566 6.09601M6.97825 7.19683C6.31297 7.85035 5.87142 8.67739 5.69612 9.56241M5.69612 9.56241L2.419 9.09398L1.06055 10.429M6.97825 13.7527L5.69612 15.1602M6.97825 13.7527C8.20834 14.9186 9.90938 15.4077 11.5066 15.1065M11.5066 15.1065C12.2422 14.9678 12.9557 14.6615 13.5911 14.1765C13.6896 14.1012 13.7833 14.0213 13.8722 13.9371M11.5066 15.1065L11.9984 18.5797L10.64 19.9382M13.8722 13.9371L15.2306 15.1602M13.8722 13.9371C14.4743 13.3661 14.8546 12.5969 15.0198 11.7574M15.0198 11.7574L18.3691 12.0685L20.0086 10.6164M15.0198 11.7574C15.3243 10.2097 14.8974 8.42263 13.7803 7.19683M13.7803 7.19683L15.2306 5.79037M6.97825 9.82005V10.6632M6.97825 11.5064V10.6632M6.97825 10.6632L7.80596 10.6521M10.4526 10.6164L8.71941 10.6397M7.80596 10.6521V9.82005M7.80596 10.6521L8.71941 10.6397M8.71941 10.6397V10.429M8.71941 9.82005V10.429M8.71941 11.3424V10.429" stroke="#0D2137" stroke-width="0.9" stroke-linecap="round" stroke-linejoin="round"/>
</svg>
