<svg width="46" height="46" viewBox="0 0 46 46" fill="none" xmlns="http://www.w3.org/2000/svg">
<rect x="0.334991" width="45.33" height="45.33" rx="5" fill="#F5FAFF"/>
<path d="M23.0003 17.5325C21.7479 17.5325 20.629 18.1045 19.8898 18.999C19.4338 19.5518 19.1332 20.2161 19.0191 20.9235C18.9049 21.631 18.9814 22.3561 19.2405 23.0242C19.4997 23.6923 19.9322 24.2793 20.4935 24.7248C21.0548 25.1702 21.7247 25.4581 22.4342 25.5587C23.3987 23.6982 25.0473 22.2846 27.0332 21.6153V21.5654C27.0332 20.5902 26.6871 19.6956 26.1107 18.999C25.3716 18.1045 24.2527 17.5325 23.0003 17.5325ZM35.7251 24.0174C34.8469 22.9896 33.7239 22.1996 32.4598 21.7203C31.1957 21.241 29.8312 21.0879 28.4923 21.2751C28.4518 20.4798 28.2381 19.7031 27.8661 18.999H33.999C34.5824 18.999 35.142 19.2308 35.5545 19.6433C35.967 20.0559 36.1988 20.6154 36.1988 21.1988V21.932C36.1988 22.636 36.0375 23.3458 35.7251 24.0174ZM21.8374 27.0648C21.6352 27.7805 21.5331 28.5208 21.5338 29.2645C21.5338 31.8998 22.7964 34.2389 24.7513 35.7098C24.1734 35.8136 23.5874 35.8652 23.0003 35.8638C18.3955 35.8638 15.6678 32.8883 15.6678 29.9978V29.2645C15.667 28.9755 15.7234 28.6891 15.8337 28.4218C15.9439 28.1546 16.1059 27.9118 16.3104 27.7074C16.5148 27.5029 16.7576 27.3409 17.0248 27.2307C17.2921 27.1204 17.5784 27.064 17.8675 27.0648H21.8374ZM14.6632 27.4813C11.5689 26.6439 9.80179 24.2594 9.80179 21.932V21.1988C9.80179 20.6154 10.0335 20.0559 10.4461 19.6433C10.8586 19.2308 11.4181 18.999 12.0015 18.999H18.1359C17.7178 19.7898 17.4998 20.6709 17.5009 21.5654C17.4999 22.3227 17.6558 23.072 17.9587 23.7661C18.2615 24.4602 18.7049 25.084 19.2607 25.5983H17.8675C17.2141 25.5981 16.5725 25.7726 16.0091 26.1037C15.4457 26.4347 14.9811 26.9103 14.6632 27.4813ZM17.1343 9.4668C18.2039 9.4668 19.2297 9.89169 19.986 10.648C20.7423 11.4043 21.1672 12.4301 21.1672 13.4997C21.1672 14.5693 20.7423 15.595 19.986 16.3513C19.2297 17.1077 18.2039 17.5325 17.1343 17.5325C16.0647 17.5325 15.0389 17.1077 14.2826 16.3513C13.5263 15.595 13.1014 14.5693 13.1014 13.4997C13.1014 12.4301 13.5263 11.4043 14.2826 10.648C15.0389 9.89169 16.0647 9.4668 17.1343 9.4668ZM28.8663 9.4668C29.9359 9.4668 30.9617 9.89169 31.718 10.648C32.4743 11.4043 32.8992 12.4301 32.8992 13.4997C32.8992 14.5693 32.4743 15.595 31.718 16.3513C30.9617 17.1077 29.9359 17.5325 28.8663 17.5325C27.7967 17.5325 26.7709 17.1077 26.0146 16.3513C25.2583 15.595 24.8334 14.5693 24.8334 13.4997C24.8334 12.4301 25.2583 11.4043 26.0146 10.648C26.7709 9.89169 27.7967 9.4668 28.8663 9.4668ZM29.5995 35.8638C31.3498 35.8638 33.0283 35.1685 34.2659 33.9309C35.5035 32.6933 36.1988 31.0148 36.1988 29.2645C36.1988 27.5143 35.5035 25.8358 34.2659 24.5982C33.0283 23.3606 31.3498 22.6653 29.5995 22.6653C27.8493 22.6653 26.1708 23.3606 24.9332 24.5982C23.6956 25.8358 23.0003 27.5143 23.0003 29.2645C23.0003 31.0148 23.6956 32.6933 24.9332 33.9309C26.1708 35.1685 27.8493 35.8638 29.5995 35.8638ZM29.5995 25.5983C29.794 25.5983 29.9805 25.6756 30.118 25.8131C30.2555 25.9506 30.3328 26.1371 30.3328 26.3315V28.5313H32.5325C32.727 28.5313 32.9135 28.6085 33.051 28.7461C33.1885 28.8836 33.2658 29.0701 33.2658 29.2645C33.2658 29.459 33.1885 29.6455 33.051 29.783C32.9135 29.9205 32.727 29.9978 32.5325 29.9978H30.3328V32.1975C30.3328 32.392 30.2555 32.5785 30.118 32.716C29.9805 32.8535 29.794 32.9308 29.5995 32.9308C29.4051 32.9308 29.2186 32.8535 29.0811 32.716C28.9435 32.5785 28.8663 32.392 28.8663 32.1975V29.9978H26.6665C26.4721 29.9978 26.2856 29.9205 26.1481 29.783C26.0105 29.6455 25.9333 29.459 25.9333 29.2645C25.9333 29.0701 26.0105 28.8836 26.1481 28.7461C26.2856 28.6085 26.4721 28.5313 26.6665 28.5313H28.8663V26.3315C28.8663 26.1371 28.9435 25.9506 29.0811 25.8131C29.2186 25.6756 29.4051 25.5983 29.5995 25.5983Z" fill="#0D2137"/>
</svg>
