<svg width="24" height="23" viewBox="0 0 24 23" fill="none" xmlns="http://www.w3.org/2000/svg">
<path d="M14.4484 17.1587L14.6412 17.3676C14.6736 17.4027 14.7287 17.4038 14.7624 17.37L15.415 16.7175C15.478 16.6334 15.6503 16.5157 15.8352 16.7175C16.0202 16.9192 16.5987 17.4879 16.8649 17.7471C16.9139 17.8241 16.9825 18.0118 16.8649 18.1463C16.759 18.2673 16.4411 18.5902 16.2508 18.7812C16.2184 18.8138 16.2181 18.8662 16.2501 18.8992L16.8649 19.5332C16.9069 19.6102 16.9657 19.8021 16.8649 19.9534C16.764 20.1047 16.0804 20.7309 15.7512 21.0251C15.6882 21.0881 15.5327 21.1764 15.415 21.0251C15.3093 20.8891 14.9694 20.5621 14.7644 20.3701C14.7296 20.3375 14.6748 20.3407 14.6437 20.377L14.4484 20.6048M13.5238 16.8015L12.5993 17.7471C12.5362 17.8101 12.448 17.9782 12.5993 18.1463C12.7506 18.3144 13.1246 18.6787 13.2927 18.8397L12.5993 19.6803C12.5643 19.7083 12.5152 19.8021 12.5993 19.9534C12.6834 20.1047 13.2507 20.6468 13.5238 20.899" stroke="#0D2137" stroke-width="0.5" stroke-linecap="round"/>
<path d="M13.481 13.9441H12.7465C12.6116 13.9441 12.5678 13.7567 12.6883 13.696C14.1562 12.9567 16.5714 11.5413 17.598 10.2061C17.6361 10.1566 17.7035 10.1406 17.7572 10.1726C18.2978 10.4946 19.0951 11.31 18.6018 12.4198C18.5925 12.4407 18.5777 12.4586 18.5586 12.4711C18.0346 12.8155 16.5582 13.533 14.5947 13.797" stroke="#0D2137" stroke-width="0.5" stroke-linecap="round"/>
<path d="M9.02098 6.31697H9.77716C9.80235 6.31697 9.82176 6.33986 9.81894 6.36489C9.59417 8.35625 10.3163 9.0779 10.7893 9.21321C10.8566 9.23248 10.8973 9.31943 10.855 9.37528L10.4479 9.91262C10.4392 9.92416 10.4246 9.93039 10.4102 9.92887C8.93556 9.77396 8.83953 7.50749 8.9795 6.35297C8.98205 6.33198 8.99983 6.31697 9.02098 6.31697Z" stroke="#0D2137" stroke-width="0.5" stroke-linecap="round"/>
<path d="M13.6488 7.30457C13.7789 6.39365 13.0407 5.7372 12.6184 5.49895C12.592 5.48405 12.5707 5.46049 12.5605 5.43193C12.2966 4.69304 12.8496 4.43916 13.1655 4.40482C14.5607 4.45525 15.1337 5.92474 15.2457 6.65318C15.6492 8.43506 15.0216 8.95057 14.6574 8.98559C13.5984 9.22093 13.5437 7.96297 13.6488 7.30457Z" stroke="#0D2137" stroke-width="0.5" stroke-linecap="round"/>
<path d="M9.97169 13.8806L10.8948 13.9466C10.9908 13.9534 11.0296 13.8005 10.944 13.7566C9.90211 13.2225 8.15391 12.0304 6.78213 10.1214C6.75608 10.0851 6.7064 10.0746 6.66978 10.1001C6.22683 10.4089 5.49066 11.2085 5.6186 12.2978C5.62071 12.3158 5.62858 12.3327 5.64175 12.3451C5.89196 12.5806 6.83356 13.1195 8.79494 13.5444" stroke="#0D2137" stroke-width="0.5" stroke-linecap="round"/>
<path d="M9.23779 13.2504C9.35687 13.4185 9.59081 13.8934 9.574 14.4481V20.836" stroke="#0D2137" stroke-width="0.5" stroke-linecap="round"/>
<path d="M9.76172 12.4933C10.4832 12.6124 12.3001 12.7917 13.7962 12.5563" stroke="#0D2137" stroke-width="0.5" stroke-linecap="round"/>
<path d="M14.3227 13.2933C14.1826 13.5175 13.9235 14.0876 14.0075 14.5751V20.8369" stroke="#0D2137" stroke-width="0.5" stroke-linecap="round"/>
<path d="M7.42908 9.72074C7.68823 10.2671 8.65622 11.469 10.4549 11.9061C11.0012 12.0742 12.4553 12.3095 13.901 11.9061C14.6084 11.731 16.2208 11.0824 17.0109 9.88884" stroke="#0D2137" stroke-width="0.5" stroke-linecap="round"/>
<path d="M6.77776 6.71572V6.33749C6.77776 6.31428 6.79658 6.29546 6.81979 6.29546H7.21903C7.24224 6.29546 7.26105 6.31428 7.26105 6.33749V9.11117C7.26105 9.13438 7.24224 9.15319 7.21903 9.15319H6.81979C6.79658 9.15319 6.77776 9.13438 6.77776 9.11117V8.71193M6.77776 6.71572H6.29447C6.27126 6.71572 6.25244 6.73453 6.25244 6.75774V8.6699C6.25244 8.69311 6.27126 8.71193 6.29447 8.71193H6.77776M6.77776 6.71572V8.71193" stroke="#0D2137" stroke-width="0.5"/>
<path d="M7.93445 5.75059C8.10255 4.79806 9.30028 2.9002 12.158 2.93407" stroke="#0D2137" stroke-width="0.5"/>
<path d="M17.5786 6.71572V6.33749C17.5786 6.31428 17.5597 6.29546 17.5365 6.29546H17.1373C17.1141 6.29546 17.0953 6.31428 17.0953 6.33749V9.11117C17.0953 9.13438 17.1141 9.15319 17.1373 9.15319H17.5365C17.5597 9.15319 17.5786 9.13438 17.5786 9.11117V8.71193M17.5786 6.71572H18.0619C18.0851 6.71572 18.1039 6.73453 18.1039 6.75774V8.6699C18.1039 8.69311 18.0851 8.71193 18.0619 8.71193H17.5786M17.5786 6.71572V8.71193" stroke="#0D2137" stroke-width="0.5"/>
<path d="M16.4648 5.68629C16.2967 4.73376 14.994 2.90022 12.1362 2.93409" stroke="#0D2137" stroke-width="0.5"/>
<path d="M10.8768 1.52532L11.4321 1.01119C11.4399 1.004 11.4501 1 11.4606 1H12.8346C12.8458 1 12.8565 1.00443 12.8643 1.01231L13.3476 1.4956C13.364 1.51201 13.364 1.53862 13.3476 1.55503L12.8643 2.03833C12.8565 2.04621 12.8458 2.05064 12.8346 2.05064H11.4606C11.45 2.05064 11.4399 2.04666 11.4321 2.03949L10.8978 1.54633" stroke="#0D2137" stroke-width="0.5" stroke-linecap="round"/>
<path d="M7.28381 5.833C7.38187 4.80338 8.14954 2.55081 10.4357 1.77754" stroke="#0D2137" stroke-width="0.5" stroke-linecap="round"/>
<path d="M16.9703 5.81254C16.8723 4.78291 16.1046 2.53035 13.8184 1.75708" stroke="#0D2137" stroke-width="0.5" stroke-linecap="round"/>
<path d="M7.93445 5.70633V8.92128C8.27065 9.87385 9.56504 11.7496 12.0529 11.6319H12.5783C13.4608 11.6529 15.4738 11.1738 16.4656 9.08938V5.62228" stroke="#0D2137" stroke-width="0.5"/>
<path d="M4.95039 12.6406C4.27799 12.8858 2.91636 13.4055 2.84912 13.5231C2.76507 13.6702 1.31519 15.5194 1 17.8728" stroke="#0D2137" stroke-width="0.5" stroke-linecap="round"/>
<path d="M3.4165 13.9645C4.11693 15.2673 5.59763 18.8352 5.91702 22.6848" stroke="#0D2137" stroke-width="0.5" stroke-linecap="round"/>
<path d="M19.5546 12.7245L21.1936 13.481C21.6278 14.0133 22.5972 15.6495 23.0007 17.9357" stroke="#0D2137" stroke-width="0.5" stroke-linecap="round"/>
<path d="M20.8988 13.901C20.1214 15.533 18.5034 19.5745 18.2512 22.6844" stroke="#0D2137" stroke-width="0.5" stroke-linecap="round"/>
<path d="M17.6207 15.141H16.465C16.4186 15.141 16.381 15.1787 16.381 15.2251V16.4228C16.381 16.4692 16.4186 16.5068 16.465 16.5068H17.6207C17.6672 16.5068 17.7048 16.4692 17.7048 16.4228V15.2251C17.7048 15.1787 17.6672 15.141 17.6207 15.141Z" stroke="#0D2137" stroke-width="0.5" stroke-linecap="round"/>
</svg>
