<svg width="45" height="45" viewBox="0 0 45 45" fill="none" xmlns="http://www.w3.org/2000/svg">
<g clip-path="url(#clip0_87_2397)">
<path fill-rule="evenodd" clip-rule="evenodd" d="M19.8633 0.0958994C19.3883 0.142149 18.9158 0.219649 18.8108 0.265899C18.7045 0.313399 18.2958 0.403399 17.9008 0.468399C17.4808 0.538317 17.0658 0.635184 16.6583 0.758399C16.3683 0.854649 15.8083 1.0284 15.4133 1.1459C15.0195 1.26215 14.652 1.39215 14.6008 1.4359C14.547 1.4784 14.2508 1.6034 13.9358 1.71465C13.6233 1.8259 13.3445 1.95215 13.3145 1.9959C13.2858 2.0384 13.0145 2.17465 12.7108 2.29715C12.4083 2.41965 12.1608 2.5534 12.1608 2.59465C12.1608 2.6359 12.0645 2.69465 11.9458 2.7259C11.6633 2.7984 10.9208 3.2709 9.57702 4.22965C8.89327 4.7184 8.73577 4.84965 7.72202 5.77215C6.77848 6.63194 5.91378 7.57445 5.13827 8.5884C4.98729 8.78581 4.83268 8.98043 4.67452 9.17215C4.54437 9.34257 4.42417 9.52037 4.31452 9.70465C4.19449 9.90424 4.05996 10.0948 3.91202 10.2746C3.81702 10.3771 3.74077 10.4996 3.74077 10.5471C3.74077 10.5946 3.60952 10.8259 3.44827 11.0622C3.28702 11.2984 3.11077 11.6209 3.05577 11.7796C3.00202 11.9396 2.92327 12.0696 2.88202 12.0696C2.84077 12.0696 2.71077 12.3296 2.59327 12.6496C2.47452 12.9684 2.34827 13.2296 2.31202 13.2296C2.27452 13.2296 2.14452 13.5234 2.01952 13.8821C1.92481 14.1721 1.80952 14.4549 1.67452 14.7284C1.60827 14.8346 1.48202 15.2034 1.39577 15.5496C1.30827 15.8959 1.20202 16.2222 1.16202 16.2747C1.08952 16.3697 0.840773 17.3921 0.724523 18.0634C0.693273 18.2496 0.630773 18.4884 0.583273 18.5947C0.299523 19.2409 0.262023 20.5021 0.225773 30.3421C0.199523 37.4946 0.219523 40.5084 0.297023 40.9096C0.593273 42.4596 2.11327 44.2321 3.50202 44.6471C3.71202 44.7096 3.98827 44.8121 4.11452 44.8746C4.45827 45.0459 24.5395 45.0384 24.7083 44.8684C24.7745 44.8009 24.9458 44.7471 25.087 44.7471C25.4845 44.7471 27.5395 44.3759 27.7308 44.2696C27.8233 44.2196 28.2008 44.1059 28.5683 44.0184C28.9383 43.9309 29.3245 43.8071 29.4308 43.7434C29.6292 43.6412 29.8373 43.5592 30.052 43.4984C31.3595 43.1171 33.7858 41.8021 35.4095 40.5959C35.6995 40.3821 36.1008 40.0959 36.3008 39.9584C37.0183 39.4709 39.0145 37.4309 40.1158 36.0596C40.8058 35.1996 41.7595 33.7221 42.1195 32.9521C42.2308 32.7134 42.3758 32.4522 42.442 32.3722C42.507 32.2922 42.6383 32.0097 42.7345 31.7434C42.832 31.4784 42.9645 31.1734 43.0295 31.0671C43.1403 30.8503 43.2315 30.624 43.302 30.3909C43.387 30.1246 43.5133 29.7984 43.5808 29.6659C43.652 29.5321 43.7858 29.0759 43.8808 28.6496C43.9745 28.2246 44.0895 27.8272 44.1345 27.7672C44.242 27.6259 44.5958 25.2134 44.5958 24.6196C44.5958 24.3696 44.6383 24.1384 44.6908 24.1059C44.8083 24.0321 44.8233 20.9984 44.7058 20.9246C44.6608 20.8971 44.5995 20.4696 44.5658 19.9759C44.4995 18.9896 44.2608 17.4484 44.1233 17.1446C44.0082 16.7961 43.911 16.4419 43.832 16.0834C43.7195 15.6059 43.592 15.1709 43.5508 15.1171C43.507 15.0621 43.3983 14.7796 43.3058 14.4859C43.2313 14.2368 43.1364 13.9943 43.022 13.7609C42.9075 13.5429 42.8089 13.3169 42.727 13.0847C42.6219 12.8018 42.4957 12.5273 42.3495 12.2634C42.2371 12.0735 42.1317 11.8796 42.0333 11.6821C41.9613 11.5346 41.8829 11.3903 41.7983 11.2496C41.7308 11.1446 41.4458 10.6871 41.1595 10.2346C40.6706 9.46506 40.1407 8.72233 39.572 8.00965C38.5858 6.83465 35.9245 4.41715 34.9683 3.8284C34.7307 3.67948 34.4957 3.52654 34.2633 3.36965C33.552 2.89465 32.6845 2.4334 31.4395 1.87215C30.4008 1.40215 29.9808 1.23965 29.4308 1.0909C29.138 1.01375 28.85 0.919415 28.5683 0.808399C28.412 0.737149 27.8308 0.605899 27.2783 0.514649C26.7258 0.424649 26.1883 0.312149 26.0833 0.265899C25.5058 0.0121494 21.7533 -0.0916006 19.8633 0.0958994ZM23.8945 8.38465C23.992 8.43965 24.3933 8.57215 24.7833 8.67965C25.1733 8.7859 25.5183 8.90715 25.5483 8.9484C25.5783 8.98965 25.7758 9.10965 25.9858 9.21465C26.6583 9.5484 27.8708 10.6246 28.3295 11.2959C28.457 11.4821 28.5883 11.6559 28.6195 11.6834C28.9445 11.9409 29.6658 14.0546 29.6695 14.7521C29.6695 14.9246 29.712 15.0659 29.7645 15.0659C29.827 15.0659 29.8608 16.4359 29.8608 18.9821C29.8608 21.1346 29.8245 22.8972 29.7795 22.8972C29.7345 22.8972 29.6708 23.1472 29.6395 23.4534C29.567 24.1122 29.312 25.1409 29.1995 25.2159C29.1558 25.2434 29.022 25.4946 28.9045 25.7734C28.7858 26.0534 28.662 26.2809 28.6258 26.2809C28.592 26.2809 28.4833 26.4222 28.3858 26.5959C27.9283 27.4047 26.6108 28.5484 25.6895 28.9384C25.4895 29.0234 25.3008 29.1259 25.272 29.1684C25.1858 29.2934 24.0808 29.5697 23.4083 29.6334C23.0608 29.6672 22.752 29.7309 22.7233 29.7759C22.6583 29.8834 22.1108 29.8834 22.1108 29.7759C22.1108 29.7309 21.7983 29.6659 21.417 29.6321C20.4958 29.5496 18.7258 28.9321 18.4758 28.6071C18.3556 28.4981 18.2273 28.3982 18.092 28.3084C17.9008 28.1726 17.7217 28.0204 17.557 27.8534C17.4445 27.7334 17.307 27.6346 17.2508 27.6346C17.1958 27.6346 17.122 27.5496 17.0883 27.4446C17.0287 27.3032 16.9351 27.1787 16.8158 27.0821C16.6425 26.9172 16.4928 26.7292 16.3708 26.5234C16.2661 26.3427 16.1474 26.1705 16.0158 26.0084C15.947 25.9384 15.8908 25.8409 15.8908 25.7909C15.8908 25.7409 15.782 25.4722 15.6483 25.1934C15.1295 24.1184 15.102 23.8384 15.0583 19.5134C15.012 14.8421 15.0833 14.0184 15.6433 12.8084C16.402 11.1709 17.517 9.9034 18.767 9.25465C19.002 9.1334 19.217 8.9984 19.2483 8.95465C19.2783 8.90965 19.6233 8.78465 20.0133 8.67715C20.4045 8.56965 20.8095 8.44215 20.9158 8.3934C21.3558 8.1909 23.5408 8.18465 23.8945 8.38465ZM21.872 10.7771C19.9358 11.0134 18.6583 11.9771 17.8445 13.8096L17.5658 14.4384V23.5259L17.8533 24.2371C18.2708 25.2684 19.2858 26.3284 20.3408 26.8334L21.107 27.1996H22.3983C23.5545 27.1996 23.7408 27.1746 24.1695 26.9721C24.4308 26.8471 24.7795 26.6809 24.9445 26.6047C25.4983 26.3459 26.477 25.2521 26.8695 24.4584L27.2295 23.7196L27.2608 19.4172C27.2933 15.2909 27.222 13.8096 26.9945 13.8096C26.9545 13.8096 26.8495 13.6196 26.7608 13.3859C26.1408 11.7434 23.8695 10.5321 21.872 10.7771ZM22.8533 15.6459C23.1158 15.6484 23.6295 16.3209 23.6908 16.7359C23.7233 16.9609 23.7383 18.4372 23.7195 20.0159L23.6895 22.8871L23.3608 23.2296C22.7108 23.9084 21.8258 23.7984 21.4083 22.9859L21.1545 22.4934V16.7096L21.4358 16.2521C21.727 15.7796 22.1695 15.5196 22.5408 15.6021C22.647 15.6246 22.7883 15.6446 22.8533 15.6459ZM34.862 25.8959L35.2458 26.2859L35.1895 26.9084C35.1528 27.2703 35.0675 27.6256 34.9358 27.9646C34.8283 28.2021 34.7408 28.4521 34.7408 28.5171C34.7408 28.6709 33.8695 30.4447 33.712 30.6147C33.6228 30.7188 33.5452 30.8324 33.4808 30.9534C33.0133 31.8397 31.2908 33.5784 30.092 34.3784C29.0845 35.0484 27.9195 35.6409 27.087 35.9071C26.797 35.9996 26.5395 36.1046 26.512 36.1421C26.4458 36.2371 25.0245 36.5146 24.2183 36.5921C23.8495 36.6259 23.547 36.6921 23.547 36.7371C23.547 36.8446 21.372 36.8446 21.3058 36.7371C21.2783 36.6921 20.9645 36.6296 20.607 36.5984C19.822 36.5296 18.372 36.2446 18.227 36.1296C18.1695 36.0846 17.8683 35.9634 17.5583 35.8609C17.077 35.7021 16.062 35.2096 15.1258 34.6821C14.122 34.1159 12.372 32.4597 11.5095 31.2609C11.3258 31.0047 10.632 29.7884 10.572 29.6159C10.5278 29.4947 10.4655 29.3809 10.387 29.2784C10.3245 29.1984 10.1745 28.8284 10.057 28.4559C9.93827 28.0846 9.80327 27.7384 9.75702 27.6884C9.29202 27.1784 9.97577 25.9946 10.777 25.9259C11.2858 25.8809 11.8745 26.1422 11.8745 26.4134C11.8853 26.5089 11.9323 26.5966 12.0058 26.6584C12.077 26.7184 12.1658 26.9459 12.1995 27.1659C12.4545 28.7796 14.4233 31.3759 16.2708 32.5372C18.8408 34.1497 23.3383 34.7996 25.5083 33.8721C25.6658 33.8059 25.9883 33.6972 26.2258 33.6309C26.767 33.4809 27.7758 33.0021 28.3008 32.6446C28.5208 32.4946 28.727 32.3722 28.7633 32.3722C29.047 32.3722 30.9608 30.4584 31.347 29.7859C31.447 29.6134 31.5583 29.4721 31.592 29.4721C31.6283 29.4721 31.7483 29.2571 31.8583 28.9934C31.9708 28.7309 32.0995 28.4934 32.1445 28.4646C32.1895 28.4359 32.3233 28.0959 32.4395 27.7096C32.5558 27.3221 32.6895 26.9309 32.7395 26.8384C32.791 26.7347 32.8208 26.6215 32.827 26.5059C32.827 25.5846 34.1583 25.1859 34.862 25.8972V25.8959Z" fill="#02BF6F"/>
</g>
<defs>
<clipPath id="clip0_87_2397">
<rect width="45" height="45" fill="white"/>
</clipPath>
</defs>
</svg>
