<svg width="48" height="30" viewBox="0 0 48 30" fill="none" xmlns="http://www.w3.org/2000/svg">
<g clip-path="url(#clip0_87_2367)">
<path d="M4.45515 0.714845H43.5252C44.1128 0.71445 44.6948 0.829897 45.2379 1.05459C45.7809 1.27927 46.2744 1.60879 46.69 2.02431C47.1056 2.43982 47.4352 2.93318 47.66 3.47618C47.8848 4.01917 48.0004 4.60115 48.0001 5.18885V20.1028C48.0004 20.6905 47.8849 21.2724 47.6601 21.8153C47.4354 22.3582 47.1058 22.8515 46.6903 23.267C46.2748 23.6825 45.7815 24.0121 45.2386 24.2368C44.6957 24.4616 44.1138 24.5771 43.5261 24.5768H29.5141L31.4381 29.2868L22.9801 24.5768H4.47415C3.88654 24.5771 3.30464 24.4616 2.76171 24.2368C2.21878 24.0121 1.72547 23.6825 1.30997 23.267C0.894465 22.8515 0.564923 22.3582 0.340176 21.8153C0.11543 21.2724 -0.000114297 20.6905 0.000148556 20.1028V5.18885C-0.0198514 2.73585 1.98215 0.714845 4.45515 0.714845Z" fill="#7F54B3"/>
<path d="M2.7321 4.79214C3.0051 4.42214 3.4151 4.22614 3.9621 4.18714C4.9571 4.10914 5.5221 4.57714 5.6591 5.59214C6.2641 9.67014 6.9271 13.1241 7.6291 15.9531L11.9031 7.81614C12.2931 7.07514 12.7811 6.68514 13.3661 6.64614C14.2251 6.58714 14.7521 7.13414 14.9661 8.28514C15.4541 10.8801 16.0791 13.0851 16.8201 14.9581C17.3271 10.0021 18.1861 6.43114 19.3961 4.22614C19.6891 3.68014 20.1181 3.40614 20.6841 3.36814C21.1321 3.32814 21.5421 3.46514 21.9131 3.75814C22.2831 4.05114 22.4791 4.42114 22.5181 4.87014C22.5381 5.22114 22.4781 5.51414 22.3231 5.80714C21.5621 7.21114 20.9371 9.57314 20.4301 12.8501C19.9421 16.0311 19.7661 18.5091 19.8841 20.2851C19.9231 20.7721 19.8441 21.2021 19.6491 21.5721C19.4151 22.0021 19.0641 22.2361 18.6151 22.2751C18.1081 22.3141 17.5811 22.0801 17.0741 21.5531C15.2591 19.6991 13.8151 16.9291 12.7621 13.2411C11.8094 15.1064 10.8727 16.9798 9.9521 18.8611C8.8011 21.0651 7.8251 22.1971 7.0061 22.2551C6.4791 22.2951 6.0301 21.8451 5.6401 20.9091C4.6451 18.3531 3.5721 13.4161 2.4201 6.09914C2.3421 5.59214 2.4591 5.14314 2.7321 4.79214ZM44.6651 7.85514C43.9621 6.62614 42.9281 5.88514 41.5431 5.59214C41.1968 5.51677 40.8435 5.47756 40.4891 5.47514C38.6161 5.47514 37.0941 6.45014 35.9041 8.40214C34.8891 10.0601 34.3821 11.8941 34.3821 13.9041C34.3821 15.4061 34.6941 16.6941 35.3181 17.7671C36.0211 18.9971 37.0551 19.7381 38.4401 20.0311C38.8111 20.1091 39.1621 20.1481 39.4941 20.1481C41.3871 20.1481 42.9091 19.1721 44.0791 17.2211C45.0941 15.5431 45.6011 13.7091 45.6011 11.6991C45.6211 10.1771 45.2891 8.90914 44.6651 7.85514ZM42.2061 13.2601C41.9331 14.5481 41.4461 15.5041 40.7231 16.1481C40.1571 16.6551 39.6311 16.8701 39.1431 16.7731C38.6751 16.6751 38.2841 16.2651 37.9921 15.5041C37.7667 14.9391 37.6474 14.3374 37.6401 13.7291C37.6401 13.2411 37.6801 12.7531 37.7771 12.3041C37.9607 11.468 38.3125 10.678 38.8111 9.98214C39.4551 9.02614 40.1381 8.63614 40.8411 8.77214C41.3091 8.87014 41.6991 9.28014 41.9911 10.0411C42.2261 10.6461 42.3431 11.2511 42.3431 11.8161C42.3431 12.3241 42.3031 12.8111 42.2061 13.2601ZM32.4501 7.85514C31.7481 6.62614 30.6941 5.88514 29.3281 5.59214C28.9821 5.51683 28.6292 5.47762 28.2751 5.47514C26.4011 5.47514 24.8791 6.45014 23.6891 8.40214C22.6751 10.0601 22.1671 11.8941 22.1671 13.9041C22.1671 15.4061 22.4791 16.6941 23.1041 17.7671C23.8061 18.9971 24.8401 19.7381 26.2261 20.0311C26.5961 20.1091 26.9481 20.1481 27.2791 20.1481C29.1721 20.1481 30.6941 19.1721 31.8651 17.2211C32.8791 15.5431 33.3871 13.7091 33.3871 11.6991C33.3871 10.1771 33.0741 8.90914 32.4501 7.85514ZM29.9721 13.2601C29.6991 14.5481 29.2111 15.5041 28.4891 16.1481C27.9231 16.6551 27.3961 16.8701 26.9091 16.7731C26.4401 16.6751 26.0501 16.2651 25.7571 15.5041C25.5324 14.939 25.4138 14.3373 25.4071 13.7291C25.4071 13.2411 25.4451 12.7531 25.5431 12.3041C25.7267 11.468 26.0785 10.678 26.5771 9.98214C27.2211 9.02614 27.9041 8.63614 28.6071 8.77214C29.0751 8.87014 29.4651 9.28014 29.7571 10.0411C29.9921 10.6461 30.1091 11.2511 30.1091 11.8161C30.1291 12.3241 30.0691 12.8111 29.9721 13.2601Z" fill="white"/>
</g>
<defs>
<clipPath id="clip0_87_2367">
<rect width="48" height="30" fill="white"/>
</clipPath>
</defs>
</svg>
