<svg width="30" height="24" viewBox="0 0 30 24" fill="none" xmlns="http://www.w3.org/2000/svg">
<g clip-path="url(#clip0_87_2457)">
<path d="M29.9983 2.84123C28.8751 3.33107 27.6838 3.65248 26.4639 3.79477C27.7489 3.03773 28.7105 1.84651 29.1695 0.443081C27.9617 1.14901 26.6402 1.64633 25.262 1.91354C24.6864 1.30867 23.9907 0.826709 23.2181 0.497542C22.4454 0.168375 21.6123 -0.000972372 20.7705 4.19971e-06C19.1384 4.19971e-06 17.5732 0.638369 16.4191 1.77467C15.2651 2.91096 14.6167 4.45211 14.6167 6.05908C14.6167 6.53354 14.6711 6.996 14.7761 7.43908C12.3292 7.31866 9.93536 6.69281 7.75008 5.6022C5.56481 4.51158 3.63695 2.98058 2.09172 1.10862C1.54459 2.03327 1.25726 3.08464 1.25922 4.15477C1.25837 5.1523 1.50781 6.13459 1.98539 7.01434C2.46296 7.89408 3.15387 8.64403 3.99672 9.19754C3.01965 9.16768 2.064 8.90815 1.20953 8.44062V8.51631C1.20985 9.91524 1.70148 11.271 2.60109 12.3538C3.5007 13.4366 4.75293 14.1797 6.14547 14.4572C5.23911 14.7003 4.2883 14.736 3.36578 14.5615C3.75888 15.7654 4.52436 16.8182 5.55513 17.5726C6.58591 18.327 7.83041 18.7453 9.11453 18.7689C6.93485 20.4535 4.24298 21.3671 1.47203 21.3628C0.975156 21.3628 0.485781 21.3332 0.00390625 21.2778C2.81758 23.0583 6.09242 24.0033 9.43703 24C20.7555 24 26.9448 14.7674 26.9448 6.76154C26.9452 6.49991 26.9395 6.23831 26.928 5.97693C28.1322 5.11963 29.1726 4.05778 29.9983 2.84123Z" fill="#2E77AE"/>
</g>
<defs>
<clipPath id="clip0_87_2457">
<rect width="30" height="24" fill="white"/>
</clipPath>
</defs>
</svg>
