<svg width="39" height="45" viewBox="0 0 39 45" fill="none" xmlns="http://www.w3.org/2000/svg">
<g clip-path="url(#clip0_87_2414)">
<path d="M16.6385 36.1817C15.8686 36.1817 15.3554 36.8665 15.3554 37.55C15.3554 38.2347 15.9537 38.9182 16.7236 38.9182C17.4083 38.9182 18.0067 38.2335 18.0067 37.55C18.0067 36.9516 17.4083 36.1817 16.6385 36.1817ZM16.6385 30.7088C15.8686 30.7088 15.3554 31.3935 15.3554 32.077C15.3554 32.7617 15.9537 33.3601 16.6385 33.3601C17.322 33.3601 18.0067 32.8469 18.0067 32.077C18.0067 31.3923 17.4083 30.7088 16.6385 30.7088ZM23.5648 10.1851C24.2496 10.1851 24.9331 9.58675 24.9331 8.81688C24.9331 8.13215 24.2483 7.44864 23.5648 7.44864C22.795 7.44864 22.1966 8.13337 22.1966 8.81688C22.1941 8.99724 22.2278 9.17626 22.2957 9.34337C22.3636 9.51049 22.4643 9.6623 22.5919 9.78984C22.7194 9.91739 22.8712 10.0181 23.0383 10.086C23.2054 10.1539 23.3845 10.1876 23.5648 10.1851ZM15.2702 10.1851C15.9537 10.1851 16.6385 9.58675 16.6385 8.81688C16.6385 8.13215 15.9537 7.44864 15.2702 7.44864C14.5004 7.44864 13.902 8.13337 13.902 8.81688C13.902 9.58675 14.5855 10.1851 15.2702 10.1851ZM16.6385 25.2358C15.9537 25.2358 15.2702 25.9205 15.2702 26.604C15.2702 27.2888 15.8686 27.8872 16.5521 27.8872C17.2368 27.8872 18.0067 27.3739 18.0067 26.604C18.0067 25.9193 17.4083 25.2358 16.6385 25.2358ZM22.1966 36.1817C21.4267 36.1817 20.8283 36.8665 20.8283 37.55C20.8259 37.7303 20.8596 37.9094 20.9275 38.0765C20.9954 38.2436 21.0961 38.3954 21.2236 38.523C21.3512 38.6505 21.503 38.7512 21.6701 38.8191C21.8372 38.887 22.0162 38.9207 22.1966 38.9182C22.8813 38.9182 23.4797 38.2335 23.4797 37.55C23.4797 36.7801 22.8813 36.1817 22.1966 36.1817ZM22.1966 25.2358C21.4267 25.2358 20.8283 25.9205 20.8283 26.604C20.8259 26.7844 20.8596 26.9634 20.9275 27.1305C20.9954 27.2976 21.0961 27.4495 21.2236 27.577C21.3512 27.7046 21.503 27.8052 21.6701 27.8731C21.8372 27.941 22.0162 27.9747 22.1966 27.9723C22.8813 27.9723 23.4797 27.3739 23.4797 26.6892C23.4797 26.0057 22.8813 25.2358 22.1966 25.2358ZM22.1966 30.7088C21.4267 30.7088 20.8283 31.3935 20.8283 32.077C20.8259 32.2574 20.8596 32.4364 20.9275 32.6035C20.9954 32.7706 21.0961 32.9224 21.2236 33.05C21.3512 33.1775 21.503 33.2782 21.6701 33.3461C21.8372 33.414 22.0162 33.4477 22.1966 33.4453C22.8813 33.4453 23.4797 32.8469 23.4797 32.077C23.4797 31.3923 22.8813 30.7088 22.1966 30.7088ZM19.4601 11.5534C18.6902 11.5534 18.0067 12.2381 18.0067 12.9216C18.0067 13.6915 18.6902 14.2899 19.4601 14.2899C20.1448 14.2899 20.8283 13.6915 20.8283 12.9216C20.8283 12.2369 20.1436 11.5534 19.4601 11.5534ZM38.6155 21.0459C38.6155 13.4349 35.9641 8.38877 32.4578 5.31053C28.9527 2.23229 24.1632 0.607422 19.4601 0.607422C14.6706 0.607422 9.88239 2.23229 6.37604 5.31053C2.8709 8.38877 0.304688 13.4349 0.304688 21.0459C0.304688 25.3209 1.07455 30.2807 3.04117 36.1817C5.77766 44.3912 19.4601 44.3912 19.4601 44.3912C19.4601 44.3912 33.0574 44.3912 35.7939 36.1817C37.7605 30.2807 38.6155 25.2358 38.6155 21.0459ZM34.4256 21.0459C34.4256 25.0643 33.5706 29.7686 31.8594 34.8986C30.406 39.26 22.1966 40.2865 19.4601 40.2865C17.1517 40.2865 8.42901 39.4315 6.97442 34.8986C5.26442 29.7686 4.40942 25.0643 4.40942 21.0459C4.40942 15.4878 5.94915 11.1253 9.02739 8.38877C11.6787 6.08039 15.4405 4.71215 19.4601 4.71215C23.3933 4.71215 27.1563 6.08039 29.8077 8.38877C32.8859 11.1253 34.4256 15.4866 34.4256 21.0459ZM17.322 18.3946C17.322 16.9412 16.1252 15.6581 14.5855 15.6581H9.11253C7.57401 15.6581 6.46117 16.9412 6.46117 18.3946C6.37604 21.4728 8.85712 23.8676 11.849 23.8676C14.7558 23.8676 17.322 21.4728 17.322 18.3946ZM24.2483 15.6581C22.7098 15.6581 21.5118 16.9412 21.5118 18.3946C21.5118 21.4728 23.9078 23.8676 26.9848 23.8676C29.9779 23.8676 32.3727 21.4728 32.3727 18.3946C32.4578 16.9412 31.1759 15.6581 29.7213 15.6581H24.2483Z" fill="#FF0000"/>
</g>
<defs>
<clipPath id="clip0_87_2414">
<rect width="38.9189" height="45" fill="white"/>
</clipPath>
</defs>
</svg>
