<svg width="45" height="45" viewBox="0 0 45 45" fill="none" xmlns="http://www.w3.org/2000/svg">
<g clip-path="url(#clip0_87_2310)">
<path d="M22.5078 0C13.1134 0 10.3671 0.00926471 9.83235 0.0529412C7.90529 0.214412 6.70485 0.5175 5.39853 1.16868C4.43045 1.63955 3.5549 2.28063 2.81368 3.06132C1.38426 4.54368 0.52 6.3675 0.206324 8.53676C0.0541176 9.58897 0.0104412 9.80338 0.00117647 15.1796C-0.00147059 16.9716 0.00117647 19.3301 0.00117647 22.4921C0.00117647 31.8812 0.0117647 34.6262 0.0567647 35.1582C0.212941 37.0363 0.506765 38.2156 1.12882 39.5074C1.72941 40.7383 2.58962 41.8245 3.65024 42.6911C4.71086 43.5578 5.94669 44.1843 7.27265 44.5275C8.19912 44.7657 9.22485 44.8981 10.5404 44.9603C11.0963 44.9841 16.7756 45.0013 22.4588 45.0013C28.1421 45.0013 33.824 44.9947 34.3679 44.9669C35.89 44.8954 36.7754 44.7763 37.7522 44.5235C39.0806 44.1829 40.3187 43.5564 41.3798 42.6877C42.441 41.819 43.2997 40.7291 43.896 39.4941C44.5062 38.2341 44.8159 37.0085 44.9562 35.2297C44.9866 34.8419 44.9999 28.6597 44.9999 22.4868C44.9999 16.3125 44.9866 10.1422 44.9562 9.75441C44.8132 7.94647 44.5035 6.73147 43.8735 5.44765C43.3996 4.4569 42.7467 3.56219 41.9478 2.80853C40.4588 1.38574 38.639 0.520147 36.4684 0.207794C35.4175 0.0529412 35.2097 0.00926471 29.8322 0H22.5078Z" fill="url(#paint0_radial_87_2310)"/>
<path d="M22.5078 0C13.1134 0 10.3671 0.00926471 9.83235 0.0529412C7.90529 0.214412 6.70485 0.5175 5.39853 1.16868C4.43045 1.63955 3.5549 2.28063 2.81368 3.06132C1.38426 4.54368 0.52 6.3675 0.206324 8.53676C0.0541176 9.58897 0.0104412 9.80338 0.00117647 15.1796C-0.00147059 16.9716 0.00117647 19.3301 0.00117647 22.4921C0.00117647 31.8812 0.0117647 34.6262 0.0567647 35.1582C0.212941 37.0363 0.506765 38.2156 1.12882 39.5074C1.72941 40.7383 2.58962 41.8245 3.65024 42.6911C4.71086 43.5578 5.94669 44.1843 7.27265 44.5275C8.19912 44.7657 9.22485 44.8981 10.5404 44.9603C11.0963 44.9841 16.7756 45.0013 22.4588 45.0013C28.1421 45.0013 33.824 44.9947 34.3679 44.9669C35.89 44.8954 36.7754 44.7763 37.7522 44.5235C39.0806 44.1829 40.3187 43.5564 41.3798 42.6877C42.441 41.819 43.2997 40.7291 43.896 39.4941C44.5062 38.2341 44.8159 37.0085 44.9562 35.2297C44.9866 34.8419 44.9999 28.6597 44.9999 22.4868C44.9999 16.3125 44.9866 10.1422 44.9562 9.75441C44.8132 7.94647 44.5035 6.73147 43.8735 5.44765C43.3996 4.4569 42.7467 3.56219 41.9478 2.80853C40.4588 1.38574 38.639 0.520147 36.4684 0.207794C35.4175 0.0529412 35.2097 0.00926471 29.8322 0H22.5078Z" fill="url(#paint1_radial_87_2310)"/>
<path d="M22.4971 5.88477C17.9852 5.88477 17.4187 5.90462 15.6465 5.98535C13.8783 6.06477 12.6712 6.34535 11.615 6.75697C10.5231 7.1805 9.59531 7.74962 8.67281 8.67344C7.82749 9.50329 7.17306 10.5073 6.75502 11.6156C6.3434 12.6731 6.06281 13.8815 5.9834 15.6498C5.90399 17.422 5.88281 17.9884 5.88281 22.5017C5.88281 27.0149 5.90267 27.5787 5.9834 29.3509C6.06546 31.1205 6.34472 32.3289 6.75502 33.3837C7.17987 34.477 7.74767 35.4048 8.67149 36.3273C9.50074 37.1736 10.5049 37.8286 11.6137 38.2464C12.6699 38.6567 13.8769 38.9359 15.6452 39.018C17.4187 39.0974 17.9838 39.1186 22.4944 39.1186C27.0077 39.1186 27.5715 39.0987 29.3437 39.018C31.1119 38.9359 32.3203 38.6567 33.3765 38.2451C34.4848 37.8277 35.4885 37.1732 36.3174 36.3273C37.1631 35.4975 37.818 34.4935 38.2365 33.3851C38.6441 32.3276 38.9247 31.1192 39.0068 29.3509C39.0862 27.5787 39.1074 27.0136 39.1074 22.5017C39.1074 17.9884 39.0862 17.422 39.0068 15.6498C38.9234 13.8802 38.6441 12.6731 38.2352 11.617C37.8173 10.5081 37.1629 9.50367 36.3174 8.67344C35.4886 7.8278 34.4848 7.17369 33.3765 6.75697C32.3177 6.34668 31.1093 6.06609 29.3397 5.98535C27.5688 5.90462 27.005 5.88477 22.4918 5.88477H22.4971ZM21.0068 8.87859H22.4971C26.9322 8.87859 27.4577 8.89447 29.21 8.97388C30.83 9.048 31.7088 9.31932 32.2938 9.54697C33.0694 9.84741 33.6213 10.2087 34.2037 10.7898C34.7847 11.3721 35.1434 11.9254 35.4465 12.7009C35.6728 13.2859 35.9441 14.1648 36.0183 15.7848C36.0977 17.5371 36.1149 18.0626 36.1149 22.4977C36.1149 26.9315 36.0977 27.4583 36.0183 29.2106C35.9441 30.8306 35.6741 31.7095 35.4465 32.2945C35.1799 33.0158 34.7547 33.668 34.2024 34.203C33.6213 34.7854 33.0694 35.1454 32.2938 35.4471C31.7088 35.6748 30.83 35.9448 29.21 36.0189C27.459 36.0983 26.9335 36.1155 22.4971 36.1155C18.0606 36.1155 17.5352 36.0983 15.7841 36.0189C14.1641 35.9434 13.2853 35.6734 12.7003 35.4458C11.9783 35.1796 11.3253 34.7549 10.7891 34.203C10.237 33.6673 9.81191 33.0147 9.54502 32.2931C9.31869 31.7081 9.04737 30.8293 8.97325 29.2093C8.89384 27.457 8.87796 26.9302 8.87796 22.4937C8.87796 18.0559 8.89384 17.5331 8.97325 15.7808C9.04737 14.1608 9.31737 13.282 9.54634 12.6956C9.81259 11.9737 10.2373 11.3207 10.7891 10.7845C11.3254 10.233 11.9778 9.80796 12.699 9.54035C13.2853 9.31271 14.1641 9.04271 15.7841 8.96859C17.3168 8.89844 17.911 8.87859 21.0068 8.87594V8.87859ZM31.3647 11.6381C30.8359 11.6381 30.3288 11.8482 29.9548 12.2221C29.5809 12.5961 29.3708 13.1032 29.3708 13.632C29.3708 14.1609 29.5809 14.668 29.9548 15.0419C30.3288 15.4159 30.8359 15.6259 31.3647 15.6259C31.8937 15.6259 32.401 15.4158 32.7751 15.0417C33.1491 14.6677 33.3593 14.1604 33.3593 13.6314C33.3593 13.1024 33.1491 12.5951 32.7751 12.221C32.401 11.847 31.8937 11.6381 31.3647 11.6381ZM22.4971 13.9676C20.234 13.9676 18.0637 14.8665 16.4635 16.4668C14.8633 18.067 13.9643 20.2373 13.9643 22.5004C13.9643 24.7634 14.8633 26.9337 16.4635 28.5339C18.0637 30.1342 20.234 31.0331 22.4971 31.0331C23.6173 31.033 24.7265 30.8122 25.7613 30.3833C26.7962 29.9545 27.7364 29.326 28.5284 28.5338C29.3204 27.7416 29.9486 26.8011 30.3771 25.7661C30.8056 24.7311 31.0261 23.6219 31.0259 22.5017C31.0262 21.3813 30.8059 20.2718 30.3775 19.2366C29.9491 18.2014 29.3209 17.2607 28.529 16.4682C27.737 15.6758 26.7967 15.0471 25.7617 14.618C24.7268 14.1889 23.6174 13.9679 22.4971 13.9676ZM22.4971 16.9627C23.2244 16.9628 23.9445 17.1061 24.6164 17.3845C25.2884 17.6629 25.8988 18.071 26.4131 18.5853C26.9273 19.0996 27.3352 19.7102 27.6134 20.3822C27.8916 21.0542 28.0348 21.7744 28.0347 22.5017C28.0346 23.229 27.8913 23.9491 27.6129 24.621C27.3345 25.2929 26.9265 25.9034 26.4121 26.4177C25.8978 26.9319 25.2872 27.3398 24.6152 27.618C23.9433 27.8962 23.2231 28.0394 22.4958 28.0393C21.0267 28.0393 19.6179 27.4558 18.5791 26.417C17.5404 25.3782 16.9568 23.9694 16.9568 22.5004C16.9568 21.0313 17.5404 19.6225 18.5791 18.5837C19.6179 17.545 21.0267 16.9614 22.4958 16.9614L22.4971 16.9627Z" fill="white"/>
</g>
<defs>
<radialGradient id="paint0_radial_87_2310" cx="0" cy="0" r="1" gradientUnits="userSpaceOnUse" gradientTransform="translate(11.9526 48.4663) rotate(-90) scale(44.5983 41.4799)">
<stop stop-color="#FFDD55"/>
<stop offset="0.1" stop-color="#FFDD55"/>
<stop offset="0.5" stop-color="#FF543E"/>
<stop offset="1" stop-color="#C837AB"/>
</radialGradient>
<radialGradient id="paint1_radial_87_2310" cx="0" cy="0" r="1" gradientUnits="userSpaceOnUse" gradientTransform="translate(-7.53901 3.24153) rotate(78.681) scale(19.9357 82.1756)">
<stop stop-color="#3771C8"/>
<stop offset="0.128" stop-color="#3771C8"/>
<stop offset="1" stop-color="#6600FF" stop-opacity="0"/>
</radialGradient>
<clipPath id="clip0_87_2310">
<rect width="45" height="45" fill="white"/>
</clipPath>
</defs>
</svg>
