<svg width="45" height="45" viewBox="0 0 45 45" fill="none" xmlns="http://www.w3.org/2000/svg">
<g clip-path="url(#clip0_87_2379)">
<mask id="mask0_87_2379" style="mask-type:luminance" maskUnits="userSpaceOnUse" x="0" y="0" width="45" height="45">
<path d="M0.138672 0H44.8597V45H0.138672V0Z" fill="white"/>
</mask>
<g mask="url(#mask0_87_2379)">
<path d="M31.1786 3.82816C30.0885 4.64941 29.0974 5.43128 28.059 6.15016C27.8273 6.30878 27.4031 6.34141 27.1219 6.25366C18.015 3.42766 9.00488 7.98953 5.5005 16.1244C0.776627 27.0898 7.83488 39.4952 19.4809 40.9104C29.3134 42.1052 38.0738 35.201 39.2213 25.3685C39.5036 22.943 39.3799 20.4984 38.5913 18.146C38.391 17.5453 38.4608 17.1032 38.877 16.6014C39.6004 15.7318 40.2315 14.7834 40.9133 13.8553C44.4041 19.8189 44.5178 31.1533 36.7778 38.7335C28.7329 46.6119 16.1138 47.117 7.899 39.944C-0.920998 32.24 -2.41725 19.4634 4.4115 10.2654C11.4124 0.835655 23.415 -0.350094 31.1786 3.82816Z" fill="#2346CB"/>
<path d="M21.8364 35.4224C21.8364 32.9992 21.824 30.703 21.8567 28.4069C21.86 28.165 22.1042 27.9119 22.2774 27.6937C23.3417 26.338 23.1437 24.5302 21.7723 23.1779C20.3807 21.8054 18.7663 21.6625 17.3454 22.7527C17.0889 22.9484 16.7402 23.1262 16.4319 23.1307C14.2494 23.1622 12.0669 23.1475 9.75391 23.1475C9.92828 22.8989 10.0239 22.7167 10.16 22.576C11.9364 20.7715 13.715 18.9704 15.4993 17.1738C16.8268 15.835 18.3973 14.9789 20.2704 14.6257C20.7845 14.5289 21.3189 14.1903 21.7059 13.8179C25.9697 9.74205 30.3977 5.87542 35.5468 2.9313C38.0499 1.50142 40.6318 0.240299 43.5827 0.0197992C44.8089 -0.0713258 44.9687 0.116549 44.8089 1.33942C44.3229 5.07217 42.614 8.30655 40.6498 11.4194C37.9205 15.7462 34.5872 19.5959 31.1098 23.3298C30.6992 23.7914 30.4124 24.3495 30.2762 24.952C29.9387 26.4697 29.366 27.8669 28.304 28.9897C26.3274 31.0822 24.2833 33.1105 22.265 35.1637C22.1863 35.2424 22.0715 35.2818 21.8375 35.4202L21.8364 35.4224ZM26.1868 21.4398L26.1283 21.8043C26.396 21.5568 26.6829 21.3295 26.927 21.0618C29.15 18.643 31.4574 16.2918 33.5533 13.765C35.18 11.8053 36.5514 9.6318 38.0117 7.53705C38.2052 7.2603 38.2603 6.88455 38.3807 6.55492L38.1309 6.3693C32.354 9.5508 27.854 14.2758 23.2922 18.6588L26.189 21.4398H26.1868Z" fill="#2346CB"/>
<path d="M16.9089 29.0024L17.6897 30.0374L10.8351 33.7082L10.6641 33.5204L14.3496 30.3051L13.3506 29.0057C14.3034 28.0349 15.2451 27.0719 16.1912 26.1134C16.7683 25.5284 17.3477 24.9467 17.9271 24.364C19.0003 23.284 20.0904 23.3706 20.9848 24.6351C21.6846 25.6217 21.6801 26.461 20.4898 26.9999C19.2681 27.5545 18.1386 28.3026 16.9056 29.0024H16.9089Z" fill="#2346CB"/>
</g>
</g>
<defs>
<clipPath id="clip0_87_2379">
<rect width="45" height="45" fill="white"/>
</clipPath>
</defs>
</svg>
