<svg width="45" height="45" viewBox="0 0 45 45" fill="none" xmlns="http://www.w3.org/2000/svg">
<g clip-path="url(#clip0_87_2337)">
<path d="M3.19923 22.5009C3.19923 30.1396 7.6396 36.7434 14.078 39.872L4.86985 14.645C3.76623 17.1168 3.19694 19.7938 3.19923 22.5009ZM35.5317 21.5266C35.5317 19.1416 34.6756 17.4879 33.941 16.2031C32.9622 14.6135 32.0442 13.2669 32.0442 11.6761C32.0442 9.90199 33.3908 8.25049 35.2865 8.25049C35.372 8.25049 35.453 8.26174 35.5362 8.26624C31.9812 5.00146 27.3286 3.19278 22.502 3.19924C15.7576 3.19924 9.82548 6.65861 6.37398 11.8989C6.82735 11.9124 7.25373 11.9214 7.61598 11.9214C9.63535 11.9214 12.7606 11.6772 12.7606 11.6772C13.8012 11.6154 13.9239 13.1442 12.8844 13.2669C12.8844 13.2669 11.8381 13.3906 10.6749 13.4514L17.7039 34.3595L21.9282 21.6897L18.9211 13.4502C17.8816 13.3895 16.8961 13.2669 16.8961 13.2669C15.8566 13.205 15.9781 11.6154 17.0187 11.6761C17.0187 11.6761 20.2058 11.9214 22.1037 11.9214C24.122 11.9214 27.2472 11.6761 27.2472 11.6761C28.289 11.6154 28.4105 13.1431 27.371 13.2669C27.371 13.2669 26.3236 13.3895 25.1615 13.4502L32.1365 34.1997L34.0625 27.7659C34.8972 25.0962 35.5317 23.1792 35.5317 21.5266Z" fill="#21759B"/>
<path d="M22.8403 24.1868L17.0488 41.0168C20.9372 42.1619 25.0874 42.0537 28.9108 40.7074C28.8574 40.6231 28.8114 40.5343 28.7736 40.4419L22.8403 24.1868ZM39.4386 13.2383C39.5218 13.8525 39.568 14.5129 39.568 15.2228C39.568 17.1814 39.2023 19.383 38.101 22.137L32.2048 39.183C37.9423 35.8373 41.8033 29.6205 41.8033 22.4993C41.8082 19.2623 40.9947 16.0766 39.4386 13.2383Z" fill="#21759B"/>
<path d="M22.5 0C10.0957 0 0 10.0913 0 22.5C0 34.9087 10.0946 45 22.5 45C34.9065 45 45.0022 34.9076 45.0022 22.5C45.0022 10.0924 34.9054 0 22.5 0ZM22.5 43.9695C10.6639 43.9695 1.03275 34.3373 1.03275 22.4989C1.03162 10.6628 10.6627 1.03275 22.5011 1.03275C34.3384 1.03275 43.9684 10.6627 43.9684 22.5C43.9684 34.3395 34.3384 43.9706 22.5011 43.9706L22.5 43.9695Z" fill="#21759B"/>
</g>
<defs>
<clipPath id="clip0_87_2337">
<rect width="45" height="45" fill="white"/>
</clipPath>
</defs>
</svg>
