<svg width="46" height="35" viewBox="0 0 46 35" fill="none" xmlns="http://www.w3.org/2000/svg">
<g clip-path="url(#clip0_87_2370)">
<path d="M8.2591 8.69295L22.36 16.0821C22.5442 16.1747 22.7615 16.1747 22.9447 16.0821L37.0456 8.69295C37.1084 8.66146 37.1613 8.6131 37.1982 8.55329C37.2351 8.49347 37.2547 8.42457 37.2547 8.35427C37.2547 8.28398 37.2351 8.21507 37.1982 8.15526C37.1613 8.09545 37.1084 8.04709 37.0456 8.0156L22.9612 0.627508C22.8702 0.582184 22.7699 0.558594 22.6683 0.558594C22.5666 0.558594 22.4664 0.582184 22.3754 0.627508L8.27557 8.0156C8.21193 8.04553 8.15788 8.09259 8.11947 8.15151C8.08106 8.21043 8.05981 8.27887 8.0581 8.34919C8.05639 8.4195 8.07428 8.4889 8.10979 8.54961C8.14529 8.61032 8.19699 8.65996 8.2591 8.69295ZM4.3494 15.5282L22.36 24.9515C22.5442 25.0441 22.7615 25.0441 22.9447 24.9515L40.9563 15.5293C41.0191 15.4978 41.072 15.4494 41.1089 15.3896C41.1458 15.3298 41.1654 15.2609 41.1654 15.1906C41.1654 15.1203 41.1458 15.0514 41.1089 14.9916C41.072 14.9318 41.0191 14.8834 40.9563 14.8519L35.7835 12.1425L22.9612 18.8852C22.8704 18.9311 22.77 18.9551 22.6683 18.9551C22.5665 18.9551 22.4662 18.9311 22.3754 18.8852L9.5366 12.1734L4.36484 14.8828C4.30175 14.9092 4.24765 14.9533 4.20908 15.0098C4.17051 15.0662 4.14912 15.1327 4.14748 15.201C4.14585 15.2694 4.16405 15.3368 4.19988 15.395C4.23571 15.4533 4.28764 15.4999 4.3494 15.5293V15.5282ZM45.0822 22.0856L39.4173 19.1312L22.9612 27.7824C22.8703 27.828 22.77 27.8518 22.6683 27.8518C22.5666 27.8518 22.4663 27.828 22.3754 27.7824L5.87395 19.1312L0.209102 22.0866C0.146258 22.1181 0.0934153 22.1665 0.0564868 22.2263C0.0195583 22.2861 0 22.355 0 22.4253C0 22.4956 0.0195583 22.5645 0.0564868 22.6243C0.0934153 22.6841 0.146258 22.7325 0.209102 22.764L22.3456 34.3716C22.5298 34.4643 22.747 34.4643 22.9303 34.3716L45.0678 22.764C45.1332 22.7354 45.1891 22.6888 45.2288 22.6295C45.2685 22.5702 45.2905 22.5008 45.292 22.4294C45.2935 22.358 45.2745 22.2877 45.2374 22.2268C45.2002 22.1659 45.1463 22.1169 45.0822 22.0856Z" fill="#0069FF"/>
</g>
<defs>
<clipPath id="clip0_87_2370">
<rect width="45.2941" height="35" fill="white"/>
</clipPath>
</defs>
</svg>
