<svg width="44" height="30" viewBox="0 0 44 30" fill="none" xmlns="http://www.w3.org/2000/svg">
<path d="M43.8704 26.7297C43.8704 27.7624 42.9672 28.6657 41.9357 28.6657H1.936C0.903222 28.6657 0 27.7624 0 26.7321V2.60177C0 1.56899 0.773667 0.665771 1.936 0.665771H42.064C43.0968 0.665771 44 1.57022 44 2.60177L43.8704 26.7297Z" fill="#00BAFF"/>
<path d="M43.3541 1.31055C38.1939 9.44077 30.0661 16.7961 21.8063 16.537C18.7092 16.4074 15.2258 15.6338 12.2583 13.182C9.57858 10.972 7.71557 7.92882 6.96607 4.53721H6.06285C4.7734 4.53721 3.87018 5.69832 4.12807 6.85944C4.12807 7.11732 4.2564 7.37521 4.2564 7.63432C4.90174 11.5051 7.22396 15.8917 11.096 18.7309C14.1918 21.1827 17.806 22.6017 21.9346 22.6017C29.2887 22.6017 37.0303 17.9572 43.8699 5.95621V2.47288C43.8699 2.08544 43.612 1.69799 43.3529 1.31177L43.3541 1.31055Z" fill="white"/>
</svg>
