<svg width="48" height="41" viewBox="0 0 48 41" fill="none" xmlns="http://www.w3.org/2000/svg">
<g clip-path="url(#clip0_87_2332)">
<path d="M45.2528 0.384766H2.74755C2.02055 0.387921 1.32421 0.678038 0.81003 1.192C0.295847 1.70595 0.00542629 2.40217 0.00195312 3.12917V37.6724C0.00542386 38.3992 0.29568 39.0952 0.809604 39.6091C1.32353 40.123 2.01956 40.4133 2.74635 40.4168H45.2516C45.9783 40.4133 46.6744 40.123 47.1883 39.6091C47.7022 39.0952 47.9925 38.3992 47.996 37.6724V3.12917C47.9925 2.40258 47.7024 1.70673 47.1887 1.19284C46.6751 0.678946 45.9793 0.388552 45.2528 0.384766ZM42.6548 3.02237C43.6148 3.02237 44.4056 3.81197 44.4056 4.77437C44.4056 5.73437 43.6148 6.52397 42.6536 6.52397C41.6936 6.52397 40.904 5.73437 40.904 4.77317C40.904 3.81317 41.6936 3.02237 42.6548 3.02237ZM36.4076 3.02237C37.3688 3.02237 38.1596 3.81197 38.1596 4.77437C38.1596 5.73437 37.3688 6.52397 36.4076 6.52397C35.4476 6.52397 34.6568 5.73437 34.6568 4.77317C34.6568 3.81317 35.4464 3.02237 36.4076 3.02237ZM30.1616 3.02237C31.1216 3.02237 31.9136 3.81197 31.9136 4.77437C31.9136 5.73437 31.1216 6.52397 30.1616 6.52397C29.2016 6.52397 28.4108 5.73437 28.4108 4.77317C28.4108 3.81317 29.2004 3.02237 30.1616 3.02237ZM44.4728 36.8636H3.50475V8.88677H44.4728V36.8636Z" fill="#394C60"/>
<path d="M16.2788 33.8877C16.5602 33.4204 16.9866 33.0579 17.4931 32.8553C17.9996 32.6528 18.5584 32.6213 19.0844 32.7657C19.3255 32.8495 19.581 32.884 19.8358 32.8669C20.0905 32.8499 20.3392 32.7817 20.567 32.6665C20.7948 32.5512 20.997 32.3913 21.1616 32.1962C21.3263 32.0011 21.4499 31.7748 21.5252 31.5309C21.7079 31.0392 21.6931 30.4959 21.4839 30.0148C21.2747 29.5338 20.8874 29.1525 20.4032 28.9509C19.9267 28.7336 19.5359 28.3641 19.2922 27.9006C19.0485 27.4371 18.9657 26.9058 19.0568 26.3901C19.1412 25.8525 19.4115 25.3615 19.8207 25.0028C20.2299 24.644 20.752 24.4402 21.296 24.4269C21.8298 24.4156 22.338 24.1963 22.7124 23.8156C23.0867 23.435 23.2976 22.9231 23.3 22.3893C23.2975 21.8496 23.082 21.3328 22.7004 20.9512C22.3188 20.5697 21.802 20.3542 21.2624 20.3517H21.2288C20.6822 20.3356 20.1572 20.1349 19.7393 19.7823C19.3214 19.4298 19.0351 18.9461 18.9272 18.4101C18.8672 18.0861 18.8672 17.7525 18.9272 17.4273C18.9849 17.0689 19.1271 16.7294 19.342 16.4368C19.557 16.1443 19.8384 15.9071 20.1632 15.7449C20.6256 15.4942 20.9737 15.0752 21.1355 14.5747C21.2973 14.0743 21.2602 13.5307 21.032 13.0569C20.8591 12.5553 20.4942 12.1428 20.0174 11.9102C19.5406 11.6775 18.9909 11.6437 18.4892 11.8161C17.982 12.0188 17.4193 12.0345 16.9016 11.8605C16.4561 11.6602 16.0694 11.3491 15.7784 10.9569C15.5585 10.6633 15.403 10.3267 15.3219 9.96899C15.2409 9.61129 15.2361 9.24052 15.308 8.88086H5.95758C10.2956 11.2089 14.426 15.8901 14.5268 22.1025C14.6396 28.8381 11.0756 34.2765 5.83398 36.8577H16.3964C16.0451 36.4485 15.8423 35.9326 15.821 35.3937C15.7996 34.8548 15.961 34.3234 16.2788 33.8877Z" fill="#3C9BD6"/>
<path d="M29.4828 11.5797C29.905 11.9282 30.1944 12.4113 30.3025 12.9479C30.4107 13.4845 30.331 14.042 30.0768 14.5269C29.8685 15.032 29.5006 15.455 29.0294 15.7315C28.5581 16.008 28.0094 16.1226 27.4668 16.0581C27.2142 16.01 26.9545 16.0135 26.7033 16.0683C26.4521 16.1232 26.2145 16.2282 26.0049 16.3772C25.7953 16.5262 25.618 16.7159 25.4836 16.9352C25.3492 17.1544 25.2605 17.3985 25.2228 17.6529C25.1147 18.1639 25.2078 18.6969 25.4827 19.141C25.7576 19.5852 26.1932 19.9062 26.6988 20.0373C27.2031 20.1784 27.646 20.4833 27.9578 20.9039C28.2696 21.3245 28.4325 21.837 28.4208 22.3605C28.4133 22.8911 28.2245 23.4031 27.8857 23.8116C27.5469 24.22 27.0785 24.5002 26.5584 24.6057C26.085 24.6883 25.6558 24.9351 25.3462 25.3026C25.0365 25.6702 24.8663 26.1351 24.8652 26.6157C24.8668 26.912 24.9326 27.2045 25.0583 27.473C25.184 27.7414 25.3664 27.9793 25.593 28.1703C25.8196 28.3614 26.085 28.5009 26.3708 28.5793C26.6566 28.6577 26.9561 28.6731 27.2484 28.6245C27.7908 28.5567 28.3401 28.6747 28.8068 28.959C29.2736 29.2434 29.6303 29.6775 29.8188 30.1905C29.9268 30.5025 29.976 30.8313 29.964 31.1613C29.9645 31.5267 29.8777 31.8869 29.7107 32.2119C29.5437 32.5369 29.3014 32.8173 29.004 33.0297C28.5803 33.3483 28.2968 33.8191 28.2133 34.3426C28.1298 34.8662 28.2528 35.4018 28.5564 35.8365C28.8324 36.2673 29.22 36.6165 29.6784 36.8457H42.1704C38.1984 34.8765 34.5048 31.1721 33.6012 25.9017C32.322 18.4329 35.8452 11.9217 41.7672 8.88086H29.0328C28.7494 9.30332 28.638 9.81808 28.7214 10.3199C28.8048 10.8218 29.0768 11.2728 29.4816 11.5809L29.4828 11.5797Z" fill="#E74F38"/>
<path d="M33.0816 37.2559H32.7168C32.8368 37.2907 32.9628 37.2907 33.0816 37.2559Z" fill="#3C9BD6"/>
</g>
<defs>
<clipPath id="clip0_87_2332">
<rect width="48" height="40.8" fill="white"/>
</clipPath>
</defs>
</svg>
