<svg width="53" height="36" viewBox="0 0 53 36" fill="none" xmlns="http://www.w3.org/2000/svg">
<g clip-path="url(#clip0_87_2293)">
<path d="M51.3287 5.63262C51.0324 4.54763 50.4553 3.5585 49.6547 2.76348C48.8541 1.96847 47.8579 1.39525 46.7651 1.10077C42.7106 0 26.4996 0 26.4996 0C26.4996 0 10.2886 0 6.23686 1.05923C4.06107 1.65185 2.26883 3.43108 1.67188 5.63262C0.603516 9.65631 0.603516 18 0.603516 18C0.603516 18 0.603516 26.3852 1.67049 30.3674C1.96678 31.4526 2.54406 32.4419 3.34492 33.237C4.14577 34.032 5.14232 34.6051 6.23546 34.8992C10.3304 36 26.4996 36 26.4996 36C26.4996 36 42.7106 36 46.7651 34.9408C47.8579 34.6463 48.8541 34.0731 49.6547 33.2781C50.4553 32.483 51.0324 31.4939 51.3287 30.4089C52.3957 26.3866 52.3957 18.0429 52.3957 18.0429C52.3957 18.0429 52.4375 9.65631 51.3287 5.63262Z" fill="#FF0000"/>
<path d="M21.3387 10.291V25.7073L34.8175 17.9992L21.3359 10.291H21.3387Z" fill="white"/>
</g>
<defs>
<clipPath id="clip0_87_2293">
<rect width="53" height="36" fill="white"/>
</clipPath>
</defs>
</svg>
