<svg width="45" height="45" viewBox="0 0 45 45" fill="none" xmlns="http://www.w3.org/2000/svg">
<g clip-path="url(#clip0_87_2314)">
<path d="M0 22.5C0 31.7125 5.54 39.6288 13.4675 43.1075C13.405 41.5375 13.4575 39.6513 13.86 37.9413L16.755 25.6813C16.755 25.6813 16.0363 24.2438 16.0363 22.1213C16.0363 18.7863 17.9687 16.2962 20.375 16.2962C22.4225 16.2962 23.4113 17.8338 23.4113 19.6738C23.4113 21.7313 22.0987 24.8088 21.4237 27.66C20.86 30.0463 22.62 31.9925 24.975 31.9925C29.2375 31.9925 32.1088 26.5175 32.1088 20.03C32.1088 15.0988 28.7875 11.4075 22.7463 11.4075C15.9213 11.4075 11.67 16.4975 11.67 22.1825C11.67 24.1438 12.2475 25.5263 13.1525 26.5963C13.5688 27.0875 13.6275 27.2863 13.4775 27.85C13.3687 28.2638 13.12 29.2613 13.0175 29.6563C12.8675 30.2263 12.4062 30.43 11.8925 30.2187C8.7475 28.9362 7.28375 25.4938 7.28375 21.6225C7.28375 15.2313 12.6737 7.5675 23.365 7.5675C31.955 7.5675 37.6087 13.7837 37.6087 20.4562C37.6087 29.2837 32.7012 35.8775 25.4688 35.8775C23.0387 35.8775 20.7538 34.565 19.9713 33.0725C19.9713 33.0725 18.665 38.2563 18.3888 39.2575C17.9113 40.9925 16.9775 42.7263 16.1238 44.0775C18.1488 44.675 20.2862 45.0012 22.5012 45.0012C34.925 45 45 34.925 45 22.5C45 10.075 34.925 0 22.5 0C10.075 0 0 10.0738 0 22.5Z" fill="#E20E22"/>
</g>
<defs>
<clipPath id="clip0_87_2314">
<rect width="45" height="45" fill="white"/>
</clipPath>
</defs>
</svg>
