<svg width="45" height="45" viewBox="0 0 45 45" fill="none" xmlns="http://www.w3.org/2000/svg">
<g clip-path="url(#clip0_87_2387)">
<path d="M25.375 0.8125C24.375 0.8125 23.375 1.3125 22.75 2.0625C18.25 7.8125 15.5 14.5625 14.375 21.3125C13.25 27.1875 13.75 34.6875 15.75 41.6875C16.125 43.0625 16.875 44.1875 22.5 44.1875C37.75 44.1875 44.625 38.1875 44.625 22.5625C44.625 7.1875 38.125 0.8125 25.375 0.8125ZM25 42.1875C24.125 42.6875 22.875 42.3125 22.5 41.4375C19.375 35.5625 18.375 28.9375 19.625 22.3125C20.875 15.6875 24.125 9.8125 29.125 5.3125C29.875 4.6875 31.125 4.6875 31.75 5.4375C32.5 6.1875 32.375 7.3125 31.625 8.0625C27.375 11.8125 24.375 16.9375 23.375 22.9375C22.25 28.8125 23.375 34.6875 25.875 39.6875V39.8125C26.25 40.5625 25.875 41.6875 25 42.1875ZM36.5 14.4375C33.375 16.9375 31.125 20.1875 30.375 24.0625C29.625 27.9375 30.375 31.8125 32.375 35.0625V35.1875C32.75 35.6875 32.5 36.4375 31.875 36.6875C31.25 36.9375 30.5 36.8125 30.125 36.1875C27.875 32.5625 27 28.1875 27.875 23.8125C28.75 19.4375 31.25 15.6875 34.75 12.8125L34.875 12.6875C35.375 12.3125 36.25 12.3125 36.625 12.8125C37.125 13.3125 37 14.0625 36.5 14.4375ZM7.125 38.9375C7.25 39.6875 6.375 40.1875 5.75 39.6875C2.375 36.6875 0.375 32.8125 0.375 22.4375C0.375 9.0625 5.625 3.3125 12.75 1.4375C13.5 1.1875 14 2.0625 13.625 2.5625C10.375 7.9375 8.125 13.8125 7 20.0625C5.875 26.3125 6 32.8125 7.125 38.9375Z" fill="#2160DF"/>
</g>
<defs>
<clipPath id="clip0_87_2387">
<rect width="45" height="45" fill="white"/>
</clipPath>
</defs>
</svg>
