<svg width="48" height="45" viewBox="0 0 48 45" fill="none" xmlns="http://www.w3.org/2000/svg">
<g clip-path="url(#clip0_87_2395)">
<path d="M22.9198 35.3337C31.1685 35.3337 37.5435 29.065 37.5435 21.3337C37.5435 14.09 31.5535 9.66749 27.5873 9.66749C22.061 9.66749 17.631 13.57 17.0035 19.3612C16.8873 20.43 16.041 21.3262 14.966 21.3175C13.186 21.305 10.6023 21.29 8.96477 21.2962C8.25602 21.2975 7.67102 20.7237 7.70602 20.0162C7.95227 14.995 9.62103 10.2987 12.8048 6.69249C16.341 2.68624 21.4898 0.33374 27.5873 0.33374C37.8298 0.33374 47.4998 9.69624 47.4998 21.3337C47.4998 34.22 36.8848 44.6662 23.1373 44.6662C13.3335 44.6662 3.45977 38.2225 0.0122748 29.2125C-0.000221505 29.179 -0.00324868 29.1426 0.00352479 29.1075C0.0485248 28.8412 0.141025 28.5975 0.229775 28.3575C0.361025 28.0087 0.488525 27.6687 0.469775 27.275L0.409775 26.0212C0.395602 25.7181 0.471801 25.4177 0.628702 25.1579C0.785602 24.8982 1.01613 24.691 1.29102 24.5625L1.78852 24.3287C2.06852 24.198 2.31314 24.0021 2.50191 23.7575C2.69067 23.5128 2.8181 23.2265 2.87352 22.9225C2.95518 22.4763 3.19083 22.0728 3.53941 21.7825C3.88798 21.4922 4.32738 21.3334 4.78102 21.3337C6.24477 21.3337 7.51852 22.3075 7.99352 23.6925C10.2935 30.4 13.9523 35.3337 22.9185 35.3337H22.9198Z" fill="#FB6970"/>
</g>
<defs>
<clipPath id="clip0_87_2395">
<rect width="47.5" height="45" fill="white"/>
</clipPath>
</defs>
</svg>
