<svg width="48" height="45" viewBox="0 0 48 45" fill="none" xmlns="http://www.w3.org/2000/svg">
<g clip-path="url(#clip0_87_2399)">
<mask id="mask0_87_2399" style="mask-type:luminance" maskUnits="userSpaceOnUse" x="0" y="0" width="48" height="45">
<path d="M0 0.921875H47.3684V44.0781H0V0.921875Z" fill="white"/>
</mask>
<g mask="url(#mask0_87_2399)">
<path d="M34.5523 31.8768C34.5759 32.0367 34.5392 31.7785 34.5523 31.8768C34.3213 32.3836 34.1141 32.8431 33.9069 33.3014C32.7961 35.7563 31.69 38.2111 30.5757 40.6624C30.3684 41.116 30.1316 41.5601 29.8936 41.9982C29.5857 42.5801 29.1127 43.058 28.5341 43.3719C27.2788 44.0469 25.943 44.2542 24.5516 43.9155C22.8866 43.5081 21.9629 42.357 21.5023 40.7714C21.2405 39.8678 21.1648 38.9323 20.999 38.0122C20.5655 35.5952 20.1451 33.1759 19.7176 30.7589L18.5323 24.0219C18.4798 23.6914 18.3997 23.3657 18.293 23.0485C18.2054 23.7602 18.1237 24.4743 18.029 25.1848C17.8158 26.7811 17.6903 28.3964 17.2142 29.9453C16.3071 32.9059 14.3129 34.7651 11.3725 35.6627C9.60804 36.2003 7.80331 36.3732 5.97015 36.3614C4.78002 36.3531 3.59344 36.359 2.40331 36.3555C0.907648 36.3507 -0.119063 35.2849 0.00646321 33.7952C0.103568 32.6643 0.248042 31.5334 0.425674 30.4131C0.632911 29.1034 1.49857 28.4035 2.82607 28.3999L8.17633 28.3881C8.76607 28.3881 9.18291 28.0459 9.26344 27.462C9.47896 25.8717 9.68383 24.2801 9.89107 22.6897C10.1007 21.0815 10.315 19.4745 10.5199 17.8664C10.7165 16.3151 10.9237 14.7661 11.0942 13.2124C11.2316 11.9359 11.9291 11.0998 13.1074 10.889C13.206 10.872 13.3058 10.8633 13.4058 10.863C16.5795 10.863 19.7508 10.8594 22.9245 10.863C24.0684 10.863 24.9483 11.6564 25.1555 12.8453C25.7086 16.0143 26.213 19.1892 26.7282 22.3628C27.0515 24.3511 27.3961 26.3323 27.7312 28.3324C27.8295 28.2768 27.8591 28.1785 27.9076 28.0956C33.0021 19.4805 38.1001 10.8653 43.184 2.24192C43.5795 1.56928 44.1195 1.1335 44.8549 0.917969H45.5595C45.9905 1.04586 46.3955 1.21165 46.7177 1.5456C47.3275 2.17442 47.5194 2.8956 47.2363 3.73165C46.7851 5.0781 46.1516 6.34876 45.5796 7.64665C45.1699 8.57626 44.7424 9.49994 44.3244 10.4284C44.2746 10.5409 44.2308 10.6557 44.168 10.8097C44.2865 10.8097 44.0804 10.8097 44.168 10.8097L34.5523 31.8768ZM20.8723 12.8667H18.9894C18.7016 12.8667 18.6471 12.9259 18.6969 13.2077C18.7584 13.5618 18.8236 13.9159 18.884 14.2699C19.2463 16.3849 19.6028 18.5011 19.9711 20.6173C20.3749 22.9455 20.7882 25.2724 21.1979 27.5994L22.2838 33.7692C22.5799 35.4543 22.8724 37.1406 23.1637 38.8293C23.2786 39.4948 23.3662 40.1674 23.6516 40.7915C23.9003 41.3339 24.2863 41.7282 24.8642 41.9165C25.3971 42.0882 25.9359 42.0669 26.4771 41.9757C27.2054 41.8502 27.8425 41.5731 28.2096 40.878C28.3576 40.5973 28.4998 40.3119 28.6324 40.0253C30.899 35.1097 33.0815 30.1573 35.354 25.2428C37.3813 20.8613 39.372 16.4631 41.3579 12.0626C42.6582 9.17547 44.0224 6.31915 45.2267 3.38823C45.2575 3.31007 45.2883 3.2331 45.312 3.15257C45.3333 3.07797 45.3309 2.99981 45.2492 2.956C45.1533 2.90389 45.1083 2.98323 45.0692 3.04244C45.0041 3.13836 44.9496 3.24376 44.8892 3.34323C39.8824 11.8151 34.8803 20.2857 29.8699 28.754C28.9462 30.3148 28.0817 31.9111 27.0751 33.4234C27.0219 33.5063 26.9626 33.5892 26.8975 33.6661C26.7767 33.8142 26.6678 33.7727 26.5837 33.6282C26.5494 33.5615 26.5266 33.4894 26.5162 33.4151C26.3824 32.6501 26.2438 31.8851 26.1183 31.1177C25.8258 29.313 25.5428 27.5059 25.2479 25.6999C24.8405 23.2202 24.4237 20.7393 24.0116 18.2595C23.7345 16.5969 23.4609 14.9319 23.1779 13.2681C23.1151 12.8915 23.0796 12.8702 22.7066 12.8702H20.8734L20.8711 12.8655L20.8723 12.8667ZM5.61844 30.4344C4.67107 30.4344 3.72725 30.438 2.77988 30.4297C2.57028 30.4297 2.4412 30.4842 2.41159 30.7044C2.27778 31.7584 2.14159 32.8088 2.0137 33.8627C1.97344 34.1872 2.03502 34.244 2.35949 34.2488C3.41462 34.257 4.47094 34.244 5.5237 34.2819C6.99449 34.334 8.44988 34.2606 9.89107 33.9527C11.022 33.7123 12.1008 33.3511 13.0351 32.6442C14.4219 31.5961 15.1513 30.1526 15.5173 28.4994C15.7162 27.5994 15.7813 26.6805 15.9009 25.7686C16.1105 24.1628 16.3201 22.5535 16.5274 20.9477C16.7204 19.4639 16.9111 17.9813 17.1053 16.4986C17.2462 15.4305 17.3895 14.3611 17.5269 13.2906C17.5742 12.9199 17.5198 12.8726 17.1384 12.8726H13.5976C13.2495 12.8726 13.1619 12.9436 13.1192 13.2811C12.9795 14.399 12.8469 15.5193 12.7048 16.6384C12.5142 18.1386 12.3215 19.6386 12.1269 21.1384C11.9374 22.5867 11.7408 24.0373 11.5501 25.4868C11.4483 26.266 11.3891 27.0499 11.2446 27.822C10.9474 29.4053 9.67791 30.4297 8.07923 30.4297H5.61844V30.4332V30.4344Z" fill="#020101"/>
<path d="M20.8756 12.8679H22.7088C23.0818 12.8679 23.1173 12.8892 23.1801 13.2658C23.4607 14.9296 23.7343 16.5935 24.0138 18.2573C24.4259 20.7382 24.8427 23.2179 25.2489 25.6977C25.5473 27.5036 25.8268 29.3107 26.1205 31.1166C26.246 31.884 26.3846 32.6478 26.5184 33.4128C26.5291 33.4871 26.5519 33.5591 26.5859 33.626C26.6688 33.7704 26.7789 33.8131 26.8997 33.6639C26.9624 33.5856 27.0217 33.5046 27.0773 33.4211C28.0839 31.9089 28.9484 30.3125 29.8721 28.7517C34.8824 20.2846 39.8869 11.8128 44.8902 3.34214C44.9494 3.24148 45.0039 3.13609 45.0714 3.04017C45.1105 2.98095 45.1543 2.90398 45.2514 2.95372C45.3331 2.99872 45.3343 3.07569 45.3142 3.15148C45.2905 3.23082 45.2597 3.3078 45.2277 3.38595C44.0234 6.31451 42.6603 9.17319 41.3589 12.0591C39.3798 16.4634 37.3785 20.8577 35.3549 25.2417C33.0836 30.1562 30.9011 35.1062 28.6346 40.0231C28.5019 40.312 28.3598 40.595 28.2106 40.8757C27.8435 41.5708 27.2076 41.8467 26.4793 41.9735C25.9381 42.0658 25.3981 42.086 24.8664 41.9142C24.2873 41.7283 23.9024 41.3328 23.6538 40.7892C23.366 40.1652 23.2784 39.4937 23.1647 38.827C22.8746 37.1407 22.5809 35.452 22.2848 33.7669C21.9248 31.7099 21.5624 29.6541 21.2001 27.5971C20.7892 25.2702 20.3771 22.9432 19.9732 20.6138C19.6061 18.4988 19.2485 16.3827 18.8861 14.2665C18.8246 13.9136 18.7594 13.5595 18.699 13.2054C18.6517 12.9248 18.7038 12.8644 18.9903 12.8644H20.8732L20.8756 12.8679Z" fill="#EC3725"/>
<path d="M5.61761 30.4352H8.0784C9.67708 30.4352 10.9442 29.4097 11.2438 27.8264C11.3883 27.0567 11.4475 26.2704 11.5493 25.4912C11.74 24.0417 11.9377 22.5922 12.126 21.1427C12.3226 19.6435 12.5156 18.1431 12.7039 16.6427C12.846 15.5248 12.9787 14.4046 13.1184 13.2855C13.161 12.9504 13.2487 12.877 13.5956 12.877H17.1388C17.5189 12.877 17.5722 12.9255 17.526 13.2962C17.3898 14.3643 17.2454 15.4325 17.1044 16.503L16.5266 20.9521L15.9001 25.7742C15.7817 26.686 15.7154 27.605 15.5164 28.5038C15.1493 30.1605 14.421 31.6017 13.0343 32.6485C12.0988 33.3543 11.0212 33.7167 9.89024 33.9583C8.44906 34.2662 6.99366 34.3396 5.52287 34.2863C4.46892 34.2484 3.41498 34.2626 2.35866 34.2531C2.03419 34.2508 1.97261 34.1927 2.01287 33.8683C2.14077 32.8143 2.27814 31.7627 2.41077 30.7088C2.438 30.4885 2.56945 30.4329 2.77906 30.4341C3.72642 30.4435 4.67024 30.4388 5.61761 30.4388V30.4352Z" fill="#E66C24"/>
</g>
</g>
<defs>
<clipPath id="clip0_87_2399">
<rect width="47.3684" height="45" fill="white"/>
</clipPath>
</defs>
</svg>
