<svg width="52" height="30" viewBox="0 0 52 30" fill="none" xmlns="http://www.w3.org/2000/svg">
<path d="M0 15.0801V15.0008C0 7.32935 5.80667 1.05078 14.0692 1.05078C19.0916 1.05078 22.1368 2.78542 24.7455 5.25078L21.6667 8.75757C19.4837 6.75078 17.1492 5.40185 14.0259 5.40185C8.84325 5.40185 5.02342 9.63828 5.02342 14.9215V15.0008C5.02342 20.2765 8.79992 24.5569 14.0259 24.5569C17.3734 24.5569 19.5195 23.2444 21.8541 21.0865L24.934 24.1701C22.0935 27.1015 18.9757 28.9508 13.8667 28.9508C5.9215 28.9508 0 22.8222 0 15.0801Z" fill="#10069F"/>
<path d="M29.2832 1.50781H41.5184C44.6351 1.50781 47.0921 2.35424 48.651 3.89496C49.8611 5.09281 50.4851 6.55531 50.4851 8.36817V8.44746C50.4851 11.6875 48.6142 13.4157 46.5851 14.4625C49.781 15.5446 51.9996 17.351 51.9996 21.0142V21.0925C51.9996 25.9107 47.9837 28.4907 41.9095 28.4907H29.2832V1.50781ZM45.686 9.14281C45.686 7.02138 43.9689 5.71638 40.8955 5.71638H34.0022V12.8842H40.5466C43.6276 12.8842 45.6925 11.6875 45.6925 9.2221V9.14281H45.686ZM41.5996 16.885H34.0033V24.2832H41.955C45.231 24.2832 47.2167 23.0146 47.2167 20.5835V20.5117C47.2091 18.2328 45.375 16.885 41.5996 16.885Z" fill="#A7A9AC"/>
</svg>
