<svg width="52" height="45" viewBox="0 0 52 45" fill="none" xmlns="http://www.w3.org/2000/svg">
<path d="M31.178 15.3497C32.6296 15.3497 33.9102 16.6303 33.9102 18.0806C33.9102 19.6183 32.6296 20.814 31.178 20.814H28.4459V38.5723H32.5447C34.7184 38.5716 36.8028 37.7078 38.3397 36.1708C39.8767 34.6339 40.7405 32.5495 40.7412 30.3758V29.8641L40.0572 30.4607C39.8817 30.6618 39.6652 30.8229 39.4223 30.9334C39.1793 31.0438 38.9155 31.1009 38.6487 31.1009C38.3818 31.1009 38.118 31.0438 37.8751 30.9334C37.6321 30.8229 37.4156 30.6618 37.2402 30.4607C36.3865 29.6931 36.3865 28.4126 37.2402 27.5588L42.0217 22.776C42.3975 22.4067 42.9034 22.1998 43.4302 22.1998C43.9571 22.1998 44.4629 22.4067 44.8387 22.776L49.6203 27.5588C50.474 28.4126 50.474 29.6931 49.6203 30.4607C49.4448 30.662 49.2283 30.8233 48.9852 30.9339C48.7421 31.0445 48.4782 31.1017 48.2112 31.1017C47.9441 31.1017 47.6802 31.0445 47.4371 30.9339C47.1941 30.8233 46.9775 30.662 46.802 30.4607L46.2042 29.8641V30.3758C46.2042 37.9744 40.0585 44.0366 32.5447 44.0366H18.884C17.0874 44.0459 15.3067 43.699 13.645 43.0158C11.9833 42.3326 10.4736 41.3268 9.2031 40.0564C7.93261 38.786 6.92661 37.2764 6.24327 35.6147C5.55993 33.9531 5.21283 32.1725 5.22203 30.3758V29.8641L4.5406 30.4607C4.36513 30.662 4.14857 30.8233 3.9055 30.9339C3.66243 31.0445 3.39849 31.1017 3.13146 31.1017C2.86443 31.1017 2.60049 31.0445 2.35742 30.9339C2.11435 30.8233 1.89779 30.662 1.72232 30.4607C0.868603 29.6931 0.868603 28.4126 1.72232 27.5588L6.50389 22.776C6.8797 22.4067 7.3855 22.1998 7.91239 22.1998C8.43927 22.1998 8.94508 22.4067 9.32089 22.776L14.1025 27.5588C14.9562 28.4126 14.9562 29.6931 14.1025 30.4607C13.927 30.662 13.7104 30.8233 13.4674 30.9339C13.2243 31.0445 12.9604 31.1017 12.6933 31.1017C12.4263 31.1017 12.1623 31.0445 11.9193 30.9339C11.6762 30.8233 11.4596 30.662 11.2842 30.4607L10.6876 29.8641V30.3758C10.6876 34.9016 14.2735 38.5723 18.8827 38.5723H22.9816V20.8127H20.2495C19.8894 20.8174 19.532 20.7499 19.1984 20.6142C18.8648 20.4786 18.5618 20.2775 18.3071 20.0229C18.0525 19.7682 17.8514 19.4652 17.7158 19.1316C17.5801 18.798 17.5127 18.4406 17.5173 18.0806C17.5173 16.6303 18.713 15.3497 20.2495 15.3497H21.1032C19.9916 14.592 19.0832 13.5727 18.4579 12.3816C17.8327 11.1905 17.5097 9.86394 17.5173 8.51869C17.5173 3.99298 21.1045 0.322266 25.7137 0.322266C27.8874 0.322947 29.9718 1.18672 31.5087 2.7237C33.0457 4.26068 33.9095 6.34508 33.9102 8.51869C33.9102 11.4218 32.3737 13.8981 30.2395 15.3497H31.178ZM25.7137 11.2508C27.1653 11.2508 28.4459 10.0551 28.4459 8.51869C28.4459 7.06712 27.1653 5.78655 25.7137 5.78655C24.1773 5.78655 22.9816 7.06712 22.9816 8.51869C22.9816 10.0551 24.1773 11.2508 25.7137 11.2508Z" fill="#674197"/>
</svg>
