<svg width="45" height="45" viewBox="0 0 45 45" fill="none" xmlns="http://www.w3.org/2000/svg">
<g clip-path="url(#clip0_87_2372)">
<mask id="mask0_87_2372" style="mask-type:luminance" maskUnits="userSpaceOnUse" x="0" y="0" width="45" height="45">
<path d="M0.046875 0H44.9524V45H0.046875V0Z" fill="white"/>
</mask>
<g mask="url(#mask0_87_2372)">
<path d="M34.7465 10.7366C31.5796 10.7366 28.6805 10.7478 25.7836 10.7287C25.2065 10.7242 24.9376 11.1146 24.6338 11.4723C22.5278 13.9417 20.4297 16.4178 18.3237 18.8894C18.1966 19.0379 18.0312 19.1549 17.8861 19.2866C17.5407 19.0188 17.6768 18.6858 17.6768 18.4023C17.6678 12.7931 17.6768 7.18493 17.66 1.57343C17.6577 0.860177 17.786 0.517051 18.6162 0.360676C30.4591 -1.84995 42.3796 6.28943 44.5317 18.1571C45.8277 25.3053 44.138 31.6931 39.4478 37.2776C38.8662 37.9694 38.5703 38.0628 38.0101 37.2112C34.2839 31.5606 30.5317 25.9273 26.7533 20.3114C26.3798 19.7523 26.4248 19.4002 26.8951 18.9164C29.468 16.2761 32.006 13.5986 34.7442 10.7377H34.7465V10.7366Z" fill="#6BCAE6"/>
<path d="M10.5075 18.8373C10.5075 23.5567 10.5221 28.2783 10.4928 32.9977C10.4883 33.7683 10.6447 34.0934 11.502 34.0608C13.2772 33.9933 15.0581 34.0135 16.8345 34.054C17.5196 34.0709 17.721 33.8369 17.7007 33.1709C17.6568 31.804 17.6861 30.4338 17.6883 29.068C17.6883 28.762 17.622 28.42 17.8481 28.1782C18.9225 27.0295 19.9856 25.8685 21.1128 24.7739C21.5977 24.3037 21.7294 24.9629 21.8891 25.2115C23.4326 27.592 24.9536 29.9883 26.4735 32.3823C28.3983 35.4108 30.2985 38.4573 32.2593 41.4633C32.7442 42.2069 32.769 42.5523 31.8712 42.9573C17.4487 49.4305 1.44897 39.7477 0.146224 24.6445C-0.562526 16.4118 2.4581 9.7484 8.88297 4.59478C9.06972 4.44515 9.25422 4.28878 9.46235 4.17403C9.75035 4.01428 10.0023 3.59915 10.332 3.74878C10.6852 3.91078 10.4962 4.36078 10.4962 4.6769C10.5063 9.3974 10.5041 14.1179 10.5041 18.8373H10.5063H10.5075Z" fill="#767676"/>
</g>
</g>
<defs>
<clipPath id="clip0_87_2372">
<rect width="45" height="45" fill="white"/>
</clipPath>
</defs>
</svg>
