<svg width="45" height="45" viewBox="0 0 45 45" fill="none" xmlns="http://www.w3.org/2000/svg">
<g clip-path="url(#clip0_87_2329)">
<path d="M23.7101 25.6154H29.3868C31.0012 25.6154 32.0227 24.7289 32.0227 23.3024C32.0227 21.9569 31.0012 20.9883 29.3868 20.9883H23.7101C23.5222 20.9883 23.3613 21.1492 23.3613 21.3112V25.2925C23.3861 25.4804 23.52 25.6154 23.7101 25.6154ZM23.7101 34.7887H29.5747C31.377 34.7887 32.4525 33.874 32.4525 32.2597C32.4525 30.8602 31.431 29.7307 29.5747 29.7307H23.7101C23.5222 29.7307 23.3613 29.8915 23.3613 30.0535V34.4399C23.3861 34.6548 23.52 34.7887 23.7101 34.7887Z" fill="#34313F"/>
<path d="M44.4776 0.114329L27.6893 16.8476H30.4343C34.7115 16.8476 37.2405 19.5375 37.2405 22.4703C37.2405 24.7845 35.6801 26.4776 34.0118 27.2325C33.7418 27.3405 33.7418 27.7162 34.0388 27.8231C35.9749 28.5768 37.3463 30.594 37.3463 32.961C37.3463 36.2966 35.1143 38.9595 30.783 38.9595H18.8929C18.705 38.9595 18.5441 38.7986 18.5441 38.6355V25.9657L0.11552 44.3133C-0.126355 44.5563 0.0345203 44.9861 0.38552 44.9861H44.6925C44.7707 44.9852 44.8455 44.9537 44.9008 44.8984C44.9561 44.8432 44.9875 44.7684 44.9884 44.6902V0.357329C45.0683 0.0603295 44.6925 -0.100546 44.4776 0.114329Z" fill="#34313F"/>
</g>
<defs>
<clipPath id="clip0_87_2329">
<rect width="45" height="45" fill="white"/>
</clipPath>
</defs>
</svg>
