<svg width="56" height="28" viewBox="0 0 56 28" fill="none" xmlns="http://www.w3.org/2000/svg">
<g clip-path="url(#clip0_87_2361)">
<mask id="mask0_87_2361" style="mask-type:luminance" maskUnits="userSpaceOnUse" x="0" y="0" width="56" height="28">
<path d="M0 0.591797H56V27.4093H0V0.591797Z" fill="white"/>
</mask>
<g mask="url(#mask0_87_2361)">
<path d="M51.4715 2.52723C52.8177 3.46415 54.1477 4.38707 55.5294 5.34661C55.4282 5.54261 55.3366 5.72031 55.244 5.89584C53.5589 9.06845 51.6628 12.1244 49.5686 15.0432C49.21 15.5429 49.2262 15.8272 49.6128 16.3215C51.6654 18.9385 53.6598 21.5985 55.6737 24.2477C55.7857 24.3952 55.8762 24.56 56 24.7528L51.9098 27.3578L46.5812 19.0548C45.3148 20.4882 44.1409 21.8709 42.9057 23.1988C41.6683 24.5277 40.3749 25.8028 39.0955 27.0908C38.9609 27.2275 38.7563 27.3772 38.5829 27.3794C37.0537 27.4009 35.5212 27.3912 33.95 27.3912L32.9635 22.7518C31.5786 22.7518 30.2368 22.7411 28.8971 22.7691C28.7678 22.7712 28.5665 22.9888 28.5331 23.1374C28.2477 24.3898 27.9946 25.6477 27.7286 26.9045C27.6985 27.0509 27.6554 27.1952 27.6134 27.3654H18.1925V13.0606L18.0805 13.0434C18.0094 13.2491 17.9318 13.4537 17.8694 13.6626C16.5674 18.0425 15.2611 22.4202 13.9817 26.8054C13.8428 27.2771 13.6403 27.4192 13.1632 27.4052C11.9523 27.3694 10.7406 27.3694 9.52969 27.4052C9.06231 27.4203 8.88677 27.2728 8.76508 26.8248C7.53738 22.3857 6.28385 17.9531 5.03677 13.5172C4.99841 13.3447 4.91773 13.1845 4.802 13.0509V27.3632H0V5.77954C0.178769 5.76877 0.358615 5.74615 0.538462 5.74507C2.58354 5.74292 4.62754 5.75907 6.67046 5.73107C7.12277 5.72569 7.28431 5.8883 7.39523 6.29646C8.66815 10.9208 9.95615 15.5386 11.242 20.1597L11.3529 20.5528C11.4682 20.2082 11.5392 20.01 11.5985 19.8118C12.9252 15.3017 14.2552 10.7926 15.5712 6.27923C15.68 5.90661 15.8125 5.72569 16.2529 5.73215C18.3152 5.76015 20.3775 5.74292 22.4409 5.74615C22.6068 5.74615 22.7715 5.76554 22.9772 5.77846V25.5325L23.0978 25.5497C23.2357 24.8174 23.3778 24.0851 23.5103 23.3528C24.5345 17.6451 25.5618 11.9374 26.5688 6.22754C26.6377 5.83984 26.7788 5.73431 27.1503 5.73861C29.3472 5.75261 31.542 5.74507 33.7357 5.74507H34.5122C34.0566 5.32292 33.726 5.002 33.3792 4.70046C32.4746 3.92292 31.5808 3.13569 30.6482 2.39369C30.3294 2.13954 30.2798 1.93061 30.4565 1.59031C30.6126 1.29092 30.7268 0.968921 30.8883 0.589844C33.7525 2.12709 36.4968 3.8781 39.0977 5.828C41.7128 7.78993 44.1493 9.97922 46.3788 12.3703C47.2899 10.7 48.1902 9.11154 49.028 7.49184C49.8669 5.87 50.6434 4.21477 51.4694 2.52723H51.4715ZM34.9828 6.19092L38.1295 23.7265L38.3072 23.7695L43.7543 15.8865C40.9974 12.5458 38.2114 9.29246 34.9828 6.19092ZM30.8474 9.38184L30.716 9.384L29.0877 19.6266H32.4789L30.8474 9.38184Z" fill="#FF0000"/>
</g>
</g>
<defs>
<clipPath id="clip0_87_2361">
<rect width="56" height="28" fill="white"/>
</clipPath>
</defs>
</svg>
