<svg width="45" height="45" viewBox="0 0 45 45" fill="none" xmlns="http://www.w3.org/2000/svg">
<g clip-path="url(#clip0_87_2418)">
<path d="M16.8752 2.8125C16.8752 1.3185 18.106 0 19.6877 0H25.3127C26.8067 0 28.1252 1.3185 28.1252 2.8125V4.39425C34.0135 6.23925 38.7599 10.9867 40.606 16.875H42.1877C43.6817 16.875 45.0002 18.1935 45.0002 19.6875V25.3125C45.0002 26.8943 43.6817 28.125 42.1877 28.125H40.606C38.761 34.1021 34.0135 38.8474 28.1252 40.6935V42.1875C28.1252 43.7693 26.8067 45 25.3127 45H19.6877C19.3171 45.0048 18.9492 44.9354 18.6057 44.7958C18.2623 44.6561 17.9504 44.4492 17.6882 44.187C17.4261 43.9249 17.2191 43.6129 17.0795 43.2695C16.9398 42.9261 16.8704 42.5582 16.8752 42.1875V40.6935C13.9193 39.7726 11.2311 38.1476 9.04186 35.9584C6.85259 33.7691 5.22766 31.081 4.30674 28.125H2.81274C2.44205 28.1298 2.07416 28.0604 1.73074 27.9208C1.38733 27.7811 1.07535 27.5742 0.813218 27.312C0.551083 27.0499 0.344098 26.7379 0.204469 26.3945C0.0648412 26.0511 -0.00460175 25.6832 0.000236493 25.3125V19.6875C0.000236493 18.1935 1.23099 16.875 2.81274 16.875H4.30674C6.15174 10.9867 10.8992 6.24037 16.8752 4.39425V2.8125ZM24.6096 7.73438V3.51562H20.3909V7.73438H24.6096ZM8.78874 16.9628C10.1961 17.1383 11.2502 18.2812 11.2502 19.6875V25.3125C11.2502 26.8065 10.195 27.9495 8.78874 28.125C9.52357 29.9474 10.6185 31.6029 12.0079 32.9923C13.3974 34.3818 15.0528 35.4767 16.8752 36.2115C17.0507 34.8052 18.1937 33.75 19.6877 33.75H25.3127C26.719 33.75 27.862 34.8052 28.0375 36.2115C29.8597 35.4765 31.5149 34.3816 32.9042 32.9921C34.2934 31.6027 35.3882 29.9473 36.1229 28.125C34.7177 27.9495 33.7502 26.8065 33.7502 25.3125V19.6875C33.7502 18.2812 34.7177 17.1383 36.124 16.9628C35.389 15.1405 34.2941 13.4853 32.9046 12.0961C31.5152 10.7068 29.8598 9.61208 28.0375 8.87737C27.946 9.53504 27.6198 10.1375 27.119 10.5735C26.6183 11.0095 25.9767 11.2498 25.3127 11.25H19.6877C18.1937 11.25 17.0507 10.1947 16.8752 8.87625C15.0528 9.61109 13.3974 10.706 12.0079 12.0954C10.6185 13.4849 9.52357 15.1403 8.78874 16.9628ZM37.2659 20.3906V24.6094H41.4846V20.3906H37.2659ZM20.3909 37.2656V41.4844H24.6096V37.2656H20.3909ZM3.51586 20.3906V24.6094H7.73461V20.3906H3.51586Z" fill="black"/>
</g>
<defs>
<clipPath id="clip0_87_2418">
<rect width="45" height="45" fill="white"/>
</clipPath>
</defs>
</svg>
