<svg width="45" height="45" viewBox="0 0 45 45" fill="none" xmlns="http://www.w3.org/2000/svg">
<g clip-path="url(#clip0_87_2391)">
<path fill-rule="evenodd" clip-rule="evenodd" d="M28.9786 18.4653C29.3765 19.6614 30.492 20.3778 31.7674 20.3778C32.0859 20.3778 32.4045 20.2985 32.723 20.2179C34.2376 19.6614 35.0346 17.9869 34.4757 16.4735C33.52 13.8445 31.5282 11.7721 28.7394 10.4967C27.3053 9.85964 25.5515 10.4967 24.835 11.9308C24.1967 13.3649 24.835 15.1187 26.2679 15.8352C27.7032 16.3929 28.66 17.3498 28.9786 18.4641V18.4653ZM28.0217 0.0579288C26.4278 -0.261808 24.9144 0.774376 24.597 2.36832C24.2773 3.96227 25.3134 5.47569 26.9074 5.79543C33.5212 7.14898 38.0626 11.5317 39.1794 17.9869C39.4186 19.421 40.6928 20.3778 42.0475 20.3778C42.2074 20.3778 42.3673 20.3778 42.5259 20.2973C44.1199 19.9787 45.1549 18.4653 44.9169 16.9507C43.3217 8.18517 37.0265 1.81174 28.0217 0.059113V0.0579288Z" fill="#FF9E1A"/>
<path fill-rule="evenodd" clip-rule="evenodd" d="M20.6097 29.2221C17.9807 29.2221 15.7497 27.0704 15.7497 24.3609C15.7497 21.7319 17.9002 19.5009 20.6097 19.5009C20.9972 19.5018 21.381 19.4262 21.7392 19.2783C22.0974 19.1305 22.4228 18.9133 22.6968 18.6393C22.9708 18.3653 23.188 18.0399 23.3358 17.6817C23.4837 17.3236 23.5593 16.9397 23.5584 16.5522C23.5593 16.1647 23.4837 15.7809 23.3358 15.4227C23.188 15.0645 22.9708 14.7391 22.6968 14.4651C22.4228 14.1911 22.0974 13.9739 21.7392 13.8261C21.381 13.6782 20.9972 13.6026 20.6097 13.6035C18.4978 13.6035 16.4333 14.2298 14.6773 15.4031C12.9213 16.5764 11.5527 18.2441 10.7445 20.1952C9.93627 22.1464 9.72481 24.2934 10.1368 26.3647C10.5488 28.4361 11.5658 30.3387 13.0592 31.8321C14.5525 33.3254 16.4552 34.3424 18.5265 34.7544C20.5978 35.1664 22.7448 34.955 24.696 34.1468C26.6471 33.3386 28.3148 31.9699 29.4881 30.2139C30.6614 28.4579 31.2877 26.3935 31.2877 24.2815C31.2886 23.8941 31.213 23.5102 31.0652 23.152C30.9173 22.7939 30.7001 22.4684 30.4261 22.1944C30.1521 21.9204 29.8267 21.7033 29.4685 21.5554C29.1104 21.4076 28.7265 21.3319 28.339 21.3329C27.9515 21.3319 27.5677 21.4076 27.2095 21.5554C26.8513 21.7033 26.5259 21.9204 26.2519 22.1944C25.9779 22.4684 25.7607 22.7939 25.6129 23.152C25.465 23.5102 25.3894 23.8941 25.3903 24.2815C25.4709 27.0704 23.3191 29.2221 20.6097 29.2221Z" fill="#1856ED"/>
<path fill-rule="evenodd" clip-rule="evenodd" d="M38.3016 21.4937C37.9141 21.4927 37.5302 21.5684 37.172 21.7162C36.8139 21.8641 36.4884 22.0812 36.2144 22.3552C35.9404 22.6292 35.7233 22.9547 35.5754 23.3128C35.4276 23.671 35.3519 24.0549 35.3529 24.4423C35.3529 32.5696 28.739 39.1834 20.6106 39.1834C12.4834 39.1834 5.86958 32.5696 5.86958 24.4412C5.86958 16.3139 12.4834 9.70011 20.6106 9.70011C20.9981 9.70105 21.382 9.62542 21.7401 9.47756C22.0983 9.32971 22.4238 9.11255 22.6978 8.83855C22.9717 8.56455 23.1889 8.23912 23.3368 7.88095C23.4846 7.52277 23.5602 7.13892 23.5593 6.75143C23.5602 6.36394 23.4846 5.98008 23.3368 5.62191C23.1889 5.26373 22.9717 4.9383 22.6978 4.6643C22.4238 4.39031 22.0983 4.17314 21.7401 4.02529C21.382 3.87744 20.9981 3.80181 20.6106 3.80274C9.29668 3.80274 0.0527345 13.0467 0.0527345 24.4423C0.0515503 35.7563 9.29431 45.0002 20.6094 45.0002C31.9246 45.0002 41.1685 35.7563 41.1685 24.4423C41.1685 22.7679 39.8943 21.4937 38.3016 21.4937Z" fill="#1856ED"/>
</g>
<defs>
<clipPath id="clip0_87_2391">
<rect width="45" height="45" fill="white"/>
</clipPath>
</defs>
</svg>
