<svg width="43" height="45" viewBox="0 0 43 45" fill="none" xmlns="http://www.w3.org/2000/svg">
<g clip-path="url(#clip0_87_2306)">
<path d="M30.6942 16.2444C33.7012 18.3946 37.3067 19.5479 41.0034 19.542V12.148C40.2756 12.1484 39.5498 12.0725 38.8378 11.9216V17.742C35.1416 17.7475 31.5367 16.5943 28.53 14.4444V29.532C28.53 37.0808 22.4072 43.1994 14.8556 43.1994C12.1442 43.204 9.49319 42.399 7.24219 40.8875C8.51454 42.1915 10.0353 43.2274 11.7147 43.9338C13.394 44.6403 15.1979 45.0031 17.0198 45.0008C24.5714 45.0008 30.6942 38.8822 30.6942 31.332V16.2458V16.2444ZM33.3661 8.78422C31.8383 7.12051 30.8995 5.00085 30.6942 2.75141V1.80078H28.6425C28.8956 3.23095 29.4469 4.59184 30.2605 5.79499C31.0741 6.99814 32.1331 8.01662 33.3661 8.78422ZM12.0178 35.0966C11.2137 34.0384 10.7676 32.7517 10.7442 31.4229C10.7208 30.0941 11.1214 28.7924 11.8877 27.7067C12.6541 26.6209 13.7464 25.8075 15.0063 25.3845C16.2662 24.9615 17.628 24.9508 18.8944 25.3541V17.7941C18.1772 17.6956 17.4544 17.6534 16.7302 17.6689V23.5527C15.2311 23.074 13.6066 23.1781 12.1809 23.8442C10.7551 24.5104 9.63293 25.6895 9.03819 27.1465C8.44344 28.6034 8.41986 30.2311 8.97215 31.7046C9.52443 33.1782 10.612 34.3894 12.0178 35.0966Z" fill="#FF004F"/>
<path d="M28.5294 14.4444C31.5364 16.5945 35.1419 17.7478 38.8386 17.742V11.9202C36.7323 11.4699 34.8191 10.3736 33.3655 8.78422C32.1328 8.01647 31.0754 6.99793 30.2621 5.79479C29.4487 4.59165 28.8977 3.23083 28.6447 1.80078H23.2559V31.332C23.2528 32.6404 22.8395 33.9148 22.074 34.9759C21.3086 36.0369 20.2296 36.8312 18.9891 37.2468C17.7485 37.6625 16.4088 37.6786 15.1586 37.2928C13.9084 36.9071 12.8107 36.1389 12.02 35.0966C10.7619 34.4646 9.75402 33.4264 9.15958 32.1501C8.56514 30.8738 8.41898 29.4342 8.74476 28.0645C9.07055 26.6948 9.84921 25.4752 10.9546 24.6032C12.06 23.7313 13.4274 23.258 14.8353 23.2602C15.4963 23.2602 16.1347 23.3628 16.7338 23.5527V17.6689C9.31439 17.8236 3.34767 23.8817 3.34767 31.3334C3.34258 34.9065 4.7421 38.3384 7.24439 40.8889C9.49535 42.4005 12.1464 43.2055 14.8578 43.2008C22.4094 43.2008 28.5308 37.0822 28.5308 29.5334L28.5294 14.4444Z" fill="black"/>
<path d="M38.8402 11.9208V10.3458C36.9055 10.3492 35.0089 9.80827 33.367 8.78484C34.8206 10.3749 36.7332 11.4713 38.8402 11.9208ZM28.6448 1.8C28.5958 1.51852 28.5583 1.23516 28.5323 0.950625V0H21.0905V29.5327C21.0869 30.5986 20.8109 31.646 20.2887 32.5753C19.7665 33.5046 19.0155 34.285 18.1068 34.8423C17.1982 35.3997 16.1622 35.7156 15.0971 35.7599C14.0321 35.8043 12.9734 35.5757 12.0216 35.0958C12.8124 36.1375 13.9099 36.9051 15.1597 37.2905C16.4094 37.6759 17.7486 37.6598 18.9888 37.2444C20.2289 36.829 21.3076 36.0352 22.0731 34.9747C22.8386 33.9143 23.2523 32.6405 23.2561 31.3327V1.8H28.6448ZM16.7339 17.6695V15.9933C16.1122 15.9085 15.4854 15.8662 14.858 15.8667C7.30641 15.8667 1.1836 21.9853 1.1836 29.5312C1.18218 31.7765 1.73455 33.9874 2.79176 35.9681C3.84897 37.9489 5.3784 39.6383 7.24453 40.8867C4.74276 38.336 3.34376 34.9041 3.34922 31.3313C3.34922 23.8795 9.31453 17.8228 16.7339 17.6695Z" fill="#00F2EA"/>
</g>
<defs>
<clipPath id="clip0_87_2306">
<rect width="42.1875" height="45" fill="white"/>
</clipPath>
</defs>
</svg>
