<svg width="45" height="45" viewBox="0 0 45 45" fill="none" xmlns="http://www.w3.org/2000/svg">
<g clip-path="url(#clip0_87_2351)">
<mask id="mask0_87_2351" style="mask-type:luminance" maskUnits="userSpaceOnUse" x="0" y="0" width="45" height="45">
<path d="M0.00390625 0H44.9983V45H0.00390625V0Z" fill="white"/>
</mask>
<g mask="url(#mask0_87_2351)">
<path d="M25.2055 24.9807C25.498 24.092 25.7747 23.2527 26.0526 22.4146C26.6522 20.5989 27.2552 18.7831 27.8492 16.9651C27.8976 16.8189 27.9595 16.7727 28.1125 16.7739C28.6903 16.7826 29.2683 16.7826 29.8461 16.7739C29.9834 16.7739 30.043 16.8166 30.0857 16.9471C30.952 19.5864 31.8227 22.2234 32.6935 24.8615C32.7036 24.8907 32.7171 24.9189 32.7452 24.983L33.1019 23.8805C33.841 21.5832 34.5824 19.286 35.3181 16.9865C35.3586 16.8582 35.4092 16.8087 35.5499 16.811C36.3599 16.8177 37.171 16.8177 37.9821 16.811C38.125 16.811 38.1475 16.8414 38.1002 16.9775C36.7064 20.9937 35.3159 25.0122 33.9276 29.0307C33.8849 29.1556 33.832 29.2085 33.6914 29.2062C33.0944 29.1975 32.4973 29.1975 31.9004 29.2062C31.7631 29.2085 31.7069 29.1646 31.6641 29.0364C30.8012 26.5074 29.935 23.9806 29.0699 21.4539C29.0534 21.4057 29.0365 21.3577 29.0192 21.3099C28.9416 21.338 28.9495 21.4111 28.9304 21.4651C28.07 23.9741 27.2131 26.4844 26.3597 28.9959C26.3069 29.1489 26.2439 29.2119 26.074 29.2074C25.5149 29.1961 24.9557 29.1939 24.3966 29.2085C24.2009 29.2141 24.1176 29.1556 24.0535 28.9689C22.7321 25.1063 21.426 21.2385 20.1351 17.3656C18.6729 12.9949 17.2272 8.61859 15.7982 4.23686C15.7465 4.07936 15.6464 4.02761 15.4979 4.08498C12.6124 5.17708 10.0278 6.93924 7.95699 9.22623C5.49404 11.9042 3.83305 15.2204 3.16337 18.7966C2.94829 19.9186 2.83272 21.0574 2.81799 22.1997C2.77074 25.3835 3.43899 28.4075 4.86324 31.2526C6.74199 35.0101 9.54662 37.8822 13.2422 39.8836C15.2492 40.9715 17.4014 41.6229 19.6356 42.0267C20.539 42.191 21.4502 42.2855 22.3694 42.29C22.4954 42.29 22.5415 42.3417 22.5752 42.4509C22.8137 43.217 23.059 43.9809 23.3009 44.7459C23.3751 44.9832 23.3729 44.9866 23.1287 44.9934C21.0808 45.0511 19.0346 44.8286 17.047 44.3319C13.6622 43.4956 10.5222 41.8733 7.88162 39.5967C4.72599 36.8877 2.48162 33.5577 1.15637 29.6157C0.654843 28.1155 0.316145 26.5657 0.146117 24.9931C-0.0213732 23.5262 -0.0409717 22.0461 0.0876171 20.5752C0.509492 15.9099 2.19137 11.7519 5.18387 8.14398C7.91874 4.84323 11.3331 2.51448 15.3955 1.14423C15.9771 0.947357 16.57 0.784232 17.1651 0.630107C17.299 0.596357 17.3451 0.625607 17.3856 0.754982C17.9886 2.65623 18.5939 4.55523 19.2059 6.45311C20.521 10.529 21.8406 14.6026 23.158 18.6774L25.12 24.7456C25.1402 24.8109 25.1661 24.8739 25.2055 24.9807Z" fill="#5FD177"/>
<path d="M9.15101 23.0205C9.15101 20.9404 9.15326 18.8614 9.14651 16.7813C9.14651 16.6047 9.19938 16.5675 9.36701 16.5675C12.3764 16.572 15.3858 16.572 18.3951 16.5675C18.5549 16.5675 18.6213 16.617 18.6719 16.7689C18.9003 17.4552 19.1444 18.1347 19.3806 18.8175C19.4515 19.0212 19.4481 19.0234 19.2299 19.0234C16.8426 19.0234 14.4543 19.0257 12.067 19.02C11.8814 19.02 11.8263 19.0572 11.8296 19.2529C11.842 20.019 11.8398 20.7852 11.8308 21.5524C11.8285 21.7122 11.8758 21.747 12.0299 21.7459C13.9593 21.7403 15.8886 21.7425 17.8169 21.7437C18.0858 21.7437 18.052 21.7077 18.0531 21.9878C18.0531 22.6594 18.0475 23.3322 18.0565 24.0038C18.0588 24.1658 18.0081 24.1973 17.8563 24.1973C15.9213 24.1917 13.9863 24.1962 12.0513 24.1905C11.8893 24.1905 11.8274 24.2175 11.8296 24.3998C11.8409 25.2098 11.8409 26.0209 11.8308 26.8309C11.8285 26.9918 11.8758 27.0244 12.0299 27.0244C15.2778 27.0199 18.5256 27.0233 21.7746 27.0165C21.9535 27.0165 22.0143 27.0728 22.0671 27.2359C23.5848 32.0363 25.1091 36.8344 26.6301 41.6337C26.6729 41.7687 26.7145 41.8272 26.8754 41.7844C30.4529 40.8259 33.6333 39.1474 36.3006 36.5543C37.5713 35.3187 38.664 33.9125 39.5474 32.376C40.7996 30.218 41.6296 27.8413 41.9931 25.3729C42.0685 24.8385 42.118 24.2997 42.1574 23.7597C42.2069 23.0622 42.2159 22.368 42.1844 21.6739C42.1536 21.0401 42.0947 20.408 42.0078 19.7794C41.8737 18.8096 41.6696 17.8509 41.3969 16.9107C41.0086 15.5808 40.4767 14.2971 39.8106 13.0823C39.271 12.0964 38.6485 11.1581 37.9499 10.2777C37.3408 9.49826 36.6688 8.77019 35.9406 8.10078C34.9765 7.22103 33.991 6.36378 32.8795 5.66403C31.9615 5.08691 30.9895 4.62566 29.9905 4.20941C29.113 3.8504 28.2048 3.57139 27.277 3.37578C26.6536 3.24016 26.0254 3.12759 25.3938 3.03828C24.4544 2.90328 23.5139 2.81328 22.5666 2.80203C21.9662 2.79359 21.3659 2.82177 20.7689 2.88641C20.5214 2.91453 20.2739 2.92803 20.0264 2.96741C19.9229 2.98428 19.8644 2.95166 19.8273 2.83241C19.5798 2.02241 19.3233 1.21466 19.0623 0.409156C19.0263 0.295531 19.0431 0.258406 19.1658 0.242656C19.7215 0.168406 20.2806 0.116656 20.8386 0.0604058C21.3336 0.00978083 21.8275 0.0244058 22.3191 0.00753083C22.9817 -0.00934053 23.6447 0.0120701 24.3048 0.0716558C25.612 0.180781 26.9035 0.394531 28.1759 0.728656C29.1449 0.976728 30.0958 1.29058 31.0221 1.66803C33.1341 2.53771 35.104 3.71853 36.8665 5.17128C37.4695 5.65953 38.0185 6.20628 38.5675 6.75416C39.7785 7.97346 40.8404 9.33222 41.731 10.8019C43.1909 13.1903 44.187 15.8326 44.6673 18.5903C44.7573 19.083 44.8169 19.5825 44.8698 20.082C44.9395 20.7604 44.9553 21.4388 44.9868 22.1183C45.0115 22.6572 44.9856 23.1927 44.9643 23.727C44.9278 24.5762 44.8338 25.4219 44.683 26.2583C44.5241 27.1923 44.3099 28.116 44.0418 29.0247C43.7108 30.1123 43.2986 31.1735 42.8088 32.1994C42.1212 33.6412 41.2809 35.005 40.3023 36.2674C39.7615 36.9593 39.1816 37.6197 38.5653 38.2452C36.124 40.7607 33.2373 42.5685 29.9444 43.7385C28.4459 44.2707 26.9013 44.607 25.3274 44.823C25.1373 44.8489 25.1069 44.7972 25.0585 44.6464C23.4835 39.6683 21.9006 34.6902 20.3268 29.7109C20.2671 29.5197 20.1884 29.4668 19.9926 29.4679C16.4556 29.4747 12.9175 29.4702 9.38051 29.4769C9.18701 29.4769 9.14538 29.4274 9.14651 29.2407C9.15326 27.1673 9.15101 25.095 9.15101 23.0205Z" fill="#6C6C70"/>
</g>
</g>
<defs>
<clipPath id="clip0_87_2351">
<rect width="45" height="45" fill="white"/>
</clipPath>
</defs>
</svg>
