<svg width="41" height="45" viewBox="0 0 41 45" fill="none" xmlns="http://www.w3.org/2000/svg">
<mask id="mask0_87_2321" style="mask-type:luminance" maskUnits="userSpaceOnUse" x="0" y="0" width="40" height="45">
<path d="M0.521484 0H39.9775V45H0.521484V0Z" fill="white"/>
</mask>
<g mask="url(#mask0_87_2321)">
<path d="M35.0086 8.83759C34.9933 8.74198 34.9465 8.65424 34.8755 8.58837C34.8046 8.5225 34.7136 8.48231 34.6171 8.47422C34.4551 8.46072 31.0137 8.20534 31.0137 8.20534C31.0137 8.20534 28.6242 5.83272 28.3621 5.57059C28.0988 5.30847 27.5858 5.38722 27.3878 5.44684C27.3586 5.45472 26.8658 5.60659 26.0502 5.85972C25.2515 3.56247 23.843 1.45084 21.3646 1.45084C21.2971 1.45084 21.2262 1.45422 21.1553 1.45759C20.4511 0.526094 19.577 0.121094 18.8232 0.121094C13.0486 0.121094 10.2912 7.33797 9.42609 11.0066C8.07883 11.4235 6.73183 11.8413 5.38509 12.2598C4.13297 12.6525 4.09359 12.6918 3.92934 13.872C3.80559 14.7652 0.527344 40.1058 0.527344 40.1058L26.0615 44.8882L39.8956 41.8957C39.8956 41.8957 35.039 9.06259 35.0086 8.83759ZM24.6395 6.29509L22.4795 6.96447V6.49872C22.4795 5.06997 22.2826 3.92247 21.9642 3.01122C23.2411 3.17097 24.0916 4.62334 24.6395 6.29622V6.29509ZM20.3802 3.29359C20.7346 4.18234 20.9652 5.45922 20.9652 7.18272V7.43247L16.5023 8.81509C17.3618 5.49859 18.9717 3.89772 20.3802 3.29359ZM18.6646 1.66909C18.9143 1.66909 19.1652 1.75347 19.4048 1.91884C17.5542 2.78959 15.5708 4.98334 14.7338 9.36297L11.207 10.4542C12.188 7.11409 14.5178 1.66909 18.6646 1.66909Z" fill="#95BF46"/>
<path d="M34.617 8.47472C34.455 8.46122 31.0136 8.20584 31.0136 8.20584C31.0136 8.20584 28.6241 5.83322 28.362 5.57109C28.26 5.47719 28.1308 5.4181 27.993 5.40234L26.0625 44.8898L39.8955 41.8973C39.8955 41.8973 35.0389 9.06309 35.0085 8.83809C34.9932 8.74248 34.9464 8.65474 34.8754 8.58887C34.8045 8.523 34.7135 8.48281 34.617 8.47472Z" fill="#5E8E3E"/>
<path d="M21.3647 16.1186L19.6592 21.1923C19.6592 21.1923 18.164 20.3947 16.3325 20.3947C13.646 20.3947 13.511 22.08 13.511 22.5052C13.511 24.8227 19.5523 25.7115 19.5523 31.1385C19.5523 35.4101 16.8433 38.1596 13.1915 38.1596C8.80853 38.1596 6.56641 35.4315 6.56641 35.4315L7.74091 31.5547C7.74091 31.5547 10.0449 33.5325 11.9889 33.5325C13.259 33.5325 13.7754 32.5323 13.7754 31.8011C13.7754 28.7782 8.81978 28.6443 8.81978 23.6763C8.81978 19.4958 11.8202 15.4492 17.8783 15.4492C20.2115 15.4492 21.3647 16.1186 21.3647 16.1186Z" fill="white"/>
</g>
</svg>
