<svg width="45" height="45" viewBox="0 0 45 45" fill="none" xmlns="http://www.w3.org/2000/svg">
<g clip-path="url(#clip0_87_2412)">
<path d="M12.4872 27.1837C11.9732 26.6709 11.0318 26.6709 10.519 27.1837C10.0051 27.6976 10.0051 28.6391 10.519 29.1518L15.996 34.6288C16.253 34.8858 16.5952 35.0563 16.9375 35.0563C17.1285 35.0579 17.3178 35.0209 17.4942 34.9477C17.6706 34.8744 17.8305 34.7664 17.9642 34.63C18.4781 34.116 18.4781 33.1734 17.9642 32.6606L12.4872 27.1837ZM20.7021 18.9688C20.1893 18.4548 19.2478 18.4548 18.7339 18.9688C18.2211 19.4815 18.2211 20.423 18.7339 20.9369L24.2109 26.4139C24.4678 26.6697 24.8101 26.7562 25.2376 26.7562C25.581 26.7562 25.9232 26.5844 26.179 26.3275C26.693 25.8147 26.693 24.9585 26.179 24.3593L20.7021 18.9688ZM13.8573 20.3377C13.3434 19.8238 12.4007 19.8238 11.888 20.3377C11.374 20.8505 11.374 21.7919 11.888 22.3059L22.8419 33.2598C23.0989 33.5168 23.4411 33.6873 23.7834 33.6873C24.2109 33.6873 24.5531 33.5168 24.8101 33.2598C25.324 32.7459 25.324 31.8044 24.8101 31.2917L13.8573 20.3377ZM22.4997 8.95629C18.8203 8.95629 15.3115 10.4105 12.7442 13.0631C11.9744 13.8329 11.9744 15.1177 12.7442 15.8875C13.5992 16.7437 14.8828 16.7437 15.6538 15.8875C16.55 14.9854 17.617 14.2711 18.7924 13.7861C19.9679 13.3012 21.2282 13.0554 22.4997 13.0631C27.7197 13.0631 32.0847 17.4281 32.0847 22.6481C32.0838 25.2134 31.0685 27.6743 29.2603 29.4941C28.4042 30.2638 28.4042 31.5487 29.1751 32.4037C29.6026 32.7471 30.1165 33.0029 30.7146 33.0029C31.2285 33.0029 31.7425 32.7459 32.0847 32.4037C34.7373 29.8363 36.1915 26.3287 36.1915 22.6481C36.1915 15.1166 30.0301 8.9551 22.4997 8.9551V8.95629ZM22.4997 0.740234C10.3473 0.740234 0.591797 10.581 0.591797 22.6481C0.591797 34.8005 10.3473 44.556 22.4997 44.556C34.5668 44.556 44.4076 34.8005 44.4076 22.6481C44.4076 10.581 34.5668 0.740234 22.4997 0.740234ZM22.4997 40.448C12.6589 40.448 4.69982 32.4901 4.69982 22.6481C4.69982 12.8926 12.6577 4.84826 22.4997 4.84826C32.2552 4.84826 40.2996 12.8926 40.2996 22.6481C40.2996 32.4889 32.2552 40.448 22.4997 40.448Z" fill="url(#paint0_linear_87_2412)"/>
</g>
<defs>
<linearGradient id="paint0_linear_87_2412" x1="22.4997" y1="-1.18411" x2="22.4997" y2="46.1843" gradientUnits="userSpaceOnUse">
<stop stop-color="#4053FF"/>
<stop offset="1" stop-color="#0015D5"/>
</linearGradient>
<clipPath id="clip0_87_2412">
<rect width="45" height="45" fill="white"/>
</clipPath>
</defs>
</svg>
