<svg width="55" height="45" viewBox="0 0 55 45" fill="none" xmlns="http://www.w3.org/2000/svg">
<g clip-path="url(#clip0_87_2407)">
<path d="M51.7836 28.4965C52.6108 28.0835 53.438 27.6692 54.2652 27.0498V27.4628C54.2652 36.6653 42.3746 44.0069 27.7946 44.0069C13.1114 44.0069 1.32403 36.6653 1.32403 27.4628V27.0485C2.048 27.6706 2.87521 28.0835 3.70241 28.4965C4.42638 28.7042 5.0458 29.2204 5.46006 29.7379C6.70153 31.5988 8.45918 33.15 10.5265 34.0804C12.4906 35.1141 14.7658 35.5284 17.0409 35.3219C18.3856 35.3219 19.729 35.5284 21.0737 36.1491C23.1411 36.9763 25.4162 37.3892 27.7946 37.3892C30.0698 37.3892 32.3449 36.975 34.4123 36.1478C35.757 35.5284 37.1004 35.3206 38.4451 35.3206C40.7202 35.5284 42.994 35.1141 44.9595 34.0804C47.0268 33.15 48.7845 31.5988 50.0259 29.7379C50.4389 29.2217 51.0596 28.7029 51.7836 28.4965ZM1.32403 17.5363C1.32403 8.43704 13.1114 0.992188 27.7946 0.992188C42.3746 0.992188 54.2652 8.43704 54.2652 17.5363V20.8451C54.2652 22.706 52.9205 24.3604 50.4402 25.4987C49.0955 26.0148 47.854 26.9453 47.1314 28.1854C46.1313 29.4942 44.8145 30.5267 43.3051 31.1859C41.7539 31.9085 40.0995 32.1163 38.4451 32.0131C36.5842 32.0131 34.8252 32.3228 33.0676 33.0454C31.3836 33.7618 29.5724 34.1311 27.7423 34.1311C25.9123 34.1311 24.1011 33.7618 22.4171 33.0454C20.6595 32.3228 18.9018 32.0131 17.0409 32.0131C15.3865 32.1163 13.7321 31.9085 12.1809 31.1859C10.6298 30.5638 9.3883 29.5315 8.35594 28.1867C7.52874 26.9453 6.3905 26.0162 5.04712 25.4987C2.56418 24.3604 1.21947 22.706 1.32403 20.8451V17.5363ZM39.4787 10.2979C39.3755 10.5057 39.2723 10.7122 39.2723 10.9187C39.2723 11.2284 39.3755 11.4348 39.4787 11.6426C39.582 11.8491 39.6852 11.9523 39.7898 12.1588L43.0986 15.4676C43.4083 15.7787 43.8212 15.8819 44.3387 15.8819C44.753 15.8819 45.1659 15.7787 45.477 15.4676C45.7867 15.1579 45.9931 14.745 45.9931 14.2275C45.9931 13.8132 45.7867 13.4003 45.477 13.0892L42.1681 9.78042C41.9604 9.67851 41.8571 9.47072 41.6506 9.47072C41.4429 9.36748 41.2364 9.26425 41.0299 9.26425C40.7202 9.26425 40.5137 9.36748 40.3059 9.47072C40.0995 9.47072 39.9962 9.67851 39.7898 9.78175C39.6852 9.98822 39.582 10.0915 39.4787 10.2979ZM39.4787 20.2244C39.3755 20.4309 39.2723 20.6387 39.2723 20.8451C39.2723 21.1548 39.3755 21.3613 39.4787 21.5691C39.582 21.7756 39.6852 21.8788 39.7898 22.0853L43.0986 25.3941C43.4083 25.7051 43.8212 25.8084 44.3387 25.8084C44.753 25.8084 45.1659 25.7051 45.477 25.3941C45.7867 25.0844 45.9931 24.6715 45.9931 24.154C45.9931 23.7397 45.7867 23.3267 45.477 23.0157L42.1681 19.7069C41.9604 19.6037 41.8571 19.3972 41.6506 19.3972C41.4429 19.294 41.2364 19.1907 41.0299 19.1907C40.7202 19.1907 40.5137 19.294 40.3059 19.3972C40.0995 19.3972 39.9962 19.6037 39.7898 19.7082C39.6852 19.9147 39.582 20.0179 39.4787 20.2244ZM35.8602 24.8779C35.9634 24.6715 36.0667 24.4637 36.0667 24.154C36.0667 23.9475 35.9634 23.7397 35.8602 23.5332C35.757 23.3267 35.6524 23.2235 35.5492 23.017C35.3427 22.9138 35.2395 22.706 35.033 22.706C34.8252 22.6028 34.6187 22.4995 34.4123 22.4995C34.1026 22.4995 33.8961 22.6028 33.6883 22.706C33.4818 22.706 33.3786 22.9138 33.1721 23.017L29.8633 26.3259C29.7587 26.5323 29.6555 26.6356 29.5523 26.842C29.449 27.0498 29.3458 27.2563 29.3458 27.4628C29.3458 27.7725 29.449 27.979 29.5523 28.1867C29.6555 28.3932 29.7587 28.4965 29.8633 28.7029C30.0698 28.8075 30.173 28.9107 30.3795 29.014C30.5859 29.1172 30.7937 29.1172 31.1034 29.1172C31.3099 29.1172 31.5177 29.1172 31.7242 29.014C31.9306 28.9107 32.0339 28.8075 32.2404 28.7029L35.5492 25.3941C35.6524 25.1876 35.757 25.0844 35.8602 24.8779ZM26.2434 6.98778C26.1402 7.19557 26.037 7.40204 26.037 7.60851C26.037 7.91822 26.1402 8.12469 26.2434 8.33248C26.3467 8.53895 26.4499 8.64219 26.5545 8.84866C26.7609 8.95322 26.8642 9.05645 27.0706 9.15969C27.2784 9.26425 27.4849 9.26425 27.7946 9.26425C28.0011 9.26425 28.2089 9.26425 28.4154 9.16101C28.6218 9.05778 28.7251 8.95454 28.9315 8.85131L30.5859 7.19689C30.897 6.88586 31.1034 6.47292 31.1034 5.95542C31.1034 5.54116 30.897 5.12822 30.5873 4.81719C30.2762 4.50748 29.8633 4.30101 29.449 4.30101C28.9329 4.30101 28.5186 4.50748 28.2076 4.81719L26.5531 6.4716C26.4499 6.67939 26.3467 6.78131 26.2434 6.98778ZM21.177 15.8819C21.177 17.7428 24.0729 19.1907 27.7946 19.1907C31.4131 19.1907 34.4123 17.7428 34.4123 15.8819C34.4123 14.1242 31.4131 12.5731 27.7946 12.5731C24.0715 12.5731 21.177 14.1242 21.177 15.8819ZM20.9705 26.5323C21.0737 26.3259 21.177 26.1181 21.177 25.8084C21.177 25.6019 21.0737 25.3941 20.9705 25.1876C20.9705 24.9812 20.764 24.8779 20.6595 24.6715L17.3506 21.3626C17.0409 21.0516 16.628 20.8451 16.2137 20.8451C15.6976 20.8451 15.2833 21.0516 14.9723 21.3613C14.6626 21.6723 14.4561 22.0853 14.4561 22.4995C14.4561 23.0157 14.6626 23.43 14.9723 23.741L18.2811 27.0498C18.4889 27.1531 18.5921 27.2563 18.7986 27.3595C19.0051 27.4628 19.2129 27.4628 19.5226 27.4628C19.729 27.4628 19.9368 27.4628 20.1433 27.3595C20.3498 27.2563 20.453 27.1531 20.6595 27.0485C20.764 26.842 20.9705 26.7388 20.9705 26.5323ZM12.8017 10.9187C12.8017 11.4348 13.0081 11.8491 13.3179 12.1601C13.6289 12.4698 14.0418 12.5731 14.5593 12.5731C14.9736 12.5731 15.3865 12.4698 15.6976 12.1588L19.0064 8.84998C19.3161 8.54028 19.5226 8.12733 19.5226 7.60983C19.5226 7.19557 19.3161 6.78263 19.0064 6.4716C18.6954 6.16189 18.2824 5.95542 17.8681 5.95542C17.352 5.95542 16.9377 6.16189 16.6267 6.4716L13.3179 9.78042C13.0081 10.0915 12.8017 10.5057 12.8017 10.9187ZM6.70021 16.3981C6.3905 16.7091 6.28727 17.122 6.28727 17.5363C6.28727 18.0525 6.3905 18.4667 6.70153 18.7778C7.01124 19.0875 7.42418 19.1907 7.94168 19.1907H11.2505C11.6648 19.1907 12.0777 19.0875 12.3887 18.7765C12.6984 18.4667 12.9049 18.0538 12.9049 17.5363C12.9049 17.122 12.6984 16.7091 12.3887 16.3981C12.0777 16.0884 11.6648 15.8819 11.2505 15.8819H7.94168C7.4255 15.8819 7.01124 16.0884 6.70021 16.3981Z" fill="url(#paint0_linear_87_2407)"/>
</g>
<defs>
<linearGradient id="paint0_linear_87_2407" x1="27.7946" y1="-3.97105" x2="27.7946" y2="48.9701" gradientUnits="userSpaceOnUse">
<stop stop-color="#FF8DFA"/>
<stop offset="1" stop-color="#FF1DCD"/>
</linearGradient>
<clipPath id="clip0_87_2407">
<rect width="54.2647" height="45" fill="white"/>
</clipPath>
</defs>
</svg>
