<svg width="45" height="45" viewBox="0 0 45 45" fill="none" xmlns="http://www.w3.org/2000/svg">
<g clip-path="url(#clip0_87_2409)">
<path d="M28.6364 0H16.3636C7.32625 0 0 7.32625 0 16.3636V28.6364C0 37.6738 7.32625 45 16.3636 45H28.6364C37.6738 45 45 37.6738 45 28.6364V16.3636C45 7.32625 37.6738 0 28.6364 0Z" fill="#A0F9D9"/>
<path d="M29.2756 17.642C29.2789 17.8947 29.2316 18.1456 29.1364 18.3797C29.0412 18.6139 28.9001 18.8266 28.7213 19.0053C28.5426 19.184 28.3299 19.3252 28.0958 19.4204C27.8616 19.5156 27.6108 19.5629 27.358 19.5596C26.2555 19.5596 25.4404 18.7445 25.4404 17.642C25.4404 16.5876 26.2555 15.7244 27.358 15.7244C27.8662 15.7257 28.3532 15.9282 28.7125 16.2875C29.0718 16.6469 29.2743 17.1338 29.2756 17.642ZM10.8185 24.5454C10.6208 24.549 10.4261 24.497 10.2566 24.3951C10.0872 24.2933 9.94979 24.1458 9.86019 23.9696C9.61985 23.6342 9.61985 23.2026 9.86019 22.8191L12.3526 18.6003C12.9764 17.5469 14.127 16.875 15.3246 16.875H19.256C19.3992 16.6827 19.4963 16.5395 19.6395 16.3472C23.5709 10.5473 29.4198 10.3551 32.8715 11.026C33.4463 11.1221 33.8779 11.5537 33.9741 12.1285C34.645 15.5802 34.4527 21.4292 28.6528 25.3605C28.4605 25.5037 28.2693 25.5998 28.1251 25.7441V29.6754C28.1251 30.8741 27.4542 32.0246 26.3987 32.6475L22.18 35.1398C21.7964 35.3321 21.3659 35.3802 21.0294 35.1398C20.8418 35.0472 20.684 34.9038 20.5739 34.7259C20.4638 34.5479 20.4058 34.3427 20.4066 34.1335V29.5312C20.023 29.7235 19.6395 29.8667 19.3041 30.0109C18.7763 30.2502 18.1054 30.106 17.6738 29.6754L15.2295 27.2781C14.7979 26.7985 14.6537 26.1756 14.9411 25.6009C15.0605 25.2396 15.2048 24.8869 15.3727 24.5454H10.8185ZM31.8171 13.1829C28.797 12.7523 24.5302 13.231 21.5101 17.642C20.0721 19.8 18.2506 23.7784 17.2433 26.0314L18.9216 27.7087C21.1746 26.7504 25.2011 24.9289 27.359 23.4429C31.7701 20.4709 32.2487 16.2041 31.8181 13.1839L31.8171 13.1829Z" fill="#390A9B"/>
</g>
<defs>
<clipPath id="clip0_87_2409">
<rect width="45" height="45" fill="white"/>
</clipPath>
</defs>
</svg>
