<svg width="45" height="45" viewBox="0 0 45 45" fill="none" xmlns="http://www.w3.org/2000/svg">
<g clip-path="url(#clip0_87_2287)">
<path d="M44.5223 23.0067C44.5223 21.5245 44.3915 20.1183 44.1665 18.75H22.9785V27.2058H35.1102C34.566 29.9817 32.9727 32.3245 30.6102 33.9192V39.5442H37.8468C42.0852 35.625 44.5223 29.8495 44.5223 23.0067Z" fill="#4285F4"/>
<path d="M22.9777 44.9997C29.0527 44.9997 34.1335 42.9747 37.846 39.5434L30.608 33.9184C28.583 35.2684 26.0152 36.0939 22.9777 36.0939C17.108 36.0939 12.1398 32.1367 10.358 26.793H2.89648V32.5867C6.5893 39.9372 14.183 44.9997 22.9777 44.9997Z" fill="#34A853"/>
<path d="M10.3591 26.7938C9.88298 25.4127 9.64198 23.9614 9.64618 22.5005C9.64618 21.0001 9.90915 19.5559 10.3591 18.2059V12.4121H2.89618C1.30566 15.5369 0.476563 18.9935 0.476562 22.4998C0.476562 26.0062 1.30566 29.4628 2.89618 32.5876L10.3591 26.7938Z" fill="#FBBC05"/>
<path d="M22.9777 8.90578C26.2965 8.90578 29.258 10.0505 31.6023 12.2808L38.0148 5.86828C34.1335 2.23172 29.0527 0 22.9777 0C14.183 0 6.5893 5.0625 2.89648 12.413L10.358 18.2067C12.1398 12.863 17.108 8.90578 22.9777 8.90578Z" fill="#EA4335"/>
</g>
<defs>
<clipPath id="clip0_87_2287">
<rect width="45" height="45" fill="white"/>
</clipPath>
</defs>
</svg>
