<svg width="45" height="45" viewBox="0 0 45 45" fill="none" xmlns="http://www.w3.org/2000/svg">
<g clip-path="url(#clip0_87_2344)">
<path d="M36 0H9C4.02944 0 0 4.02944 0 9V36C0 40.9706 4.02944 45 9 45H36C40.9706 45 45 40.9706 45 36V9C45 4.02944 40.9706 0 36 0Z" fill="#356AE6"/>
<path d="M32.1455 20.7338C31.7653 20.4075 16.283 9.59738 15.5765 9.16313L15.3594 9V11.6618C15.3594 12.5314 15.7936 12.8025 16.337 13.2367L16.445 13.2919C17.2055 13.8352 28.235 21.4954 29.7009 22.5281C28.2339 23.5597 17.0424 31.3279 16.3359 31.7621C15.4674 32.3055 15.4134 32.6857 15.4134 33.4462V36C15.4134 36 31.8744 24.5362 32.1995 24.2662C32.96 23.7229 33.1231 23.0164 33.1231 22.5821V22.2559C33.1231 21.7125 32.7969 21.168 32.1455 20.7338Z" fill="white"/>
<path d="M22.4784 23.7223C22.9126 23.7223 23.3469 23.5592 23.7811 23.2329C24.3245 22.8527 24.8139 22.5264 24.8139 22.5264L24.977 22.4184L24.8139 22.3093C24.7588 22.2553 17.534 17.258 16.7735 16.7687C16.4473 16.4964 16.013 16.4424 15.7408 16.6055C15.5876 16.6919 15.4611 16.8187 15.375 16.972C15.2889 17.1254 15.2465 17.2994 15.2525 17.4752V19.1582L15.3065 19.2133C15.3605 19.2673 20.3049 22.6895 21.2825 23.342C21.7168 23.6132 22.0981 23.7223 22.4784 23.7223Z" fill="white"/>
</g>
<defs>
<clipPath id="clip0_87_2344">
<rect width="45" height="45" fill="white"/>
</clipPath>
</defs>
</svg>
