<svg width="45" height="45" viewBox="0 0 45 45" fill="none" xmlns="http://www.w3.org/2000/svg">
<g clip-path="url(#clip0_87_2348)">
<path fill-rule="evenodd" clip-rule="evenodd" d="M14.6924 25.412L17.6039 16.412H19.8539L22.7654 25.412L29.7787 3.17633L30.3074 1.45508L30.5729 1.58895C33.5111 2.67629 36.1761 4.39258 38.3816 6.6177C42.6172 10.8533 44.9999 16.5447 44.9999 22.5005C44.9999 28.4562 42.6172 34.1476 38.3816 38.3821C35.2057 41.5591 31.1028 43.6763 26.7344 44.6033L26.3373 44.735L27.2643 41.6918H27.3971C30.8373 40.7648 33.8816 39.0447 36.3971 36.5292C40.1028 32.8235 42.2201 27.7947 42.2201 22.6332C42.2201 17.339 40.1028 12.4407 36.3971 8.73608C35.2046 7.54358 33.7499 6.48608 32.2931 5.55908C29.6618 13.7405 26.9707 21.9026 24.2201 30.0447V30.1763H21.8373L18.9258 21.5735L15.8816 30.0447H13.4999L8.86719 16.5447H11.9114L14.6902 25.412H14.6924Z" fill="#DB3A26"/>
<path fill-rule="evenodd" clip-rule="evenodd" d="M22.3664 42.2212L30.4394 16.5443H33.3509L24.3509 45H22.4992C16.5434 45 10.852 42.6172 6.61755 38.3828C2.3808 34.1471 -0.00195312 28.4558 -0.00195312 22.5C-0.000828125 16.5442 2.3808 10.8529 6.61642 6.61725C10.8509 2.38275 16.5423 0 22.498 0C24.6164 0 26.7337 0.264375 28.7193 0.927L28.9837 1.05862L28.1894 3.70575L27.925 3.573C26.1653 3.04139 24.3363 2.7741 22.498 2.77987C17.2049 2.77987 12.3078 4.89712 8.60092 8.60287C4.89517 12.3086 2.77792 17.2058 2.77792 22.5C2.77792 27.7942 4.89517 32.6914 8.60092 36.3971C12.175 40.1029 17.2038 42.0896 22.3664 42.2212Z" fill="#716E75"/>
</g>
<defs>
<clipPath id="clip0_87_2348">
<rect width="45" height="45" fill="white"/>
</clipPath>
</defs>
</svg>
