<svg width="43" height="45" viewBox="0 0 43 45" fill="none" xmlns="http://www.w3.org/2000/svg">
<g clip-path="url(#clip0_87_2389)">
<path d="M32.0675 21.2503C32.3763 21.2098 32.6891 21.2098 32.9979 21.2503C33.1677 20.8701 33.1981 20.1996 33.0474 19.4897C32.828 18.4198 32.5186 17.7696 31.8976 17.8697C31.2789 17.9698 31.2474 18.7494 31.478 19.8193C31.5882 20.4099 31.8177 20.9297 32.0675 21.2503ZM26.6979 22.0997C27.1479 22.2999 27.4179 22.4293 27.5281 22.3101C27.7182 22.1188 27.1782 21.3696 26.3187 20.9994C25.8179 20.7928 25.2724 20.7184 24.7346 20.7834C24.1967 20.8484 23.6846 21.0506 23.2475 21.3707C22.9482 21.5901 22.6681 21.8893 22.7075 22.0794C22.7975 22.4507 23.7087 21.8094 24.9777 21.7307C25.6685 21.6801 26.2479 21.8994 26.6979 22.0997ZM25.7979 22.6093C24.8877 22.7499 24.2982 23.2596 24.4479 23.6196C24.5379 23.6499 24.5682 23.6994 24.9687 23.5397C25.5677 23.3139 26.2144 23.245 26.8475 23.3394C27.1377 23.3698 27.2784 23.3901 27.3481 23.2899C27.4786 23.0796 26.7676 22.4991 25.7979 22.6093ZM31.2181 24.3306C31.5579 23.6398 30.128 22.9299 29.7882 23.6297C29.4485 24.3193 30.8874 25.0191 31.217 24.3294L31.2181 24.3306ZM32.7875 22.2797C32.018 22.2696 31.9887 23.8592 32.7582 23.8794C33.5379 23.8794 33.5682 22.2898 32.7875 22.2797ZM10.8691 30.1794C10.7386 30.2098 10.2684 30.3291 10.0186 29.9398C9.49887 29.1388 11.129 27.8991 10.319 26.3499C9.40887 24.5994 7.52899 24.9887 6.80899 25.7897C5.93937 26.7493 5.93937 28.1499 6.30949 28.1994C6.73924 28.2591 6.71899 27.5492 7.04862 27.0294C7.13991 26.8869 7.25855 26.7639 7.39767 26.6676C7.5368 26.5712 7.69365 26.5034 7.85916 26.468C8.02467 26.4326 8.19555 26.4304 8.36191 26.4615C8.52827 26.4926 8.68681 26.5564 8.82837 26.6492C8.82837 26.6492 8.83962 26.6492 8.83962 26.6604C9.99837 27.4198 8.97912 28.4391 9.06912 29.5292C9.20862 31.1998 10.9186 31.1694 11.2291 30.4292C11.248 30.393 11.2561 30.3521 11.2526 30.3115C11.249 30.2708 11.2338 30.232 11.2089 30.1997C11.2089 30.3099 11.2685 30.0894 10.8691 30.1794ZM40.9066 28.4694C40.568 27.2893 40.6479 27.5492 40.2271 26.4096C40.478 26.0394 41.7571 23.9998 39.9177 22.0794C38.8771 20.9893 36.518 20.4201 35.798 20.2198C35.6472 19.0802 36.2682 14.3406 33.638 11.9004C35.7181 9.74044 37.0175 7.35994 37.0175 5.32031C37.0074 1.40081 32.1879 0.21056 26.2479 2.67093L24.9879 3.19968L22.6794 0.94181C15.9181 -4.95881 -5.26001 18.5694 1.50912 24.2901L2.98962 25.5388C2.58929 26.6108 2.44858 27.7623 2.57899 28.8992C2.91874 32.2494 6.18912 34.9596 9.34924 34.9494C15.1385 48.2886 36.1974 48.3088 41.648 35.2487C41.8167 34.7987 42.557 32.7793 42.557 30.9996C42.557 29.2198 41.5467 28.4694 40.9066 28.4694ZM9.22999 33.2991C6.94062 33.2394 4.47124 31.1796 4.23049 28.7394C3.61062 22.5992 11.6701 21.1997 12.65 27.4997C13.1101 30.4697 12.1797 33.3598 9.22999 33.2991ZM7.37937 21.8499C5.85949 22.1492 4.51962 23.0087 3.69949 24.2001C3.20899 23.7894 2.29887 22.9997 2.13912 22.6993C0.839743 20.2097 3.56899 15.3801 5.47924 12.6598C10.1986 5.92106 17.5887 0.82031 21.0189 1.74056C21.578 1.90031 23.4185 4.02993 23.4185 4.02993C23.4185 4.02993 19.9985 5.93118 16.8282 8.58056C12.5386 11.8802 9.30987 16.6603 7.37937 21.8499ZM31.3182 31.9896C31.3182 31.9896 27.7385 32.5183 24.3477 31.2797C24.9687 29.2592 27.059 31.8894 34.0081 29.8993C35.5381 29.4594 37.5474 28.5999 39.1179 27.3591C39.4576 28.1398 39.6972 28.9588 39.8266 29.7891C40.1979 29.7193 41.2576 29.7396 40.9775 31.6003C40.6479 33.5893 39.7974 35.2093 38.3776 36.6988C37.4879 37.6611 36.4309 38.454 35.258 39.0388C34.6022 39.3806 33.9197 39.6684 33.2172 39.8994C27.8577 41.6488 22.3689 39.7284 20.588 35.5896C20.4472 35.2709 20.327 34.9436 20.228 34.6097C19.4787 31.8793 20.1189 28.6089 22.118 26.5491C22.2384 26.4197 22.3689 26.2599 22.3689 26.0698C22.3524 25.9005 22.2858 25.7399 22.1776 25.6086C21.4779 24.5893 19.049 22.8591 19.5384 19.5099C19.8882 17.1002 21.9886 15.4104 23.9585 15.5094L24.458 15.5398C25.3085 15.5904 26.0476 15.6996 26.7485 15.7299C27.9185 15.7794 28.9782 15.6096 30.218 14.5701C30.6376 14.2202 30.9774 13.9097 31.5477 13.8197C31.7776 13.7625 32.0166 13.7526 32.2504 13.7905C32.4842 13.8284 32.7079 13.9133 32.9079 14.0402C33.908 14.7096 34.0475 16.3194 34.0981 17.4996C34.1274 18.1701 34.2084 19.8103 34.2376 20.2693C34.2972 21.3392 34.5774 21.4899 35.1477 21.6699C35.4672 21.7802 35.7676 21.8499 36.1974 21.9793C37.5181 22.3506 38.2977 22.7297 38.8074 23.2101C39.0672 23.4598 39.227 23.7894 39.2877 24.1393C39.4475 25.2801 38.408 26.6897 35.6472 27.9598C30.9672 30.1288 26.258 29.4088 25.5785 29.3289C23.558 29.0589 22.4082 31.6689 23.6187 33.4487C25.8879 36.7989 35.888 35.4489 38.7871 31.3089C38.858 31.2088 38.7984 31.1492 38.7174 31.2088C34.5279 34.0697 28.9884 35.0394 25.8384 33.8188C25.358 33.6287 24.3579 33.1697 24.2386 32.1493C28.6081 33.4993 31.3576 32.2191 31.3576 32.2191C31.3576 32.2191 31.5781 31.9603 31.3182 31.9896ZM16.0981 12.6306C17.7789 10.6899 19.8387 8.99906 21.6984 8.06081C21.7068 8.05575 21.7161 8.05248 21.7258 8.05122C21.7356 8.04995 21.7454 8.05072 21.7548 8.05347C21.7643 8.05622 21.773 8.06089 21.7805 8.06719C21.788 8.07349 21.7941 8.08127 21.7985 8.09006C21.8034 8.10103 21.8059 8.11292 21.8059 8.12494C21.8059 8.13695 21.8034 8.14884 21.7985 8.15981C21.6489 8.42981 21.3687 9.00018 21.2787 9.43106C21.2675 9.47043 21.2979 9.50981 21.3384 9.52106C21.3586 9.53006 21.3777 9.52106 21.398 9.50981C22.5489 8.73019 24.5592 7.88081 26.3086 7.78068C26.348 7.78068 26.3874 7.80994 26.3874 7.85044C26.3878 7.86349 26.3855 7.87649 26.3804 7.88853C26.3754 7.90058 26.3678 7.91138 26.3581 7.92019C26.0653 8.14147 25.8061 8.40409 25.5886 8.69981C25.5684 8.73019 25.5684 8.78081 25.6077 8.80106C25.619 8.81006 25.6381 8.81006 25.6482 8.81006C26.8779 8.82131 28.6182 9.24993 29.7579 9.89006C29.8377 9.93056 29.7781 10.0802 29.6982 10.0599C22.7277 8.46018 17.3581 11.9207 16.2185 12.7498C16.1791 12.7701 16.1386 12.7611 16.1082 12.7296C16.079 12.6902 16.079 12.6508 16.0981 12.6306Z" fill="black"/>
</g>
<defs>
<clipPath id="clip0_87_2389">
<rect width="42.75" height="45" fill="white"/>
</clipPath>
</defs>
</svg>
