<svg width="55" height="45" viewBox="0 0 55 45" fill="none" xmlns="http://www.w3.org/2000/svg">
<g clip-path="url(#clip0_87_2302)">
<path d="M54.9955 5.32732C52.9364 6.24576 50.7523 6.84841 48.5159 7.1152C50.8717 5.69575 52.6346 3.4622 53.4762 0.830777C51.2618 2.15439 48.839 3.08687 46.3124 3.58789C45.2571 2.45376 43.9816 1.55008 42.5651 0.932891C41.1486 0.315703 39.6213 -0.0018232 38.0779 7.87446e-06C35.0857 7.87446e-06 32.2162 1.19694 30.1004 3.3275C27.9846 5.45806 26.796 8.34771 26.796 11.3608C26.796 12.2504 26.8957 13.1175 27.0882 13.9483C22.6022 13.7225 18.2135 12.549 14.2072 10.5041C10.2008 8.45921 6.66644 5.58858 3.83352 2.07866C2.83045 3.81239 2.30367 5.7837 2.30727 7.7902C2.3057 9.66057 2.76302 11.5024 3.63857 13.1519C4.51413 14.8014 5.7808 16.2076 7.32602 17.2454C5.53472 17.1894 3.7827 16.7028 2.21617 15.8262V15.9681C2.21675 18.5911 3.11808 21.1331 4.76737 23.1634C6.41665 25.1936 8.71239 26.587 11.2654 27.1073C9.60374 27.563 7.86058 27.6299 6.1693 27.3029C6.88997 29.5602 8.29335 31.5342 10.1831 32.9487C12.0729 34.3632 14.3544 35.1475 16.7087 35.1917C12.7126 38.3503 7.77749 40.0633 2.69742 40.0552C1.78648 40.0552 0.889297 39.9998 0.00585938 39.896C5.16426 43.2342 11.1681 45.0062 17.2999 45C38.0504 45 49.3976 27.6889 49.3976 12.6779C49.3982 12.1873 49.3878 11.6968 49.3666 11.2067C51.5745 9.5993 53.4817 7.60834 54.9955 5.32732Z" fill="#2AA9E0"/>
</g>
<defs>
<clipPath id="clip0_87_2302">
<rect width="55" height="45" fill="white"/>
</clipPath>
</defs>
</svg>
