<svg width="20" height="20" viewBox="0 0 20 20" fill="none" xmlns="http://www.w3.org/2000/svg">
<path d="M9.99786 6.14844C8.9759 6.14844 7.99579 6.55441 7.27315 7.27705C6.55051 7.99969 6.14453 8.9798 6.14453 10.0018C6.14453 11.0237 6.55051 12.0038 7.27315 12.7265C7.99579 13.4491 8.9759 13.8551 9.99786 13.8551C11.0198 13.8551 11.9999 13.4491 12.7226 12.7265C13.4452 12.0038 13.8512 11.0237 13.8512 10.0018C13.8512 8.9798 13.4452 7.99969 12.7226 7.27705C11.9999 6.55441 11.0198 6.14844 9.99786 6.14844ZM9.99786 12.5043C9.33394 12.5043 8.69721 12.2405 8.22774 11.7711C7.75827 11.3016 7.49453 10.6649 7.49453 10.0009C7.49453 9.33701 7.75827 8.70028 8.22774 8.23081C8.69721 7.76135 9.33394 7.4976 9.99786 7.4976C10.6618 7.4976 11.2985 7.76135 11.768 8.23081C12.2375 8.70028 12.5012 9.33701 12.5012 10.0009C12.5012 10.6649 12.2375 11.3016 11.768 11.7711C11.2985 12.2405 10.6618 12.5043 9.99786 12.5043Z" fill="#2E77AE"/>
<path d="M14.0038 6.90409C14.4999 6.90409 14.9021 6.50189 14.9021 6.00575C14.9021 5.50962 14.4999 5.10742 14.0038 5.10742C13.5077 5.10742 13.1055 5.50962 13.1055 6.00575C13.1055 6.50189 13.5077 6.90409 14.0038 6.90409Z" fill="#2E77AE"/>
<path d="M17.1092 5.09224C16.9163 4.59406 16.6214 4.14164 16.2436 3.76396C15.8658 3.38627 15.4133 3.09163 14.915 2.89891C14.3319 2.68004 13.716 2.56169 13.0933 2.54891C12.2908 2.51391 12.0367 2.50391 10.0017 2.50391C7.96667 2.50391 7.70583 2.50391 6.91 2.54891C6.28782 2.56104 5.6723 2.67941 5.09 2.89891C4.59161 3.09141 4.13897 3.38596 3.76111 3.76368C3.38325 4.14139 3.08852 4.59393 2.89583 5.09224C2.67692 5.67525 2.55885 6.29127 2.54667 6.91391C2.51083 7.71557 2.5 7.96974 2.5 10.0056C2.5 12.0406 2.5 12.2997 2.54667 13.0972C2.55917 13.7206 2.67667 14.3356 2.89583 14.9197C3.08906 15.4179 3.38408 15.8702 3.76203 16.2479C4.13998 16.6255 4.59255 16.9202 5.09083 17.1131C5.67203 17.3407 6.28781 17.4676 6.91167 17.4881C7.71417 17.5231 7.96833 17.5339 10.0033 17.5339C12.0383 17.5339 12.2992 17.5339 13.095 17.4881C13.7176 17.4754 14.3335 17.3574 14.9167 17.1389C15.4148 16.9457 15.8672 16.6508 16.245 16.2731C16.6228 15.8953 16.9177 15.4429 17.1108 14.9447C17.33 14.3614 17.4475 13.7464 17.46 13.1231C17.4958 12.3214 17.5067 12.0672 17.5067 10.0314C17.5067 7.99557 17.5067 7.73724 17.46 6.93974C17.4503 6.3083 17.3316 5.68328 17.1092 5.09224ZM16.0942 13.0356C16.0888 13.5158 16.0011 13.9916 15.835 14.4422C15.7099 14.7663 15.5183 15.0606 15.2726 15.3061C15.0269 15.5517 14.7325 15.7431 14.4083 15.8681C13.9627 16.0334 13.492 16.1211 13.0167 16.1272C12.225 16.1639 12.0017 16.1731 9.97167 16.1731C7.94 16.1731 7.7325 16.1731 6.92583 16.1272C6.45077 16.1214 5.98027 16.0338 5.535 15.8681C5.20974 15.7439 4.91417 15.5528 4.66741 15.3072C4.42065 15.0616 4.2282 14.7669 4.1025 14.4422C3.93871 13.9964 3.85109 13.5263 3.84333 13.0514C3.8075 12.2597 3.79917 12.0364 3.79917 10.0064C3.79917 7.97557 3.79917 7.76807 3.84333 6.96057C3.84872 6.48059 3.93638 6.00509 4.1025 5.55474C4.35667 4.89724 4.8775 4.37974 5.535 4.12807C5.98049 3.96319 6.45085 3.87554 6.92583 3.86891C7.71833 3.83307 7.94083 3.82307 9.97167 3.82307C12.0025 3.82307 12.2108 3.82307 13.0167 3.86891C13.492 3.87462 13.9628 3.9623 14.4083 4.12807C14.7324 4.2533 15.0268 4.44491 15.2725 4.6906C15.5182 4.93629 15.7098 5.23063 15.835 5.55474C15.9988 6.00053 16.0864 6.47071 16.0942 6.94557C16.13 7.73807 16.1392 7.96057 16.1392 9.99141C16.1392 12.0214 16.1392 12.2397 16.1033 13.0364H16.0942V13.0356Z" fill="#2E77AE"/>
</svg>
