<svg width="25" height="25" viewBox="0 0 25 25" fill="none" xmlns="http://www.w3.org/2000/svg">
<path d="M15.625 21.875H9.375V13.125C9.375 12.7798 9.65482 12.5 10 12.5H15C15.3452 12.5 15.625 12.7798 15.625 13.125V21.875Z" stroke="#8F8F8F" stroke-width="1.6" stroke-linecap="round" stroke-linejoin="round"/>
<path d="M21.25 21.8743H15.625V18.8535C15.625 18.5083 15.9048 18.2285 16.25 18.2285H21.25C21.5952 18.2285 21.875 18.5083 21.875 18.8535V21.2493C21.875 21.5946 21.5952 21.8743 21.25 21.8743Z" stroke="#8F8F8F" stroke-width="1.6" stroke-linecap="round" stroke-linejoin="round"/>
<path d="M9.375 21.8757V16.7715C9.375 16.4263 9.09518 16.1465 8.75 16.1465H3.75C3.40482 16.1465 3.125 16.4263 3.125 16.7715V21.2507C3.125 21.5959 3.40482 21.8757 3.75 21.8757H9.375Z" stroke="#8F8F8F" stroke-width="1.6" stroke-linecap="round" stroke-linejoin="round"/>
<path d="M11.2571 5.3263L12.2041 3.31834C12.3257 3.06055 12.6769 3.06055 12.7985 3.31834L13.7455 5.3263L15.8633 5.65028C16.1351 5.69186 16.2433 6.04143 16.0466 6.24197L14.5144 7.80386L14.876 10.0104C14.9224 10.2938 14.6383 10.5099 14.3952 10.376L12.5013 9.33366L10.6074 10.376C10.3643 10.5099 10.0801 10.2938 10.1266 10.0104L10.4882 7.80386L8.956 6.24197C8.75928 6.04143 8.86758 5.69186 9.1393 5.65028L11.2571 5.3263Z" stroke="#8F8F8F" stroke-width="1.6" stroke-linecap="round" stroke-linejoin="round"/>
</svg>
