<svg width="20" height="20" viewBox="0 0 20 20" fill="none" xmlns="http://www.w3.org/2000/svg">
<path d="M15.3674 2.55078H4.63411C4.08205 2.55232 3.55304 2.77231 3.16268 3.16268C2.77231 3.55304 2.55232 4.08205 2.55078 4.63411V15.3674C2.55232 15.9195 2.77231 16.4485 3.16268 16.8389C3.55304 17.2293 4.08205 17.4492 4.63411 17.4508H15.3674C15.92 17.4508 16.4499 17.2313 16.8406 16.8406C17.2313 16.4499 17.4508 15.92 17.4508 15.3674V4.63411C17.4508 4.08158 17.2313 3.55168 16.8406 3.16098C16.4499 2.77027 15.92 2.55078 15.3674 2.55078ZM16.6174 15.3674C16.615 15.6982 16.4826 16.0148 16.2487 16.2487C16.0148 16.4826 15.6982 16.615 15.3674 16.6174H4.63411C4.30334 16.615 3.98679 16.4826 3.75288 16.2487C3.51898 16.0148 3.38651 15.6982 3.38411 15.3674V4.63411C3.38651 4.30334 3.51898 3.98679 3.75288 3.75288C3.98679 3.51898 4.30334 3.38651 4.63411 3.38411H15.3674C15.6982 3.38651 16.0148 3.51898 16.2487 3.75288C16.4826 3.98679 16.615 4.30334 16.6174 4.63411V15.3674Z" fill="#2E77AE"/>
<path d="M5.3125 8.95638C5.3125 8.73537 5.4003 8.52341 5.55658 8.36712C5.71286 8.21084 5.92482 8.12305 6.14583 8.12305C6.36685 8.12305 6.57881 8.21084 6.73509 8.36712C6.89137 8.52341 6.97917 8.73537 6.97917 8.95638V14.373C6.97917 14.5941 6.89137 14.806 6.73509 14.9623C6.57881 15.1186 6.36685 15.2064 6.14583 15.2064C5.92482 15.2064 5.71286 15.1186 5.55658 14.9623C5.4003 14.806 5.3125 14.5941 5.3125 14.373V8.95638Z" fill="#2E77AE"/>
<path d="M6.14583 6.45378C6.60607 6.45378 6.97917 6.08068 6.97917 5.62044C6.97917 5.16021 6.60607 4.78711 6.14583 4.78711C5.6856 4.78711 5.3125 5.16021 5.3125 5.62044C5.3125 6.08068 5.6856 6.45378 6.14583 6.45378Z" fill="#2E77AE"/>
<path d="M14.6852 11.142V14.3753C14.6852 14.5963 14.5974 14.8083 14.4411 14.9646C14.2848 15.1208 14.0728 15.2086 13.8518 15.2086C13.6308 15.2086 13.4188 15.1208 13.2626 14.9646C13.1063 14.8083 13.0185 14.5963 13.0185 14.3753V11.142C13.0185 10.785 12.8767 10.4427 12.6243 10.1903C12.3719 9.93792 12.0296 9.79613 11.6727 9.79613C11.3157 9.79613 10.9734 9.93792 10.721 10.1903C10.4686 10.4427 10.3268 10.785 10.3268 11.142V14.3753C10.3268 14.5963 10.239 14.8083 10.0827 14.9646C9.92646 15.1208 9.7145 15.2086 9.49349 15.2086C9.27248 15.2086 9.06051 15.1208 8.90423 14.9646C8.74795 14.8083 8.66016 14.5963 8.66016 14.3753V8.95863C8.66359 8.73869 8.75249 8.52871 8.90804 8.37317C9.06358 8.21763 9.27355 8.12873 9.49349 8.12529C9.63464 8.12143 9.7742 8.15579 9.89742 8.22473C10.0206 8.29368 10.1229 8.39465 10.1935 8.51696C10.6517 8.25699 11.1701 8.12193 11.6969 8.12529C12.2237 8.12866 12.7403 8.27034 13.1952 8.53614C13.65 8.80195 14.027 9.18256 14.2885 9.63987C14.55 10.0972 14.6868 10.6152 14.6852 11.142Z" fill="#2E77AE"/>
</svg>
