<svg width="26" height="27" viewBox="0 0 26 27" fill="none" xmlns="http://www.w3.org/2000/svg">
<path d="M16.4586 11.6284C16.4586 12.6624 15.6163 13.5047 14.5823 13.5047H11.0366V9.75214H14.5823C15.6163 9.75214 16.4586 10.5944 16.4586 11.6284ZM25.4214 13.5047C25.4214 20.4147 19.8228 26.0132 12.9128 26.0132C6.00288 26.0132 0.404297 20.4147 0.404297 13.5047C0.404297 6.59474 6.00288 0.996155 12.9128 0.996155C19.8228 0.996155 25.4214 6.59474 25.4214 13.5047ZM18.9603 11.6284C18.9603 9.21245 16.9983 7.25043 14.5823 7.25043H8.53485V19.759H11.0366V16.0064H14.5823C16.9983 16.0064 18.9603 14.0444 18.9603 11.6284Z" fill="#0D2137"/>
</svg>
