<svg width="26" height="23" viewBox="0 0 26 23" fill="none" xmlns="http://www.w3.org/2000/svg">
<path d="M25.387 18.0934H23.6981C23.6116 18.7743 23.0928 19.6469 21.7958 19.6469C20.6141 19.6469 19.761 18.9307 18.9425 17.8412C21.4903 16.1163 23.2484 13.4279 23.2484 10.1243C23.2542 4.19785 17.6801 0.203186 11.812 0.203186C6.06504 0.203186 0.416016 4.22307 0.416016 10.1243C0.416016 16.888 7.98455 21.3013 14.7691 19.657C15.9047 21.3517 17.4034 22.7993 20.2568 22.7993C24.972 22.7993 25.4908 19.0013 25.387 18.0934ZM17.1152 15.1933C15.9912 13.7205 14.5962 12.5604 11.8409 12.5604C10.0828 12.5604 8.71085 13.0648 7.8635 13.7104L8.56674 14.936C8.92413 14.7847 9.3161 14.7343 9.70808 14.7343C11.7544 14.7343 12.8035 16.2878 13.697 17.8261C13.1205 17.9774 12.5038 18.038 11.812 18.038C7.48882 18.038 5.61542 15.3648 5.61542 10.1344C5.61542 4.86867 7.48882 2.17026 11.812 2.17026C16.2045 2.17026 18.0779 4.86867 18.0779 10.1243C18.0836 12.2326 17.7666 13.9374 17.1152 15.1933Z" fill="#0D2137"/>
</svg>
