<svg width="27" height="27" viewBox="0 0 27 27" fill="none" xmlns="http://www.w3.org/2000/svg">
<path d="M23.9353 10.5262C23.0857 10.5262 22.338 10.8773 21.7886 11.4268C19.7665 10.0277 17.0421 9.12715 14.0232 9.03086L15.5921 1.96211L20.5878 3.08359C20.5878 4.30703 21.5847 5.30391 22.8081 5.30391C24.0542 5.30391 25.0568 4.27871 25.0568 3.05527C25.0568 1.83184 24.0599 0.806641 22.8081 0.806641C21.9359 0.806641 21.1826 1.3334 20.8087 2.05273L15.2919 0.829297C15.0144 0.755664 14.7425 0.953906 14.6689 1.23145L12.947 9.0252C9.95072 9.14981 7.25463 10.0504 5.22689 11.4494C4.67748 10.8773 3.9015 10.5262 3.05189 10.5262C-0.0973281 10.5262 -1.12819 14.7516 1.75482 16.1959C1.65287 16.6434 1.60755 17.1191 1.60755 17.5949C1.60755 22.3414 6.95443 26.1873 13.5191 26.1873C20.112 26.1873 25.4589 22.3414 25.4589 17.5949C25.4589 17.1191 25.4079 16.6207 25.2833 16.1732C28.1097 14.7232 27.0675 10.5262 23.9353 10.5262ZM6.32572 16.4961C6.32572 15.25 7.32259 14.2475 8.57435 14.2475C9.79779 14.2475 10.7947 15.2443 10.7947 16.4961C10.7947 17.7195 9.79779 18.7164 8.57435 18.7164C7.32826 18.7221 6.32572 17.7195 6.32572 16.4961ZM18.4638 21.792C16.4021 23.8537 10.5851 23.8537 8.52338 21.792C8.29681 21.5938 8.29681 21.2426 8.52338 21.016C8.72162 20.8178 9.07279 20.8178 9.27103 21.016C10.8456 22.6303 16.0679 22.6586 17.7105 21.016C17.9087 20.8178 18.2599 20.8178 18.4581 21.016C18.6904 21.2426 18.6904 21.5938 18.4638 21.792ZM18.4185 18.7221C17.1951 18.7221 16.1982 17.7252 16.1982 16.5018C16.1982 15.2557 17.1951 14.2531 18.4185 14.2531C19.6646 14.2531 20.6671 15.25 20.6671 16.5018C20.6615 17.7195 19.6646 18.7221 18.4185 18.7221Z" fill="#0D2137"/>
</svg>
