<svg width="14" height="14" viewBox="0 0 14 14" fill="none" xmlns="http://www.w3.org/2000/svg">
<path d="M12.6875 1.75H10.0625C10.0529 1.75 10.045 1.75481 10.0358 1.75525C9.751 1.2635 9.43775 0.992688 9.415 0.973875C9.33669 0.91 9.23869 0.875 9.13763 0.875H4.86194C4.76088 0.875 4.66288 0.91 4.585 0.974312C4.56225 0.993125 4.24856 1.26394 3.96419 1.75569C3.955 1.75481 3.94713 1.75 3.9375 1.75H1.3125C1.18781 1.75 1.06925 1.80294 0.986563 1.89569C0.903438 1.98844 0.864063 2.11225 0.877626 2.23563C1.02638 3.57481 2.00069 6.146 4.6025 6.51219C4.886 6.91644 5.22069 7.32506 5.61356 7.7385C5.63456 7.76081 5.66256 7.77262 5.68706 7.78969V8.75H4.81206C4.57056 8.75 4.37456 8.94556 4.37456 9.1875V10.5H3.5C3.2585 10.5 3.0625 10.6956 3.0625 10.9375V12.6875C3.0625 12.9294 3.2585 13.125 3.5 13.125H10.5C10.7415 13.125 10.9375 12.9294 10.9375 12.6875V10.9375C10.9375 10.6956 10.7415 10.5 10.5 10.5H9.625V9.1875C9.625 8.94556 9.429 8.75 9.1875 8.75H8.3125V7.79012C8.33744 7.77306 8.365 7.76081 8.386 7.73894C8.77844 7.32594 9.11313 6.91687 9.39706 6.51262C11.9989 6.14644 12.9736 3.57525 13.1219 2.23606C13.1359 2.11269 13.0961 1.98888 13.013 1.89613C12.9308 1.80294 12.8122 1.75 12.6875 1.75ZM1.83881 2.625H3.61331C3.56256 2.82319 3.52144 3.03231 3.507 3.26506C3.46281 3.96987 3.61988 4.69962 3.97425 5.44994C2.56069 4.87769 2.02519 3.40112 1.83881 2.625ZM10.0625 12.25H3.9375V11.375H4.8125H9.1875H10.0625V12.25ZM8.75 10.5H5.25V9.625H6.125H7.875H8.75V10.5ZM6.5625 8.75V7.875H7.4375V8.75H6.5625ZM7.87938 7H7.875H6.125H6.12063C4.90306 5.67919 4.31725 4.44806 4.37938 3.33856C4.42619 2.49681 4.84094 1.95956 5.03738 1.75H8.96219C9.15994 1.96088 9.57381 2.49769 9.62063 3.339C9.68231 4.44806 9.0965 5.67919 7.87938 7ZM10.0275 5.44644C10.381 4.69744 10.5372 3.96856 10.493 3.26463C10.4786 3.03231 10.4374 2.82319 10.3871 2.625H12.1577C11.9665 3.39719 11.4236 4.872 10.0275 5.44644Z" fill="#FFAD1A"/>
</svg>
