<svg width="24" height="24" viewBox="0 0 24 24" fill="none" xmlns="http://www.w3.org/2000/svg">
<g clip-path="url(#clip0_999_23311)">
<path d="M21.1406 9.14062C21.1406 4.10063 17.04 0 12 0C6.96 0 2.85938 4.10063 2.85938 9.14062C2.85876 10.372 3.10765 11.5908 3.59104 12.7234C4.07442 13.856 4.78228 14.8788 5.67188 15.7303V23.2969C5.67184 23.4168 5.70245 23.5347 5.76081 23.6394C5.81917 23.7441 5.90333 23.8321 6.0053 23.8952C6.10727 23.9582 6.22366 23.9941 6.34342 23.9995C6.46317 24.0049 6.58232 23.9796 6.68953 23.9259L12 21.2705L17.3105 23.9259C17.4177 23.9796 17.5368 24.0049 17.6566 23.9995C17.7763 23.9941 17.8927 23.9582 17.9947 23.8952C18.0967 23.8321 18.1808 23.7441 18.2392 23.6394C18.2975 23.5347 18.3282 23.4168 18.3281 23.2969V15.7303C19.2177 14.8788 19.9256 13.856 20.409 12.7234C20.8924 11.5908 21.1412 10.372 21.1406 9.14062ZM4.26563 9.14062C4.26563 4.875 7.73438 1.40625 12 1.40625C16.2656 1.40625 19.7344 4.875 19.7344 9.14062C19.7344 13.4062 16.2656 16.875 12 16.875C7.73438 16.875 4.26563 13.4062 4.26563 9.14062ZM16.9219 22.1592L12.3145 19.8553C12.2169 19.8065 12.1092 19.781 12 19.781C11.8908 19.781 11.7831 19.8065 11.6855 19.8553L7.07813 22.1592V16.8398C8.54719 17.781 10.2553 18.2813 12 18.2813C13.7447 18.2813 15.4528 17.781 16.9219 16.8398V22.1592Z" fill="#FFAD1A"/>
<path d="M7.8553 13.8507C7.80946 13.9919 7.80948 14.144 7.85537 14.2852C7.90126 14.4264 7.99065 14.5494 8.11075 14.6367C8.23085 14.7239 8.37549 14.7709 8.52394 14.771C8.6724 14.771 8.81705 14.724 8.93718 14.6368L12.0005 12.4116L15.0637 14.6368C15.1839 14.724 15.3285 14.771 15.477 14.771C15.6254 14.7709 15.7701 14.7239 15.8902 14.6367C16.0103 14.5494 16.0997 14.4264 16.1455 14.2852C16.1914 14.144 16.1915 13.9919 16.1456 13.8507L14.9737 10.2498L18.037 8.02461C18.1571 7.93745 18.2466 7.81453 18.2926 7.67343C18.3385 7.53234 18.3387 7.38032 18.293 7.23912C18.2474 7.09793 18.1582 6.97481 18.0383 6.88739C17.9184 6.79997 17.7739 6.75272 17.6255 6.75242H13.8394L12.6675 3.15149C12.6217 3.01012 12.5323 2.8869 12.4121 2.79951C12.292 2.71211 12.1472 2.66504 11.9986 2.66504C11.85 2.66504 11.7052 2.71211 11.585 2.79951C11.4649 2.8869 11.3755 3.01012 11.3297 3.15149L10.1578 6.75242H6.37546C6.2269 6.75233 6.08213 6.79929 5.96191 6.88656C5.8417 6.97384 5.75222 7.09695 5.7063 7.23823C5.66039 7.37952 5.6604 7.53171 5.70634 7.67299C5.75228 7.81426 5.84179 7.93736 5.96202 8.02461L9.0253 10.2498L7.8553 13.8507ZM8.53968 8.15867H10.6725C10.821 8.15873 10.9657 8.11177 11.0858 8.02454C11.206 7.9373 11.2955 7.81426 11.3414 7.67305L12.0005 5.6443L12.6595 7.67305C12.7055 7.81426 12.7949 7.9373 12.9151 8.02454C13.0352 8.11177 13.1799 8.15873 13.3284 8.15867H15.4612L13.7348 9.41258C13.6147 9.49985 13.5253 9.62291 13.4794 9.76412C13.4335 9.90534 13.4335 10.0575 13.4794 10.1987L14.1384 12.2274L12.413 10.9735C12.2928 10.8862 12.1481 10.8391 11.9995 10.8391C11.851 10.8391 11.7062 10.8862 11.5861 10.9735L9.86062 12.2274L10.5197 10.1987C10.5657 10.0576 10.566 9.90566 10.5205 9.76446C10.4749 9.62327 10.3859 9.5001 10.2661 9.41258L8.53968 8.15867Z" fill="#FFAD1A"/>
</g>
<defs>
<clipPath id="clip0_999_23311">
<rect width="24" height="24" fill="white"/>
</clipPath>
</defs>
</svg>
