<svg width="36" height="36" viewBox="0 0 36 36" fill="none" xmlns="http://www.w3.org/2000/svg">
<path d="M2.11182 22.1714L5.66737 33.4558C5.72542 33.6416 5.81973 33.8139 5.94484 33.9629C6.06996 34.1119 6.22339 34.2347 6.39626 34.324C8.50127 35.4175 10.839 35.9872 13.2111 35.9847C14.0408 35.9765 14.8683 35.8992 15.6852 35.7536L2.11182 22.1714Z" fill="#D1D5DB"/>
<path d="M35.1234 20.1357L15.8642 0.876457C15.5864 0.598606 15.2097 0.442467 14.8168 0.442383C10.889 0.446696 7.12326 2.00892 4.34588 4.78631C1.56849 7.56369 0.0062666 11.3294 0.00195312 15.2572C0.00203703 15.6501 0.158176 16.0268 0.436027 16.3046L19.6953 35.5639C19.9731 35.8417 20.3498 35.9979 20.7427 35.9979C24.6705 35.9936 28.4362 34.4314 31.2136 31.654C33.991 28.8766 35.5532 25.1109 35.5575 21.1831C35.5574 20.7902 35.4013 20.4135 35.1234 20.1357ZM10.3723 13.7757C9.78631 13.7757 9.21345 13.6019 8.72619 13.2764C8.23893 12.9508 7.85916 12.488 7.6349 11.9466C7.41064 11.4052 7.35197 10.8095 7.46629 10.2347C7.58062 9.65995 7.86281 9.132 8.27719 8.71762C8.69157 8.30324 9.21952 8.02105 9.79428 7.90672C10.369 7.7924 10.9648 7.85107 11.5062 8.07533C12.0476 8.29959 12.5104 8.67936 12.8359 9.16662C13.1615 9.65388 13.3353 10.2267 13.3353 10.8128C13.3353 11.5986 13.0231 12.3522 12.4675 12.9079C11.9118 13.4635 11.1582 13.7757 10.3723 13.7757ZM23.4094 23.8498L22.1664 27.8498L19.7471 24.4291L15.5575 24.4824L18.0642 21.1239L16.719 17.1579L20.6864 18.5031L24.0449 15.9979L23.9916 20.1876L27.4094 22.6068L23.4094 23.8498Z" fill="#2E77AE"/>
</svg>
