<svg width="37" height="37" viewBox="0 0 37 37" fill="none" xmlns="http://www.w3.org/2000/svg">
<path d="M27.8993 29.5211L30.2573 31.7304C32.9854 28.8181 33.2569 28.4205 34.9926 24.8423L32.0852 23.4314C30.4965 26.7041 30.3882 26.8625 27.8993 29.5211Z" fill="#D1D5DB"/>
<path d="M17.196 32.9025L17.2752 36.1332C21.5015 36.0298 22.1754 35.9005 26.0962 34.4718L24.9892 31.4351C21.4158 32.7361 21.0684 32.8072 17.196 32.9025Z" fill="#D1D5DB"/>
<path d="M6.94145 27.3325L4.63196 29.5935C7.60085 32.6238 8.1859 33.057 11.9952 34.9592L13.4417 32.0679C9.98307 30.3418 9.65499 30.1059 6.94145 27.3325Z" fill="#D1D5DB"/>
<path d="M3.9009 16.7061H0.668579C0.668579 20.7836 0.755852 21.3331 1.97767 25.1909L5.05807 24.2147C3.93969 20.6834 3.9009 20.4248 3.9009 16.7061Z" fill="#D1D5DB"/>
<path d="M9.67016 6.73759C12.1865 4.82567 15.2314 3.77517 18.4459 3.77517C26.4669 3.77517 32.9914 10.2996 32.9914 18.3206C32.9914 18.6552 32.9639 18.9816 32.9413 19.3097L36.1477 19.8107C36.1898 19.3178 36.2237 18.8232 36.2237 18.3206C36.2237 8.5186 28.2479 0.542844 18.4459 0.542844C14.3328 0.542844 10.4346 1.93598 7.28309 4.48951L2.82248 0.306885L1.77844 12.5639L14.0677 10.8475L9.67016 6.73759Z" fill="#2E77AE"/>
</svg>
