<svg width="25" height="25" viewBox="0 0 25 25" fill="none" xmlns="http://www.w3.org/2000/svg">
<path d="M22.5791 15.2757L20.98 13.9085C21.0557 13.4446 21.0947 12.971 21.0947 12.4973C21.0947 12.0237 21.0557 11.5501 20.98 11.0862L22.5791 9.71901C22.6997 9.61575 22.786 9.47823 22.8266 9.32472C22.8672 9.17121 22.86 9.00899 22.8061 8.85963L22.7842 8.79615C22.3439 7.56575 21.6847 6.42514 20.8384 5.42945L20.7944 5.37818C20.6918 5.25746 20.5549 5.17068 20.4019 5.12927C20.249 5.08787 20.087 5.09379 19.9375 5.14625L17.9526 5.85181C17.2202 5.25123 16.4023 4.77759 15.5186 4.44556L15.1353 2.37036C15.1063 2.21422 15.0306 2.07056 14.9181 1.95849C14.8056 1.84642 14.6616 1.77123 14.5054 1.74292L14.4395 1.73071C13.1675 1.50122 11.8296 1.50122 10.5576 1.73071L10.4917 1.74292C10.3354 1.77123 10.1915 1.84642 10.079 1.95849C9.96648 2.07056 9.89074 2.21422 9.86182 2.37036L9.47608 4.45533C8.59934 4.78743 7.78288 5.26081 7.05908 5.8567L5.05957 5.14625C4.91008 5.09337 4.74803 5.08724 4.59496 5.12867C4.4419 5.1701 4.30506 5.25712 4.20264 5.37818L4.1587 5.42945C3.31335 6.42585 2.65424 7.56626 2.2129 8.79615L2.19092 8.85963C2.08106 9.16481 2.17139 9.50661 2.41797 9.71901L4.03663 11.1008C3.96094 11.5598 3.92432 12.0286 3.92432 12.4949C3.92432 12.9636 3.96094 13.4324 4.03663 13.8889L2.41797 15.2708C2.29736 15.374 2.21103 15.5116 2.17047 15.6651C2.12992 15.8186 2.13705 15.9808 2.19092 16.1302L2.2129 16.1936C2.65479 17.4241 3.30909 18.5594 4.1587 19.5603L4.20264 19.6116C4.30531 19.7323 4.44215 19.8191 4.59513 19.8605C4.7481 19.9019 4.91003 19.896 5.05957 19.8435L7.05908 19.1331C7.78662 19.7312 8.59961 20.2049 9.47608 20.5345L9.86182 22.6194C9.89074 22.7756 9.96648 22.9192 10.079 23.0313C10.1915 23.1434 10.3354 23.2186 10.4917 23.2469L10.5576 23.2591C11.8413 23.4898 13.1558 23.4898 14.4395 23.2591L14.5054 23.2469C14.6616 23.2186 14.8056 23.1434 14.9181 23.0313C15.0306 22.9192 15.1063 22.7756 15.1353 22.6194L15.5186 20.5442C16.402 20.2131 17.2245 19.7379 17.9526 19.138L19.9375 19.8435C20.087 19.8964 20.249 19.9025 20.4021 19.8611C20.5552 19.8197 20.692 19.7327 20.7944 19.6116L20.8384 19.5603C21.688 18.5569 22.3423 17.4241 22.7842 16.1936L22.8061 16.1302C22.916 15.8299 22.8257 15.4881 22.5791 15.2757ZM19.2466 11.3743C19.3076 11.7429 19.3394 12.1214 19.3394 12.4998C19.3394 12.8782 19.3076 13.2566 19.2466 13.6253L19.0854 14.6043L20.9092 16.1643C20.6327 16.8013 20.2837 17.4042 19.8691 17.9612L17.6035 17.158L16.8369 17.7879C16.2534 18.2664 15.604 18.6424 14.9009 18.906L13.9707 19.2552L13.5337 21.6233C12.8442 21.7015 12.148 21.7015 11.4585 21.6233L11.0215 19.2503L10.0986 18.8963C9.40283 18.6326 8.75586 18.2566 8.17725 17.7805L7.41065 17.1482L5.13037 17.9588C4.71534 17.3997 4.36866 16.7967 4.09034 16.1619L5.9336 14.5872L5.77491 13.6106C5.71631 13.2468 5.68457 12.8709 5.68457 12.4998C5.68457 12.1262 5.71387 11.7527 5.77491 11.3889L5.9336 10.4124L4.09034 8.83766C4.36621 8.20045 4.71534 7.59986 5.13037 7.04078L7.41065 7.85133L8.17725 7.219C8.75586 6.74293 9.40283 6.36695 10.0986 6.10328L11.0239 5.75416L11.4609 3.38111C12.147 3.30298 12.8477 3.30298 13.5361 3.38111L13.9731 5.74927L14.9033 6.0984C15.604 6.36207 16.2559 6.73805 16.8394 7.21656L17.606 7.84645L19.8716 7.04322C20.2866 7.6023 20.6333 8.20533 20.9116 8.8401L19.0879 10.4002L19.2466 11.3743ZM12.501 7.95875C10.1279 7.95875 8.2041 9.88258 8.2041 12.2556C8.2041 14.6287 10.1279 16.5525 12.501 16.5525C14.874 16.5525 16.7978 14.6287 16.7978 12.2556C16.7978 9.88258 14.874 7.95875 12.501 7.95875ZM14.4346 14.1892C14.181 14.4436 13.8796 14.6453 13.5477 14.7827C13.2159 14.9201 12.8601 14.9906 12.501 14.99C11.771 14.99 11.085 14.7044 10.5674 14.1892C10.313 13.9356 10.1114 13.6342 9.97393 13.3024C9.8365 12.9705 9.76604 12.6148 9.7666 12.2556C9.7666 11.5257 10.0522 10.8396 10.5674 10.322C11.085 9.80446 11.771 9.52125 12.501 9.52125C13.231 9.52125 13.917 9.80446 14.4346 10.322C14.6889 10.5756 14.8906 10.877 15.028 11.2089C15.1654 11.5407 15.2359 11.8965 15.2354 12.2556C15.2354 12.9856 14.9497 13.6717 14.4346 14.1892Z" fill="#8F8F8F"/>
</svg>
