<svg width="29" height="23" viewBox="0 0 29 23" fill="none" xmlns="http://www.w3.org/2000/svg">
<path d="M29 2.80127C27.9643 3.24358 26.7806 3.53846 25.597 3.6859C26.7806 2.94872 27.8163 1.76923 28.2602 0.442312C27.0765 1.17949 25.8929 1.6218 24.4133 1.91667C23.3776 0.737184 21.75 0 20.1224 0C16.8673 0 14.2041 2.65385 14.2041 5.89743C14.2041 6.33974 14.2041 6.78204 14.352 7.22435C9.46939 6.92948 5.03061 4.57051 2.07142 1.03205C1.62754 1.91666 1.33162 2.94871 1.33162 3.98076C1.33162 6.04486 2.36734 7.8141 3.9949 8.84615C2.95918 8.84615 2.07142 8.55128 1.33162 8.10897C1.33162 10.9103 3.40305 13.4167 6.06632 13.859C5.62244 14.0064 5.03061 14.0064 4.43878 14.0064C3.9949 14.0064 3.69898 14.0064 3.2551 13.859C3.9949 16.2179 6.21429 17.9872 8.87756 17.9872C6.80613 19.609 4.29082 20.4936 1.47959 20.4936C1.03571 20.4936 0.591837 20.4936 0 20.3462C2.66327 21.9679 5.77041 23 9.17347 23C20.1225 23 26.0408 14.0064 26.0408 6.1923V5.45512C27.2245 5.01281 28.2602 3.98076 29 2.80127Z" fill="#2E77AE"/>
</svg>
