<svg width="20" height="20" viewBox="0 0 20 20" fill="none" xmlns="http://www.w3.org/2000/svg">
<path fill-rule="evenodd" clip-rule="evenodd" d="M9.64537 6.26113C9.64537 3.95846 11.512 2.0918 13.8147 2.0918C15.1667 2.0918 16.2454 2.73046 16.968 3.65846C17.7324 3.50179 18.4652 3.21832 19.136 2.8198C18.8763 3.62807 18.3325 4.31488 17.6054 4.75313L17.608 4.75713C18.2983 4.67373 18.9724 4.48814 19.608 4.20646L19.6067 4.20913C19.1574 4.88246 18.5934 5.4758 17.9427 5.9598C17.9774 6.1958 17.996 6.4318 17.996 6.66646C17.996 11.5825 14.2507 17.2998 7.3627 17.2998C5.33164 17.3016 3.34305 16.7183 1.6347 15.6198C1.55428 15.5682 1.48589 15.4999 1.43417 15.4195C1.38246 15.3391 1.34862 15.2486 1.33497 15.154C1.32131 15.0594 1.32815 14.963 1.35502 14.8713C1.38189 14.7796 1.42816 14.6947 1.4907 14.6225C1.55018 14.5236 1.6369 14.444 1.74048 14.3931C1.84406 14.3423 1.9601 14.3224 2.0747 14.3358C3.29604 14.4798 4.5147 14.3305 5.5907 13.8611C5.05998 13.6266 4.58485 13.2826 4.19651 12.8515C3.80816 12.4204 3.51537 11.912 3.33737 11.3598C3.30446 11.2571 3.29984 11.1474 3.32401 11.0423C3.34818 10.9372 3.40024 10.8405 3.4747 10.7625C3.03652 10.3779 2.68553 9.90419 2.44523 9.37302C2.20494 8.84184 2.08088 8.26546 2.08137 7.68246V7.63713C2.08134 7.49764 2.12991 7.3625 2.21873 7.25495C2.30754 7.14739 2.43106 7.07414 2.56804 7.0478C2.26574 6.46443 2.10842 5.81683 2.10937 5.1598C2.10937 4.5358 2.11337 3.74913 2.55204 3.0398C2.5989 2.96465 2.66183 2.90081 2.73629 2.85286C2.81075 2.80491 2.8949 2.77404 2.9827 2.76246C3.11002 2.72231 3.24646 2.7213 3.37435 2.75958C3.50225 2.79785 3.61571 2.87364 3.70004 2.97713C5.18633 4.80552 7.31216 6.00046 9.6467 6.3198V6.26113H9.64537ZM7.3627 15.9665C6.34256 15.9672 5.32932 15.7992 4.36404 15.4691C5.52509 15.2776 6.62022 14.8002 7.5507 14.0798C7.64822 14.0033 7.71966 13.8985 7.7552 13.7798C7.79073 13.661 7.78863 13.5342 7.74917 13.4167C7.70972 13.2992 7.63485 13.1968 7.53485 13.1236C7.43485 13.0504 7.31463 13.0099 7.1907 13.0078C6.74432 12.9998 6.30583 12.8887 5.90942 12.6834C5.51301 12.478 5.16939 12.1838 4.90537 11.8238C5.1587 11.8038 5.4067 11.7598 5.6467 11.6958C5.77753 11.6608 5.89268 11.5826 5.97343 11.4739C6.05417 11.3652 6.09576 11.2323 6.09143 11.097C6.08711 10.9616 6.03712 10.8317 5.9496 10.7284C5.86207 10.625 5.74217 10.5543 5.60937 10.5278C5.10211 10.425 4.6315 10.1887 4.24614 9.84318C3.86079 9.49767 3.57468 9.05554 3.41737 8.56246C3.68404 8.62646 3.9627 8.66513 4.24804 8.67446C4.37843 8.67885 4.5067 8.64062 4.61341 8.56556C4.72012 8.4905 4.79946 8.3827 4.8394 8.2585C4.87935 8.1343 4.87772 8.00046 4.83477 7.87727C4.79181 7.75408 4.70988 7.64824 4.60137 7.5758C4.20351 7.31074 3.87727 6.95151 3.65164 6.53003C3.42602 6.10855 3.30798 5.63787 3.30804 5.1598C3.30804 4.9358 3.31204 4.73713 3.32537 4.5558C5.19107 6.45978 7.70565 7.59091 10.368 7.7238C10.4708 7.72903 10.5735 7.71037 10.6679 7.66931C10.7623 7.62824 10.8459 7.56587 10.9121 7.48708C10.9784 7.40829 11.0255 7.31524 11.0498 7.2152C11.074 7.11516 11.0748 7.01085 11.052 6.91046C10.9541 6.49413 10.9516 6.06104 11.0447 5.64361C11.1379 5.22618 11.3242 4.83522 11.5898 4.49999C11.8554 4.16476 12.1934 3.89394 12.5784 3.7078C12.9635 3.52166 13.3857 3.42503 13.8134 3.42513C15.4587 3.42513 16.6614 4.94913 16.6614 6.6678C16.6614 11.0091 13.3614 15.9665 7.3627 15.9665Z" fill="#2E77AE"/>
</svg>
