<svg width="27" height="17" viewBox="0 0 27 17" fill="none" xmlns="http://www.w3.org/2000/svg">
<path d="M13.8554 0.703186C14.8542 0.703186 15.8121 1.09996 16.5184 1.80623C17.2246 2.51249 17.6214 3.47039 17.6214 4.4692C17.6214 5.46801 17.2246 6.42591 16.5184 7.13217C15.8121 7.83844 14.8542 8.23521 13.8554 8.23521C12.8566 8.23521 11.8987 7.83844 11.1924 7.13217C10.4862 6.42591 10.0894 5.46801 10.0894 4.4692C10.0894 3.47039 10.4862 2.51249 11.1924 1.80623C11.8987 1.09996 12.8566 0.703186 13.8554 0.703186ZM6.32338 3.3932C6.92594 3.3932 7.48546 3.5546 7.96967 3.84512C7.80826 5.3838 8.26019 6.91173 9.18555 8.10609C8.64755 9.13906 7.57154 9.84922 6.32338 9.84922C5.46726 9.84922 4.6462 9.50913 4.04083 8.90376C3.43546 8.29839 3.09537 7.47733 3.09537 6.62121C3.09537 5.76509 3.43546 4.94403 4.04083 4.33866C4.6462 3.73329 5.46726 3.3932 6.32338 3.3932ZM21.3874 3.3932C22.2436 3.3932 23.0646 3.73329 23.67 4.33866C24.2754 4.94403 24.6154 5.76509 24.6154 6.62121C24.6154 7.47733 24.2754 8.29839 23.67 8.90376C23.0646 9.50913 22.2436 9.84922 21.3874 9.84922C20.1393 9.84922 19.0633 9.13906 18.5253 8.10609C19.4506 6.91173 19.9025 5.3838 19.7411 3.84512C20.2253 3.5546 20.7849 3.3932 21.3874 3.3932ZM6.86138 14.4222C6.86138 12.1949 9.99255 10.3872 13.8554 10.3872C17.7183 10.3872 20.8494 12.1949 20.8494 14.4222V16.3052H6.86138V14.4222ZM0.943359 16.3052V14.6912C0.943359 13.1956 2.97701 11.9367 5.73158 11.5708C5.09673 12.3025 4.70937 13.314 4.70937 14.4222V16.3052H0.943359ZM26.7675 16.3052H23.0014V14.4222C23.0014 13.314 22.6141 12.3025 21.9792 11.5708C24.7338 11.9367 26.7675 13.1956 26.7675 14.6912V16.3052Z" fill="#0D2137"/>
</svg>
