<svg width="27" height="22" viewBox="0 0 27 22" fill="none" xmlns="http://www.w3.org/2000/svg">
<path d="M24.1129 5.43415C24.1293 5.66354 24.1293 5.89298 24.1293 6.12237C24.1293 13.1191 18.8039 21.1809 9.07074 21.1809C6.07211 21.1809 3.28654 20.3125 0.943359 18.805C1.36941 18.8542 1.77901 18.8705 2.22145 18.8705C4.69567 18.8705 6.97334 18.0349 8.79217 16.6093C6.46538 16.5601 4.51546 15.0363 3.84363 12.9389C4.17137 12.988 4.49906 13.0208 4.8432 13.0208C5.31837 13.0208 5.7936 12.9552 6.23599 12.8406C3.81089 12.349 1.99201 10.2188 1.99201 7.64625V7.58073C2.69657 7.97399 3.51593 8.21977 4.38432 8.25251C2.95875 7.30211 2.02479 5.67993 2.02479 3.84471C2.02479 2.86158 2.28692 1.96036 2.74575 1.17383C5.35111 4.38545 9.26734 6.4828 13.6587 6.71224C13.5768 6.31898 13.5276 5.90938 13.5276 5.49972C13.5276 2.58301 15.8872 0.207092 18.8202 0.207092C20.3441 0.207092 21.7205 0.846138 22.6873 1.87845C23.8834 1.64906 25.0304 1.20662 26.0464 0.600355C25.6531 1.82932 24.8174 2.86163 23.7196 3.51701C24.7847 3.40237 25.817 3.10736 26.7674 2.69776C26.0465 3.74641 25.1452 4.68036 24.1129 5.43415Z" fill="#0D2137"/>
</svg>
