<svg width="27" height="27" viewBox="0 0 27 27" fill="none" xmlns="http://www.w3.org/2000/svg">
<path d="M18.0738 13.0478C18.0738 13.8354 17.4098 14.481 16.5687 14.481C15.7423 14.481 15.0635 13.8354 15.0635 13.0478C15.0635 12.2601 15.7275 11.6145 16.5687 11.6145C17.4098 11.6145 18.0738 12.2601 18.0738 13.0478ZM11.1825 11.6145C10.3414 11.6145 9.67733 12.2601 9.67733 13.0478C9.67733 13.8354 10.3561 14.481 11.1825 14.481C12.0236 14.481 12.6877 13.8354 12.6877 13.0478C12.7024 12.2601 12.0236 11.6145 11.1825 11.6145ZM26.7655 3.44119V26.6054C23.0479 23.7308 24.2368 24.6823 19.9184 21.1694L20.7005 23.5582H3.96651C2.29902 23.5582 0.941406 22.3703 0.941406 20.8983V3.44119C0.941406 1.96922 2.29902 0.781311 3.96651 0.781311H23.7404C25.4079 0.781311 26.7655 1.96922 26.7655 3.44119ZM22.5599 15.6818C22.5599 11.5241 20.4349 8.15409 20.4349 8.15409C18.31 6.75959 16.2883 6.79832 16.2883 6.79832L16.0817 7.00492C18.5903 7.67634 19.7561 8.64475 19.7561 8.64475C16.2508 6.96371 12.1332 6.96341 8.7329 8.2703C8.18691 8.4898 7.86226 8.64475 7.86226 8.64475C7.86226 8.64475 9.08706 7.6247 11.7433 6.95327L11.5957 6.79832C11.5957 6.79832 9.57403 6.75959 7.44908 8.15409C7.44908 8.15409 5.32412 11.5241 5.32412 15.6818C5.32412 15.6818 6.56368 17.5541 9.82489 17.6444C9.82489 17.6444 10.3709 17.0634 10.8136 16.5727C8.9395 16.0821 8.23118 15.0491 8.23118 15.0491C8.44826 15.1821 8.80623 15.3544 8.8362 15.3719C11.327 16.5924 14.865 16.9923 18.0443 15.8238C18.5608 15.656 19.1363 15.4107 19.7413 15.062C19.7413 15.062 19.0035 16.1208 17.0704 16.5986C17.5131 17.0892 18.0443 17.6444 18.0443 17.6444C21.3055 17.5541 22.5599 15.6818 22.5599 15.6818Z" fill="#0D2137"/>
</svg>
