<svg width="27" height="23" viewBox="0 0 27 23" fill="none" xmlns="http://www.w3.org/2000/svg">
<path d="M25.2787 4.42912L19.3905 3.97518L20.2274 2.29056C20.8491 1.10528 19.5818 0.252882 18.5118 0.42437L2.29403 2.6638C1.39139 2.79999 0.739806 3.58681 1.01479 4.50982L7.29745 22.0773C7.68601 23.1516 9.49131 23.2979 10.1489 22.4303L12.259 18.355L26.3188 6.68873C27.2992 5.84138 26.5759 4.52495 25.2787 4.42912ZM18.739 1.48861C19.0438 1.4533 19.1873 1.6147 19.0498 1.86184L18.0455 3.87431L7.44092 3.05217L18.739 1.48861ZM2.30599 4.22737C2.12068 3.97014 2.36577 3.723 2.67064 3.76839L17.5374 4.91332L11.7449 16.5493L2.30599 4.22737ZM9.07884 21.8049C8.92341 22.0067 8.60659 21.9613 8.51692 21.7444L3.54937 7.8488L11.183 17.8153C10.7646 18.5718 9.07884 21.8049 9.07884 21.8049ZM25.3863 5.94225L13.5084 15.7978L18.8705 5.01924L25.2309 5.50849C25.47 5.56397 25.5716 5.77581 25.3863 5.94225Z" fill="#0D2137"/>
</svg>
