<svg width="22" height="22" viewBox="0 0 22 22" fill="none" xmlns="http://www.w3.org/2000/svg">
<path d="M15.692 0.203308H6.00945C4.51197 0.20491 3.07628 0.800493 2.01739 1.85937C0.958513 2.91826 0.36293 4.35395 0.361328 5.85143V15.5339C0.36293 17.0314 0.958513 18.4671 2.01739 19.526C3.07628 20.5849 4.51197 21.1805 6.00945 21.1821H15.692C17.1894 21.1805 18.6251 20.5849 19.684 19.526C20.7429 18.4671 21.3385 17.0314 21.3401 15.5339V5.85143C21.3385 4.35395 20.7429 2.91826 19.684 1.85937C18.6251 0.800493 17.1894 0.20491 15.692 0.203308ZM10.8507 15.5339C9.89319 15.5339 8.95719 15.25 8.16105 14.718C7.36491 14.1861 6.74439 13.43 6.37797 12.5453C6.01155 11.6607 5.91568 10.6873 6.10248 9.7482C6.28928 8.80909 6.75036 7.94646 7.42742 7.2694C8.10448 6.59234 8.96711 6.13126 9.90622 5.94446C10.8453 5.75766 11.8187 5.85353 12.7034 6.21995C13.588 6.58637 14.3441 7.20689 14.8761 8.00303C15.408 8.79917 15.692 9.73517 15.692 10.6927C15.6906 11.9763 15.1801 13.2069 14.2725 14.1145C13.3649 15.0221 12.1343 15.5326 10.8507 15.5339ZM16.9023 5.85143C16.6629 5.85143 16.4289 5.78045 16.2299 5.64746C16.0308 5.51447 15.8757 5.32544 15.7841 5.10429C15.6925 4.88313 15.6685 4.63978 15.7152 4.405C15.7619 4.17022 15.8772 3.95457 16.0464 3.7853C16.2157 3.61603 16.4314 3.50076 16.6661 3.45406C16.9009 3.40736 17.1443 3.43133 17.3654 3.52294C17.5866 3.61454 17.7756 3.76967 17.9086 3.96871C18.0416 4.16774 18.1126 4.40174 18.1126 4.64112C18.1126 4.96212 17.9851 5.26996 17.7581 5.49694C17.5311 5.72392 17.2233 5.85143 16.9023 5.85143ZM14.0782 10.6927C14.0782 11.331 13.8889 11.955 13.5343 12.4858C13.1796 13.0165 12.6756 13.4302 12.0858 13.6745C11.4961 13.9188 10.8471 13.9827 10.221 13.8582C9.59498 13.7336 9.01989 13.4262 8.56852 12.9749C8.11714 12.5235 7.80975 11.9484 7.68522 11.3223C7.56068 10.6963 7.6246 10.0473 7.86888 9.45757C8.11316 8.86782 8.52684 8.36376 9.0576 8.00912C9.58836 7.65447 10.2124 7.46518 10.8507 7.46518C11.7067 7.46518 12.5276 7.80522 13.1329 8.4105C13.7382 9.01577 14.0782 9.8367 14.0782 10.6927Z" fill="#0D2137"/>
</svg>
