<svg width="23" height="23" viewBox="0 0 23 23" fill="none" xmlns="http://www.w3.org/2000/svg">
<path d="M7.39286 11.5C7.39286 10.3558 7.45693 9.25421 7.57522 8.21429H15.4248C15.5431 9.25421 15.6071 10.3558 15.6071 11.5C15.6071 12.6443 15.5431 13.7458 15.4248 14.7857H7.57522C7.45261 13.6948 7.39172 12.5978 7.39286 11.5ZM5.9225 14.7857C5.80669 13.6943 5.74911 12.5975 5.75 11.5C5.75 10.3673 5.80997 9.26571 5.9225 8.21429H0.476432C0.159551 9.28072 -0.00093038 10.3875 4.05723e-06 11.5C4.05723e-06 12.6418 0.166754 13.745 0.476432 14.7857H5.9225ZM1.10647 16.4286H6.1484C6.40632 17.9564 6.78172 19.3422 7.2524 20.5176C7.5555 21.275 7.90379 21.9617 8.29725 22.5482C6.73465 22.0934 5.28603 21.313 4.04666 20.2583C2.8073 19.2035 1.80526 17.8983 1.10647 16.4286ZM7.8159 16.4286H15.1841C14.9459 17.7429 14.6173 18.9191 14.223 19.9073C13.7992 20.9653 13.3162 21.7654 12.8217 22.2895C12.3288 22.8103 11.882 23 11.5 23C11.118 23 10.6712 22.8103 10.1783 22.2886C9.68382 21.7654 9.20082 20.9653 8.77779 19.9073C8.38268 18.9191 8.05411 17.742 7.8159 16.4286ZM16.8516 16.4286C16.5937 17.9564 16.2183 19.3422 15.7476 20.5176C15.4445 21.275 15.0962 21.9617 14.7028 22.5482C16.2654 22.0934 17.714 21.313 18.9533 20.2583C20.1927 19.2035 21.1947 17.8983 21.8935 16.4286H16.8516ZM22.5236 14.7857C22.8333 13.745 23 12.6418 23 11.5C23 10.3582 22.8333 9.25504 22.5236 8.21429H17.0775C17.19 9.26571 17.25 10.3673 17.25 11.5C17.25 12.6328 17.19 13.7343 17.0775 14.7857H22.5236ZM14.2222 3.09268C14.6173 4.08086 14.9459 5.25796 15.1841 6.57143H7.8159C8.05411 5.25714 8.38268 4.08086 8.77697 3.09268C9.20082 2.03468 9.68382 1.23379 10.1783 0.710536C10.6695 0.192214 11.1148 0.00164286 11.4959 0H11.5025C11.8836 0 12.3296 0.191393 12.8217 0.711357C13.3162 1.23379 13.7992 2.03468 14.2222 3.09268ZM16.8516 6.57143H21.8935C21.1947 5.10166 20.1927 3.79648 18.9533 2.74173C17.714 1.68698 16.2654 0.906554 14.7028 0.451786C15.0962 1.03829 15.4445 1.725 15.7476 2.48236C16.2183 3.65782 16.5937 5.04357 16.8516 6.57143ZM1.10647 6.57143H6.1484C6.40632 5.04357 6.78172 3.65782 7.2524 2.48236C7.5555 1.725 7.90379 1.03829 8.29725 0.451786C6.73465 0.906554 5.28603 1.68698 4.04666 2.74173C2.8073 3.79648 1.80526 5.10166 1.10647 6.57143Z" fill="#2E77AE"/>
</svg>
